<?xml version="1.0" encoding="utf-8"?>
<!-- Generator: Adobe Illustrator 19.0.0, SVG Export Plug-In . SVG Version: 6.00 Build 0)  -->
<svg version="1.1" id="Layer_1" xmlns="http://www.w3.org/2000/svg" xmlns:xlink="http://www.w3.org/1999/xlink" x="0px" y="0px"
	 viewBox="0 0 480 480" style="enable-background:new 0 0 480 480;" xml:space="preserve">
<style type="text/css">
	.st0{clip-path:url(#SVGID_2_);}
     path{
    fill:#fff;
    }
</style>
<g>
	<defs>
		<rect id="SVGID_1_" width="480" height="480"/>
	</defs>
	<clipPath id="SVGID_2_">
		<use xlink:href="#SVGID_1_"  style="overflow:visible;"/>
	</clipPath>
	<path class="st0" d="M264,240c0-13.3-10.7-24-24-24c-13.3,0-24,10.7-24,24c0,13.3,10.7,24,24,24C253.3,264,264,253.3,264,240
		 M240,248c-4.4,0-8-3.6-8-8c0-4.4,3.6-8,8-8c4.4,0,8,3.6,8,8C248,244.4,244.4,248,240,248"/>
	<path class="st0" d="M418.2,315.2l-122.4-70.7c0.1-1.5,0.2-3,0.2-4.5c0-13.5-5-26.6-13.9-36.8c9.2-18.4,13.9-38.7,13.9-59.2
		c0-54.4-34.3-104-72-104c-4.4,0-8,3.6-8,8v141.5c-13.6,6.5-24.1,18.2-29,32.5c-20.5,1.2-40.4,7.2-58.2,17.5
		c-0.3,0.2-0.6,0.4-0.9,0.5c0-41.1,22.5-78.9,58.6-98.5l-7.6-14.1c-41.3,22.4-67,65.6-67,112.5c0,3.6,0.2,7.1,0.5,10.6
		c-7.8,6.2-14.9,13.3-21.2,21.1C75.6,198.3,115.9,124.5,186,97.9l-5.7-15C97.4,114.5,53.2,205.1,79.5,289.8
		c-0.8,1.6-1.7,3.2-2.5,4.8c-10.4,22.1-11.2,43.7-2.2,59.2c2.2,3.8,7.1,5.1,10.9,2.9l22.4-12.9c51.5,65.7,143.5,83.5,215.8,41.7
		l-8-13.8c-64.7,37.3-146.9,22.1-193.9-35.9l21.2-12.2c34.2,39.7,89.2,54.5,138.7,37.4l-5.2-15.1c-42.3,14.7-89.2,2.7-119.3-30.4
		l51-29.4c9.3,6.5,20.3,9.9,31.6,10c3.7,0,7.3-0.4,10.9-1.2c11.3,17.1,26.5,31.4,44.2,41.7c19.5,11.4,41.6,17.5,64.1,17.7
		c3.2,0,6.4-0.1,9.6-0.4c24.4-2.1,43.4-12.2,52.4-27.7c1.1-1.8,1.4-4,0.8-6.1C421.4,318,420.1,316.3,418.2,315.2 M232,57.2
		c23.7,6.8,48,42.3,48,86.8c0,16.7-3.5,33.2-10.4,48.4c-2-1.2-4-2.3-6.1-3.2c-0.5-0.2-1-0.5-1.5-0.7c-2.1-0.9-4.2-1.7-6.4-2.3h-0.1
		c-2.2-0.6-4.5-1.1-6.8-1.4c-0.6-0.1-1.1-0.2-1.7-0.2c-2.3-0.3-4.7-0.5-7-0.6c-2.7,0-5.4,0.2-8,0.6V57.2z M85.7,338.3
		c-1.8-9.2-1.1-18.7,2.1-27.5c3.2,6.9,6.9,13.6,11,19.9L85.7,338.3z M112.7,322.8c-6.4-9.8-11.6-20.4-15.6-31.4
		c5.1-8.2,11.3-15.6,18.4-22.2c3.5,14.8,9.5,28.9,17.9,41.6L112.7,322.8z M147.3,302.8c-9.1-13.5-15.2-28.8-17.7-44.8
		c2.4-1.6,4.8-3.1,7.3-4.6c14.4-8.4,30.5-13.6,47.1-15.2v1.8c0,2.8,0.3,5.6,0.7,8.3c0.1,0.6,0.2,1.3,0.3,1.9c0.5,2.7,1.2,5.3,2,7.9
		c0.1,0.3,0.2,0.6,0.4,0.9c0.9,2.3,1.9,4.6,3,6.8c0.3,0.6,0.6,1.1,0.9,1.6c1.3,2.3,2.8,4.6,4.5,6.7c0.1,0.1,0.2,0.3,0.3,0.4
		L147.3,302.8z M214,270.4c-8.9-7.6-14-18.7-14-30.4c0-2.9,0.3-5.7,0.9-8.6c3-13.5,12.7-24.5,25.8-29.1c1.9-0.7,3.8-1.2,5.8-1.5
		c0.9-0.2,1.8-0.3,2.7-0.4c1-0.1,2.1-0.2,3.1-0.3c1,0,2.2,0,3.3,0c1.1,0,2,0.2,3,0.3c2.3,0.3,4.5,0.7,6.7,1.4c0.7,0.2,1.4,0.3,2,0.6
		c1.1,0.4,2.1,0.9,3.2,1.3c1.1,0.5,2.1,1,3.1,1.5c0.8,0.4,1.5,0.9,2.3,1.3c1.8,1.2,3.5,2.5,5.1,3.9c8.3,7.6,13,18.3,13,29.5
		c0,2.5-0.2,4.9-0.7,7.3c-2.6,14.1-12.5,25.6-26,30.4C239.9,282.5,224.9,279.7,214,270.4 M367.4,337.9c-22.5,1.5-44.9-3.8-64.3-15.2
		c-14.5-8.4-27-19.7-36.7-33.3c0.5-0.3,0.9-0.7,1.4-0.9c1.9-1.1,3.7-2.2,5.4-3.5c0.7-0.5,1.5-1.1,2.2-1.6c2.1-1.7,4-3.5,5.8-5.4
		c0.2-0.2,0.4-0.4,0.6-0.6c2-2.2,3.7-4.6,5.3-7.1c0.4-0.6,0.7-1.3,1.1-2c1.1-2,2.2-4,3.1-6.1c0.2-0.4,0.5-0.8,0.7-1.3l110.3,63.7
		C392.5,332.7,380.2,337.4,367.4,337.9L367.4,337.9z"/>
	<path class="st0" d="M240,0C107.5,0,0,107.5,0,240s107.5,240,240,240s240-107.5,240-240C479.9,107.5,372.5,0.1,240,0 M240,464
		C116.3,464,16,363.7,16,240S116.3,16,240,16s224,100.3,224,224C463.9,363.7,363.7,463.9,240,464"/>
	<path class="st0" d="M392,240c0,10.3-1,20.6-3.1,30.6l15.7,3.2c14.5-70.9-18-143.1-80.6-179.4l-8,13.8
		C362.9,135.6,391.9,185.7,392,240"/>
	<path class="st0" d="M352,240h16c0-36.4-15.5-71.1-42.7-95.4l-10.7,11.9C338.4,177.8,352,208.1,352,240"/>
</g>
</svg>
