<?xml version="1.0" encoding="utf-8"?>
<!-- Generator: Adobe Illustrator 24.0.1, SVG Export Plug-In . SVG Version: 6.00 Build 0)  -->
<svg version="1.1" id="Layer_1" xmlns="http://www.w3.org/2000/svg" xmlns:xlink="http://www.w3.org/1999/xlink" x="0px" y="0px"
	 viewBox="0 0 55.2 20" style="enable-background:new 0 0 55.2 20;" xml:space="preserve">
<style type="text/css">
	.st1, .st2, .st3, .st4, .st5{fill:#EBD493; transform-origin:center;transform-box:fill-box;}
	.st1{animation: st1Anim 0.5s linear infinite alternate;}
	.st2{animation: st2Anim 0.5s linear infinite alternate;}
	.st3{animation: st3Anim 0.5s linear infinite alternate;}
	.st4{animation: st4Anim 0.5s linear infinite alternate;}
	.st5{animation: st5Anim 0.5s linear infinite alternate;}
	
	@keyframes st1Anim{
		0%{transform:scaleY(1)}
		100%{transform:scaleY(1.3)}
	}
	
	@keyframes st2Anim{ 
		0%{transform:scaleY(1)}
		100%{transform:scaleY(0.7)}
	}
	
	@keyframes st3Anim{
		0%{transform:scaleY(1)}
		100%{transform:scaleY(0.7)}
	}
	
	@keyframes st4Anim{
		0%{transform:scaleY(1)}
		100%{transform:scaleY(1.3)}
	}
	
	@keyframes st5Anim{
		0%{transform:scaleY(1)}
		100%{transform:scaleY(0.7)}
	}
	
</style>
<path class="st1" d="M0.4,7.8c-0.3,0-0.5,0.2-0.5,0.5V11c0,0.3,0.2,0.5,0.5,0.5c0.3,0,0.5-0.2,0.5-0.5V8.4C0.9,8.1,0.7,7.8,0.4,7.8
	L0.4,7.8z M0.4,7.8"/>
<path class="st2" d="M3,5.7c-0.3,0-0.5,0.2-0.5,0.5v7.2C2.5,13.8,2.7,14,3,14s0.5-0.2,0.5-0.5V6.2C3.6,5.9,3.3,5.7,3,5.7L3,5.7z
	 M3,5.7"/>
<path class="st3" d="M5.6,2.1c-0.3,0-0.5,0.2-0.5,0.5v14.6c0,0.3,0.2,0.5,0.5,0.5c0.3,0,0.5-0.2,0.5-0.5V2.6
	C6.2,2.3,5.9,2.1,5.6,2.1L5.6,2.1z M5.6,2.1"/>
<path class="st4" d="M8.3,4.7C8,4.7,7.7,4.9,7.7,5.2v8.9c0,0.3,0.2,0.5,0.5,0.5c0.3,0,0.5-0.2,0.5-0.5V5.2C8.8,4.9,8.5,4.7,8.3,4.7
	L8.3,4.7z M8.3,4.7"/>
<path class="st5" d="M16.2,3.4c-0.3,0-0.5,0.2-0.5,0.5v11.8c0,0.3,0.2,0.5,0.5,0.5c0.3,0,0.5-0.2,0.5-0.5V4
	C16.7,3.7,16.4,3.4,16.2,3.4L16.2,3.4z M16.2,3.4"/>
<path class="st1" d="M21.3,4.2c-0.3,0-0.5,0.2-0.5,0.5v10.5c0,0.3,0.2,0.5,0.5,0.5c0.3,0,0.5-0.2,0.5-0.5V4.7
	C21.9,4.4,21.6,4.2,21.3,4.2L21.3,4.2z M21.3,4.2"/>
<path class="st2" d="M23.9,6.8c-0.3,0-0.5,0.2-0.5,0.5v5.2c0,0.3,0.2,0.5,0.5,0.5c0.3,0,0.5-0.2,0.5-0.5V7.3
	C24.5,7,24.2,6.8,23.9,6.8L23.9,6.8z M23.9,6.8"/>
<path class="st3" d="M18.7,0c-0.3,0-0.5,0.2-0.5,0.5v18.8c0,0.3,0.2,0.5,0.5,0.5c0.3,0,0.5-0.2,0.5-0.5V0.5C19.2,0.2,19,0,18.7,0
	L18.7,0z M18.7,0"/>
<path class="st4" d="M10.9,8.4c-0.3,0-0.5,0.2-0.5,0.5V11c0,0.3,0.2,0.5,0.5,0.5c0.3,0,0.5-0.2,0.5-0.5V8.9
	C11.4,8.6,11.2,8.4,10.9,8.4L10.9,8.4z M10.9,8.4"/>
<path class="st5" d="M26.6,8.2c-0.3,0-0.5,0.2-0.5,0.5V11c0,0.3,0.2,0.5,0.5,0.5c0.3,0,0.5-0.2,0.5-0.5V8.7
	C27.1,8.4,26.9,8.2,26.6,8.2L26.6,8.2z M26.6,8.2"/>
<path class="st3" d="M13.4,7.2c-0.3,0-0.5,0.2-0.5,0.5V12c0,0.3,0.2,0.5,0.5,0.5c0.3,0,0.5-0.2,0.5-0.5V7.7
	C14,7.4,13.7,7.2,13.4,7.2L13.4,7.2z M13.4,7.2"/>
<path class="st4" d="M28.5,7.8c-0.3,0-0.5,0.2-0.5,0.5V11c0,0.3,0.2,0.5,0.5,0.5c0.3,0,0.5-0.2,0.5-0.5V8.4
	C29.1,8.1,28.8,7.8,28.5,7.8L28.5,7.8z M28.5,7.8"/>
<path class="st2" d="M31.2,5.7c-0.3,0-0.5,0.2-0.5,0.5v7.2c0,0.3,0.2,0.5,0.5,0.5c0.3,0,0.5-0.2,0.5-0.5V6.2
	C31.7,5.9,31.4,5.7,31.2,5.7L31.2,5.7z M31.2,5.7"/>
<path class="st1" d="M33.8,2.1c-0.3,0-0.5,0.2-0.5,0.5v14.6c0,0.3,0.2,0.5,0.5,0.5c0.3,0,0.5-0.2,0.5-0.5V2.6
	C34.3,2.3,34.1,2.1,33.8,2.1L33.8,2.1z M33.8,2.1"/>
<path class="st5" d="M36.4,4.7c-0.3,0-0.5,0.2-0.5,0.5v8.9c0,0.3,0.2,0.5,0.5,0.5c0.3,0,0.5-0.2,0.5-0.5V5.2
	C36.9,4.9,36.7,4.7,36.4,4.7L36.4,4.7z M36.4,4.7"/>
<path class="st2" d="M44.3,3.4c-0.3,0-0.5,0.2-0.5,0.5v11.8c0,0.3,0.2,0.5,0.5,0.5s0.5-0.2,0.5-0.5V4C44.8,3.7,44.6,3.4,44.3,3.4
	L44.3,3.4z M44.3,3.4"/>
<path class="st1" d="M49.5,4.2c-0.3,0-0.5,0.2-0.5,0.5v10.5c0,0.3,0.2,0.5,0.5,0.5c0.3,0,0.5-0.2,0.5-0.5V4.7
	C50,4.4,49.7,4.2,49.5,4.2L49.5,4.2z M49.5,4.2"/>
<path class="st5" d="M52.1,6.8c-0.3,0-0.5,0.2-0.5,0.5v5.2c0,0.3,0.2,0.5,0.5,0.5c0.3,0,0.5-0.2,0.5-0.5V7.3
	C52.6,7,52.4,6.8,52.1,6.8L52.1,6.8z M52.1,6.8"/>
<path class="st3" d="M46.8,0c-0.3,0-0.5,0.2-0.5,0.5v18.8c0,0.3,0.2,0.5,0.5,0.5c0.3,0,0.5-0.2,0.5-0.5V0.5C47.4,0.2,47.1,0,46.8,0
	L46.8,0z M46.8,0"/>
<path class="st2" d="M39,8.4c-0.3,0-0.5,0.2-0.5,0.5V11c0,0.3,0.2,0.5,0.5,0.5s0.5-0.2,0.5-0.5V8.9C39.5,8.6,39.3,8.4,39,8.4L39,8.4
	z M39,8.4"/>
<path class="st1" d="M54.7,8.2c-0.3,0-0.5,0.2-0.5,0.5V11c0,0.3,0.2,0.5,0.5,0.5c0.3,0,0.5-0.2,0.5-0.5V8.7
	C55.2,8.4,55,8.2,54.7,8.2L54.7,8.2z M54.7,8.2"/>
<path class="st3" d="M41.6,7.2c-0.3,0-0.5,0.2-0.5,0.5V12c0,0.3,0.2,0.5,0.5,0.5c0.3,0,0.5-0.2,0.5-0.5V7.7
	C42.1,7.4,41.9,7.2,41.6,7.2L41.6,7.2z M41.6,7.2"/>
</svg>
