<?xml version="1.0" encoding="utf-8"?>
<!-- Generator: Adobe Illustrator 25.0.1, SVG Export Plug-In . SVG Version: 6.00 Build 0)  -->
<svg version="1.1" id="Layer_1" xmlns="http://www.w3.org/2000/svg" xmlns:xlink="http://www.w3.org/1999/xlink" x="0px" y="0px"
	 viewBox="0 0 300 300" style="enable-background:new 0 0 300 300;" xml:space="preserve">
<style type="text/css">
	.st0{clip-path:url(#SVGID_2_);}
	.st1{fill:#F1BE84;}
	.st2{fill:#CEC6BD;}
	.st3{fill:#B2B2B2;}
	.st4{fill:#757E84;}
	.st5{fill:#472E3B;}
	.st6{fill:#F6EDE2;}
	.st7{fill:#D8AA77;}
	.st8{fill:#F1F1F1;}
	.st9{fill:#5688A2;}
	.st10{fill:#ECE3D9;}
	.st11{fill:#2E2F3B;}
</style>
<g>
	<defs>
		<rect id="SVGID_1_" x="46.4" y="2.6" width="207.1" height="297.4"/>
	</defs>
	<clipPath id="SVGID_2_">
		<use xlink:href="#SVGID_1_"  style="overflow:visible;"/>
	</clipPath>
	<g id="Group_26" class="st0">
		<path id="Path_30" class="st1" d="M103.1,165.3c2.6,4,1.5,3.8,5,8c3.5,4.2,16.3,13.3,16.3,13.3l4.8-14.6c0,0-3.1-8-7-15.9
			c-3.8-7.6-12.7-15.9-15.2-14.4C105.7,142.6,98.3,154.7,103.1,165.3"/>
		<path id="Path_31" class="st2" d="M241.3,154.5l-40,70.8l-66.9-49.8l-14.8,33l86.8,66.1c0,0,19.2-26,37.7-55.4
			C265.7,184.9,241.3,154.5,241.3,154.5"/>
		<path id="Path_32" class="st3" d="M134.4,175.5l-5.4-5.6l-11.4,21.3l6.5,7.3L134.4,175.5z"/>
		<path id="Path_33" class="st4" d="M98.5,184v-7.8c9,0,16.3-7.3,16.3-16.3c0-8.5-8.5-16.3-17.9-16.3v-7.8
			c6.5,0.1,12.8,2.5,17.7,6.9c5,4.3,7.9,10.6,8,17.2C122.6,173.2,111.8,184,98.5,184"/>
		<rect id="Rectangle_9" x="54.2" y="171.1" class="st5" width="34.8" height="6.8"/>
		<path id="Path_34" class="st3" d="M89,184.7H71c-3.4,0-6.1-2.8-6.1-6.1l0,0v-0.7H89L89,184.7z"/>
		<path id="Path_35" class="st6" d="M105.1,192.4H88.7v-13.6c0-4.5,3.7-8.2,8.2-8.2c4.5,0,8.2,3.7,8.2,8.2V192.4z"/>
		<path id="Path_36" class="st6" d="M120.2,201.4h-63v-2.3c0-3.7,3-6.7,6.7-6.7c0,0,0,0,0,0h49.6c3.7,0,6.7,3,6.7,6.7c0,0,0,0,0,0
			L120.2,201.4z"/>
		<rect id="Rectangle_10" x="46.4" y="201.5" class="st7" width="84.4" height="7.5"/>
		<path id="Path_37" class="st5" d="M101.4,180.1c0,2.5-2,4.6-4.6,4.6c-2.5,0-4.6-2-4.6-4.6c0-2.5,2-4.6,4.6-4.6c0,0,0,0,0,0
			C99.4,175.5,101.4,177.5,101.4,180.1"/>
		
			<rect id="Rectangle_11" x="77.5" y="143.8" transform="matrix(0.475 -0.88 0.88 0.475 -93.473 150.2609)" class="st5" width="3.3" height="19.3"/>
		
			<rect id="Rectangle_12" x="61.8" y="115.6" transform="matrix(0.4751 -0.8799 0.8799 0.4751 -56.5591 148.6734)" class="st3" width="69" height="12.2"/>
		
			<rect id="Rectangle_13" x="73.9" y="124.4" transform="matrix(0.475 -0.88 0.88 0.475 -70.851 149.297)" class="st6" width="31.6" height="19.3"/>
		<path id="Path_38" class="st6" d="M88,147.2v-16.4h13.6c4.5,0,8.2,3.7,8.2,8.2s-3.7,8.2-8.2,8.2L88,147.2z"/>
		<path id="Path_39" class="st5" d="M100.3,143.6c-2.5,0-4.6-2-4.6-4.6c0-2.5,2-4.6,4.6-4.6c2.5,0,4.6,2,4.6,4.6l0,0
			C104.9,141.5,102.9,143.6,100.3,143.6"/>
		
			<rect id="Rectangle_14" x="110.4" y="79.7" transform="matrix(0.4751 -0.88 0.88 0.4751 -16.7617 146.9747)" class="st5" width="8.8" height="15.7"/>
		<path id="Path_40" class="st3" d="M146.8,40.2l-15.2,1l-0.2,12.2c2.1,11.7,2,23.7-0.5,35.4c-4.2,19.1,3.6,46.4,15.6,51.9
			c11.9,5.5,19.1,6.3,20,5.2s19.2-29.8,19.2-29.8l3.4-34.6L146.8,40.2z"/>
		<path id="Path_41" class="st8" d="M253.6,120.5l-0.3,138c-25.6,26.5-60.9,41.5-97.8,41.5c-4.3,0-8.5-0.2-12.7-0.6l0.2-73.1
			l0.1-44.4l0-3.4l0.1-25c-1.7-5.8-1.1-12,1.8-17.3c0.1-0.2,0.2-0.4,0.3-0.5c2.7-4.7,6.9-8.2,11.9-10c0.1,0,0.2-0.1,0.3-0.1l0,0
			c0.3-0.1,0.6-0.2,0.9-0.3c0.5-0.2,1.1-0.3,1.5-0.5c1.7-0.7,3.3-1.7,4.7-2.9c0.2-0.2,0.5-0.4,0.7-0.6c0.1-0.1,0.2-0.2,0.3-0.3
			c1.5-1.4,2.7-3.1,3.5-5c0.5-1.1,0.9-2.3,1.2-3.5v0c0.1-0.3,0.1-0.6,0.2-0.9s0.1-0.6,0.1-0.9c0.2-2.3,0-4.7-0.6-6.9l-2-6.6
			l-2.7-9.1l-0.7-2.3l-3.4-11.3l-1.6-5.4l12.7-3.8l11.8-3.5l1.1-0.3l5.5-1.6l1.8-0.5l1.9,6.3l8.4,28.3c1,3.3,2.9,6.3,5.6,8.5
			l0.2,0.2c0.1,0.1,0.2,0.2,0.3,0.3c0.1,0.1,0.2,0.2,0.3,0.2c1,0.7,2.1,1.3,3.2,1.8l0,0c1.3,0.6,2.8,1,4.2,1.2
			c0.8,0.1,1.5,0.2,2.3,0.2c1.8,0,3.7-0.2,5.4-0.7l0.7-0.2C237.3,101.7,250,108.5,253.6,120.5C253.5,120.5,253.5,120.5,253.6,120.5"
			/>
		<path id="Path_42" class="st3" d="M212.6,104.7c0,0-14.2,20.8-22,53.2c-0.3,1.2-0.6,2.3-0.8,3.5c-6.9,30.1-5.5,47-5.5,47
			c-5.3-12.2-9.8-24.7-13.6-37.5c-1.3-4.5-2.5-9.1-3.5-13.6c-5.1-24.3-2.5-35.4-2.5-35.4l0,0c5.3-4.4,7.4-11.6,5.4-18.2l-1.5-5
			l32.9-9.8l1.5,5C204.4,98.7,207.9,102.7,212.6,104.7"/>
		<path id="Path_43" class="st9" d="M192.1,131.2l-17-15.4l-10.4,18.4l10.3-12.8L192.1,131.2z"/>
		<path id="Path_44" class="st5" d="M175.2,115.8l12.5,11.3l-11,8.7l-8.4-7.7L175.2,115.8z"/>
		<path id="Path_45" class="st5" d="M189.8,161.3c-6.9,30.1-5.5,47-5.5,47c-5.3-12.2-9.8-24.7-13.6-37.5l4.7-39.2l1.9-0.6
			L189.8,161.3z"/>
		<path id="Path_46" class="st1" d="M169.2,115.9c3.6,0.4,7.3,0,10.7-1.2c12-4,21.8-12.4,25.5-16c-1-1.5-1.9-3.2-2.4-5l-10.3-34.6
			L159.7,69l10.3,34.6C171.3,107.7,170.9,112,169.2,115.9"/>
		<path id="Path_47" class="st1" d="M177.2,96L177.2,96c-13.4,4-27.6-3.6-31.6-17.1l-7.3-24.4c-4-13.4,3.6-27.6,17.1-31.6
			c0,0,0,0,0,0l0,0c13.4-4,27.6,3.6,31.6,17.1l7.3,24.4C198.2,77.9,190.6,92,177.2,96C177.2,96,177.2,96,177.2,96"/>
		<path id="Path_48" class="st5" d="M187.3,100.7l-32.3,9.6L145.6,79l17.7-5.3c8-2.4,16.5,2.2,18.9,10.2L187.3,100.7z"/>
		<path id="Path_49" class="st5" d="M186,63.6L186,63.6c1.4,4.4-0.9,9-5.3,10.5l-12.3,3.7l7.8,26.2l11.5-3.4
			c7.8-2.3,12.1-10.9,9.6-19.2l-5.8-19.4L186,63.6z"/>
		<path id="Path_50" class="st7" d="M159.9,86.1c4.3-0.1,8.5-0.9,11.4-4.3c1-1.2,2.8,0.4,1.8,1.6c-3.3,3.8-8.2,5-13.1,5.1
			C158.4,88.6,158.3,86.2,159.9,86.1"/>
		<path id="Path_51" class="st5" d="M185.7,209.6L184,211l-0.4-0.6l-32.2-40.2l5.5-17.1l-10.1-2.5l10.3-25c0.4-0.1,0.8-0.3,1.2-0.4
			c0.5-0.2,1-0.3,1.5-0.5l-10.1,24.4l9.9,2.4l-5.9,18.2l30.9,38.6L185.7,209.6z"/>
		<path id="Path_52" class="st5" d="M168.8,57.4c0.5,1.6-0.4,3.4-2.1,3.9c-1.6,0.5-3.4-0.4-3.9-2.1c-0.5-1.6,0.4-3.4,2.1-3.9
			C166.6,54.8,168.3,55.7,168.8,57.4C168.8,57.4,168.8,57.4,168.8,57.4"/>
		<path id="Path_53" class="st5" d="M148.8,63.3c0.1,1.4-1,2.6-2.4,2.7c-1.4,0.1-2.6-1-2.7-2.4c-0.1-1.2,0.7-2.3,1.8-2.6
			C147.1,60.8,148.5,61.8,148.8,63.3"/>
		<path id="Path_54" class="st5" d="M158,46.6c2.5-2.4,6.2-3.3,9.5-2.3c1.5,0.5,0.9,2.8-0.6,2.3c-2.5-0.8-5.3-0.2-7.2,1.6
			C158.7,49.3,156.9,47.7,158,46.6"/>
		<path id="Path_55" class="st5" d="M139.6,52.1c1.9-2.2,5-3,7.7-1.7c1.2,0.5,0.9,2.8-0.3,2.3c-2-1-4.4-0.5-5.8,1.1
			C140.2,54.8,138.7,53.1,139.6,52.1"/>
		<path id="Path_56" class="st10" d="M153.4,61.6c0-0.1-0.1-0.3-0.1-0.4c-0.1-0.4-0.3-0.7-0.5-1.1c-0.1-0.2-0.2-0.4-0.4-0.6
			c-2.6-4.1-8-5.3-12-2.7c-1.3,0.8-2.3,1.9-3,3.3c-1.1,2-1.4,4.4-0.7,6.6c1,3.2,3.7,5.6,7.1,6.1c0.4,0.1,0.9,0.1,1.3,0.1
			c4.8,0,8.7-3.9,8.7-8.7C153.8,63.3,153.7,62.4,153.4,61.6 M151.6,66c-0.1,0.5-0.3,0.9-0.6,1.3c-1.5,2.8-4.9,4.2-8,3.3
			c-2.2-0.7-4-2.4-4.6-4.6c-1.1-3.6,1-7.4,4.6-8.5c0.6-0.2,1.3-0.3,1.9-0.3c3,0,5.7,2,6.6,4.9c0.1,0.2,0.1,0.4,0.1,0.6
			C152,63.8,152,65,151.6,66"/>
		<path id="Path_57" class="st5" d="M151.3,75.5l0.6-14.2c0.1-1.5,2.5-1.6,2.4-0.1l-0.5,13.4c1.7,0.5,3.4,0.8,5.1,1.2
			c1.5,0.3,0.9,2.6-0.6,2.3c-2-0.4-4-0.8-6-1.4C151.7,76.5,151.3,76,151.3,75.5"/>
		
			<rect id="Rectangle_15" x="182.9" y="27.4" transform="matrix(0.9582 -0.2861 0.2861 0.9582 -3.6953 55.0208)" class="st5" width="7.2" height="25.5"/>
		
			<rect id="Rectangle_16" x="179.3" y="17.3" transform="matrix(0.9582 -0.286 0.286 0.9582 -4.0404 53.8061)" class="st5" width="5.8" height="46.8"/>
		
			<rect id="Rectangle_17" x="172.2" y="50" transform="matrix(0.9581 -0.2864 0.2864 0.9581 -6.9175 54.6375)" class="st10" width="22.2" height="1.9"/>
		<path id="Path_58" class="st5" d="M165.8,19.9l6.6-2l6.2,20.7l-0.5,0.1c-3.4,1-6.9-0.9-7.9-4.3L165.8,19.9z"/>
		<path id="Path_59" class="st8" d="M128,41l-0.2-0.8c-1-19.4,12.3-31,31.9-36.3s30.9,6.8,34.1,18.3l0.2,0.8
			c13.4,7.9,35.7,81.4,35.7,81.4c25.7,7-11,29.1-25.5,33c0,0-37.2,8.8-23.9-21.9c15.5-35.8-2.2-73.8-2.2-73.8
			c-1.6-5.3-7.1-8.3-12.3-6.7l-26.8,7.3c-4.9,1.2-8.2,6-7.5,11.1C131.5,53.7,128,41,128,41"/>
		<path id="Path_60" class="st11" d="M123.8,34.2c-0.4-1.4,0.5-2.9,1.9-3.2l65.5-17.9c-0.6,3.1,1.4,6.2,4.5,6.8c0.1,0,0.1,0,0.2,0
			c0.4,1.4-0.5,2.9-1.9,3.2l-65.5,17.9c0.6-3.1-1.4-6.2-4.5-6.8C124,34.3,123.9,34.2,123.8,34.2"/>
		<path id="Path_61" class="st10" d="M174.1,55.5c-0.1-0.2-0.1-0.4-0.2-0.7c-0.2-0.6-0.5-1.2-0.9-1.7c-2.1-3.2-6.1-4.6-9.7-3.5
			c-3.8,1.1-6.3,4.6-6.2,8.5c0,0.6,0.1,1.3,0.2,1.9c0,0.2,0.1,0.3,0.1,0.5c1.4,4.6,6.2,7.3,10.8,5.9c0,0,0,0,0,0
			C172.8,64.9,175.5,60.1,174.1,55.5C174.1,55.5,174.1,55.5,174.1,55.5 M171.7,61.2c-1.8,3.3-6,4.6-9.3,2.8c-3.3-1.8-4.6-6-2.8-9.3
			c1.2-2.2,3.5-3.6,6-3.6c3,0,5.7,2,6.6,4.9C172.8,57.7,172.6,59.6,171.7,61.2"/>
		
			<rect id="Rectangle_18" x="151.3" y="58.8" transform="matrix(0.9581 -0.2864 0.2864 0.9581 -10.6341 46.82)" class="st10" width="6.8" height="1.9"/>
		<path id="Path_62" class="st5" d="M247.8,164.1l-40.8,67l-63.3-52l42.8-7.9l14,12.7l17.6,9.5L247.8,164.1z"/>
		<path id="Path_63" class="st1" d="M102.1,116.7c2.6,4,1.5,3.8,5,8c3.5,4.2,16.3,13.3,16.3,13.3l4.8-14.6c0,0-3.1-8-7-15.9
			c-3.8-7.6-12.7-15.9-15.2-14.4C104.7,94,97.3,106.1,102.1,116.7"/>
		<path id="Path_64" class="st5" d="M234.7,134c3.1-0.2-34.5,42.7-34.5,42.7l21.5-47.4L234.7,134z"/>
		<path id="Path_65" class="st8" d="M226.8,129.7l-26.6,47l-66.9-49.8l-14.8,33l86.8,66.1c0,0,19.2-26,37.7-55.4
			C264.7,136.3,226.8,129.7,226.8,129.7"/>
		<path id="Path_66" class="st3" d="M133.4,126.9l-5.4-5.6l-11.4,21.3l6.5,7.3L133.4,126.9z"/>
	</g>
</g>
</svg>
