<?xml version="1.0" encoding="utf-8"?>
<!-- Generator: Adobe Illustrator 19.0.0, SVG Export Plug-In . SVG Version: 6.00 Build 0)  -->
<svg version="1.1" id="Layer_1" xmlns="http://www.w3.org/2000/svg" xmlns:xlink="http://www.w3.org/1999/xlink" x="0px" y="0px"
	 viewBox="0 0 384.1 384" style="enable-background:new 0 0 384.1 384;" xml:space="preserve">
<style type="text/css">
	.st0{clip-path:url(#SVGID_2_);}
     path{
    fill:#fff;
    }
</style>
<g>
	<defs>
		<rect id="SVGID_1_" x="0.1" width="384" height="384"/>
	</defs>
	<clipPath id="SVGID_2_">
		<use xlink:href="#SVGID_1_"  style="overflow:visible;"/>
	</clipPath>
	<path class="st0" d="M192.1,124.3c8.3,0,15.9-5,19.1-12.7c3.2-7.7,1.4-16.6-4.5-22.5c-5.9-5.9-14.8-7.7-22.5-4.5
		c-7.7,3.2-12.7,10.7-12.7,19.1C171.5,115.1,180.7,124.3,192.1,124.3 M192.1,93.6c4.1,0,7.8,2.5,9.4,6.2c1.6,3.8,0.7,8.1-2.2,11
		c-2.9,2.9-7.2,3.8-11,2.2c-3.8-1.6-6.2-5.3-6.2-9.4C182,98.1,186.5,93.6,192.1,93.6"/>
	<path class="st0" d="M383.3,106.8c0.5-0.8,0.8-1.8,0.8-2.8V5.2c0-2.9-2.4-5.2-5.2-5.2H317c-2.9,0-5.2,2.4-5.2,5.2v37.6l-92.1,25.9
		c-11.2-8.9-25.9-11.8-39.7-7.9c-13.7,3.9-24.8,14.1-29.7,27.4L3.9,129.3c-2.3,0.6-3.8,2.7-3.8,5L0,178c0,3.5,3.3,6,6.7,5.1
		l12.3-3.5v169.2H5.3c-2.9,0-5.2,2.3-5.2,5.2v24.7c0,2.9,2.3,5.3,5.2,5.3h373.5c2.9,0,5.2-2.4,5.2-5.2v-91c0-2.9-2.4-5.2-5.2-5.2
		h-13.7v-147L383.3,106.8z M322.2,10.5h51.4v92L357,128.7h-18.2l-16.6-26.3V10.5z M317,282.5c-2.9,0-5.2,2.4-5.2,5.2v61h-17.5
		L235,118.9l76.7-21.6v6.6c0,1,0.3,2,0.8,2.8l18.1,28.7v147H317z M156.9,131c3.2,4,7,7.5,11.3,10.3l-53.4,207.5h-13.9L156.9,131z
		 M206.3,145.9l13.6,52.7h-55.7l13.6-52.7C187.1,149.1,197.1,149.1,206.3,145.9 M160.4,213.4l23.6,20.4l-37.1,32L160.4,213.4z
		 M171.6,209.2h41l-20.5,17.7L171.6,209.2z M192.1,240.7l40.3,34.8h-80.6L192.1,240.7z M200.1,233.8l23.6-20.4l13.5,52.4
		L200.1,233.8z M141.8,285.9h100.7l16.2,62.8H125.6L141.8,285.9z M251.6,279.4L251.6,279.4L216,141.3c4.3-2.8,8.1-6.2,11.3-10.3
		l56.1,217.7h-13.9L251.6,279.4z M311.7,86.4l-75.2,21.1c0.1-1.3,0.2-2.6,0.2-3.9c0-9.5-3.1-18.8-8.8-26.4l83.8-23.5V86.4z
		 M192.1,69.6c10.7,0,20.8,5,27.3,13.5c6.5,8.6,8.5,19.6,5.5,29.9c-0.1,0.3-0.2,0.6-0.3,1c-3.9,12.2-14.3,21.3-27,23.4
		c-12.7,2.1-25.5-3.2-33.1-13.5c-7.6-10.4-8.7-24.1-2.9-35.6C167.5,76.8,179.2,69.6,192.1,69.6 M10.6,138.3l137.1-38.5
		c-0.1,1.3-0.2,2.6-0.2,3.9c0,4.6,0.7,9.2,2.1,13.6l-4.1,15.9L34.6,164.3l-11.7,3.3l-12.3,3.5L10.6,138.3z M142.5,144.9L89.9,348.8
		H53.5V169.9L142.5,144.9z M29.5,176.7l13.5-3.8v175.9H29.5V176.7z M373.6,373.5h-363v-14.2h363V373.5z M373.6,348.8h-51.4V293h51.4
		V348.8z M341.1,139.2h13.5v143.2h-13.5V139.2z"/>
</g>
</svg>
