<?xml version="1.0" encoding="utf-8"?>
<!-- Generator: Adobe Illustrator 24.1.1, SVG Export Plug-In . SVG Version: 6.00 Build 0)  -->
<svg version="1.0" id="Layer_1" xmlns="http://www.w3.org/2000/svg" xmlns:xlink="http://www.w3.org/1999/xlink" x="0px" y="0px"
	 viewBox="0 0 73 100" enable-background="new 0 0 73 100" xml:space="preserve">
<g>
	<defs>
		<path id="SVGID_1_" d="M4.462,7.704l-4.808,85.234c0,0,3.497,13.841,16.901,2.768S69.164,49.01,69.164,49.01
			s7.783-6.338-4.092-14.643C51.098,24.593,16.118,1.585,16.118,1.585S5.919-4.68,4.462,7.704z"/>
	</defs>
	<clipPath id="SVGID_2_">
		<use xlink:href="#SVGID_1_"  overflow="visible"/>
	</clipPath>
	<g clip-path="url(#SVGID_2_)">
		<circle cx="-0.028" cy="56.869" r="0.887"/>
		<circle cx="2.524" cy="62.691" r="0.887"/>
		<circle cx="-0.341" cy="70.887" r="0.887"/>
		<circle cx="5.075" cy="68.513" r="0.887"/>
		<circle cx="2.211" cy="76.709" r="0.887"/>
		<circle cx="7.627" cy="74.335" r="0.887"/>
		<circle cx="-0.576" cy="85.033" r="0.887"/>
		<circle cx="1.958" cy="90.863" r="0.887"/>
		<circle cx="4.831" cy="82.663" r="0.887"/>
		<circle cx="10.238" cy="80.293" r="0.887"/>
		<circle cx="7.374" cy="88.489" r="0.887"/>
		<circle cx="12.79" cy="86.115" r="0.887"/>
		<circle cx="4.51" cy="96.685" r="0.887"/>
		<circle cx="9.926" cy="94.311" r="0.887"/>
		<circle cx="15.342" cy="91.938" r="0.887"/>
		<circle cx="12.477" cy="100.134" r="0.887"/>
		<circle cx="17.893" cy="97.76" r="0.887"/>
		<circle cx="1.034" cy="0.071" r="0.887"/>
		<circle cx="3.613" cy="5.882" r="0.887"/>
		<circle cx="8.893" cy="3.567" r="0.887"/>
		<circle cx="14.309" cy="1.193" r="0.887"/>
		<circle cx="0.748" cy="14.078" r="0.887"/>
		<circle cx="6.164" cy="11.704" r="0.887"/>
		<circle cx="3.3" cy="19.9" r="0.887"/>
		<circle cx="8.716" cy="17.526" r="0.887"/>
		<circle cx="11.445" cy="9.389" r="0.887"/>
		<circle cx="16.861" cy="7.016" r="0.887"/>
		<circle cx="13.997" cy="15.212" r="0.887"/>
		<circle cx="19.413" cy="12.838" r="0.887"/>
		<circle cx="22.277" cy="4.642" r="0.887"/>
		<circle cx="27.693" cy="2.268" r="0.887"/>
		<circle cx="24.829" cy="10.464" r="0.887"/>
		<circle cx="30.245" cy="8.091" r="0.887"/>
		<circle cx="33.109" cy="-0.105" r="0.887"/>
		<circle cx="35.661" cy="5.717" r="0.887"/>
		<circle cx="41.077" cy="3.343" r="0.887"/>
		<circle cx="46.493" cy="0.969" r="0.887"/>
		<circle cx="0.486" cy="28.235" r="0.887"/>
		<circle cx="3.047" cy="34.053" r="0.887"/>
		<circle cx="5.893" cy="25.865" r="0.887"/>
		<circle cx="11.3" cy="23.496" r="0.887"/>
		<circle cx="8.463" cy="31.68" r="0.887"/>
		<circle cx="13.879" cy="29.306" r="0.887"/>
		<circle cx="16.707" cy="21.126" r="0.887"/>
		<circle cx="22.114" cy="18.756" r="0.887"/>
		<circle cx="19.159" cy="26.992" r="0.887"/>
		<circle cx="24.576" cy="24.618" r="0.887"/>
		<circle cx="27.521" cy="16.386" r="0.887"/>
		<circle cx="32.928" cy="14.017" r="0.887"/>
		<circle cx="29.992" cy="22.244" r="0.887"/>
		<circle cx="35.408" cy="19.871" r="0.887"/>
		<circle cx="38.335" cy="11.647" r="0.887"/>
		<circle cx="43.742" cy="9.277" r="0.887"/>
		<circle cx="40.824" cy="17.497" r="0.887"/>
		<circle cx="46.24" cy="15.123" r="0.887"/>
		<circle cx="49.149" cy="6.907" r="0.887"/>
		<circle cx="54.556" cy="4.538" r="0.887"/>
		<circle cx="51.656" cy="12.749" r="0.887"/>
		<circle cx="57.072" cy="10.376" r="0.887"/>
		<circle cx="59.963" cy="2.168" r="0.887"/>
		<circle cx="65.37" cy="-0.202" r="0.887"/>
		<circle cx="62.488" cy="8.002" r="0.887"/>
		<circle cx="67.904" cy="5.628" r="0.887"/>
		<circle cx="73.32" cy="3.254" r="0.887"/>
		<circle cx="0.182" cy="42.249" r="0.887"/>
		<circle cx="5.598" cy="39.876" r="0.887"/>
		<circle cx="2.734" cy="48.072" r="0.887"/>
		<circle cx="8.15" cy="45.698" r="0.887"/>
		<circle cx="11.015" cy="37.502" r="0.887"/>
		<circle cx="16.431" cy="35.128" r="0.887"/>
		<circle cx="13.566" cy="43.324" r="0.887"/>
		<circle cx="18.982" cy="40.951" r="0.887"/>
		<circle cx="21.711" cy="32.814" r="0.887"/>
		<circle cx="27.127" cy="30.44" r="0.887"/>
		<circle cx="24.263" cy="38.636" r="0.887"/>
		<circle cx="29.679" cy="36.262" r="0.887"/>
		<circle cx="32.543" cy="28.066" r="0.887"/>
		<circle cx="37.959" cy="25.693" r="0.887"/>
		<circle cx="35.095" cy="33.889" r="0.887"/>
		<circle cx="40.511" cy="31.515" r="0.887"/>
		<circle cx="43.375" cy="23.319" r="0.887"/>
		<circle cx="48.792" cy="20.945" r="0.887"/>
		<circle cx="45.927" cy="29.141" r="0.887"/>
		<circle cx="51.343" cy="26.768" r="0.887"/>
		<circle cx="54.208" cy="18.572" r="0.887"/>
		<circle cx="59.624" cy="16.198" r="0.887"/>
		<circle cx="56.759" cy="24.394" r="0.887"/>
		<circle cx="62.175" cy="22.02" r="0.887"/>
		<circle cx="65.04" cy="13.824" r="0.887"/>
		<circle cx="70.456" cy="11.45" r="0.887"/>
		<circle cx="67.591" cy="19.646" r="0.887"/>
		<circle cx="73.008" cy="17.273" r="0.887"/>
		<circle cx="5.523" cy="54.436" r="0.887"/>
		<circle cx="10.93" cy="52.066" r="0.887"/>
		<circle cx="8.075" cy="60.258" r="0.887"/>
		<circle cx="13.491" cy="57.884" r="0.887"/>
		<circle cx="16.337" cy="49.696" r="0.887"/>
		<circle cx="21.744" cy="47.326" r="0.887"/>
		<circle cx="18.907" cy="55.51" r="0.887"/>
		<circle cx="24.323" cy="53.137" r="0.887"/>
		<circle cx="27.151" cy="44.957" r="0.887"/>
		<circle cx="32.558" cy="42.587" r="0.887"/>
		<circle cx="29.604" cy="50.822" r="0.887"/>
		<circle cx="35.02" cy="48.449" r="0.887"/>
		<circle cx="37.965" cy="40.217" r="0.887"/>
		<circle cx="43.372" cy="37.847" r="0.887"/>
		<circle cx="40.436" cy="46.075" r="0.887"/>
		<circle cx="45.852" cy="43.701" r="0.887"/>
		<circle cx="48.78" cy="35.477" r="0.887"/>
		<circle cx="54.187" cy="33.108" r="0.887"/>
		<circle cx="51.268" cy="41.327" r="0.887"/>
		<circle cx="56.684" cy="38.954" r="0.887"/>
		<circle cx="59.594" cy="30.738" r="0.887"/>
		<circle cx="65.001" cy="28.368" r="0.887"/>
		<circle cx="62.1" cy="36.58" r="0.887"/>
		<circle cx="67.516" cy="34.206" r="0.887"/>
		<circle cx="70.408" cy="25.998" r="0.887"/>
		<circle cx="72.932" cy="31.833" r="0.887"/>
		<circle cx="10.627" cy="66.08" r="0.887"/>
		<circle cx="16.043" cy="63.706" r="0.887"/>
		<circle cx="13.179" cy="71.902" r="0.887"/>
		<circle cx="18.595" cy="69.529" r="0.887"/>
		<circle cx="21.459" cy="61.333" r="0.887"/>
		<circle cx="26.875" cy="58.959" r="0.887"/>
		<circle cx="24.011" cy="67.155" r="0.887"/>
		<circle cx="29.427" cy="64.781" r="0.887"/>
		<circle cx="32.156" cy="56.645" r="0.887"/>
		<circle cx="37.572" cy="54.271" r="0.887"/>
		<circle cx="34.707" cy="62.467" r="0.887"/>
		<circle cx="40.123" cy="60.093" r="0.887"/>
		<circle cx="42.988" cy="51.897" r="0.887"/>
		<circle cx="48.404" cy="49.523" r="0.887"/>
		<circle cx="45.539" cy="57.719" r="0.887"/>
		<circle cx="50.956" cy="55.346" r="0.887"/>
		<circle cx="53.82" cy="47.15" r="0.887"/>
		<circle cx="59.236" cy="44.776" r="0.887"/>
		<circle cx="56.372" cy="52.972" r="0.887"/>
		<circle cx="61.788" cy="50.598" r="0.887"/>
		<circle cx="64.652" cy="42.402" r="0.887"/>
		<circle cx="70.068" cy="40.029" r="0.887"/>
		<circle cx="67.204" cy="48.225" r="0.887"/>
		<circle cx="72.62" cy="45.851" r="0.887"/>
		<circle cx="15.79" cy="77.86" r="0.887"/>
		<circle cx="21.197" cy="75.49" r="0.887"/>
		<circle cx="18.341" cy="83.682" r="0.887"/>
		<circle cx="23.757" cy="81.309" r="0.887"/>
		<circle cx="26.604" cy="73.121" r="0.887"/>
		<circle cx="32.011" cy="70.751" r="0.887"/>
		<circle cx="29.173" cy="78.935" r="0.887"/>
		<circle cx="34.59" cy="76.561" r="0.887"/>
		<circle cx="37.418" cy="68.381" r="0.887"/>
		<circle cx="42.825" cy="66.011" r="0.887"/>
		<circle cx="39.87" cy="74.247" r="0.887"/>
		<circle cx="45.286" cy="71.873" r="0.887"/>
		<circle cx="48.232" cy="63.641" r="0.887"/>
		<circle cx="53.639" cy="61.272" r="0.887"/>
		<circle cx="50.702" cy="69.499" r="0.887"/>
		<circle cx="56.118" cy="67.126" r="0.887"/>
		<circle cx="59.046" cy="58.902" r="0.887"/>
		<circle cx="64.453" cy="56.532" r="0.887"/>
		<circle cx="61.534" cy="64.752" r="0.887"/>
		<circle cx="66.95" cy="62.378" r="0.887"/>
		<circle cx="69.86" cy="54.162" r="0.887"/>
		<circle cx="72.367" cy="60.004" r="0.887"/>
		<circle cx="20.893" cy="89.505" r="0.887"/>
		<circle cx="26.309" cy="87.131" r="0.887"/>
		<circle cx="23.445" cy="95.327" r="0.887"/>
		<circle cx="28.861" cy="92.953" r="0.887"/>
		<circle cx="31.725" cy="84.757" r="0.887"/>
		<circle cx="37.141" cy="82.383" r="0.887"/>
		<circle cx="34.277" cy="90.579" r="0.887"/>
		<circle cx="39.693" cy="88.206" r="0.887"/>
		<circle cx="42.422" cy="80.069" r="0.887"/>
		<circle cx="47.838" cy="77.695" r="0.887"/>
		<circle cx="44.974" cy="85.891" r="0.887"/>
		<circle cx="50.39" cy="83.518" r="0.887"/>
		<circle cx="53.254" cy="75.322" r="0.887"/>
		<circle cx="58.67" cy="72.948" r="0.887"/>
		<circle cx="55.806" cy="81.144" r="0.887"/>
		<circle cx="61.222" cy="78.77" r="0.887"/>
		<circle cx="64.086" cy="70.574" r="0.887"/>
		<circle cx="69.502" cy="68.2" r="0.887"/>
		<circle cx="66.638" cy="76.396" r="0.887"/>
		<circle cx="72.054" cy="74.023" r="0.887"/>
	</g>
</g>
</svg>
