<?xml version="1.0" encoding="utf-8"?>
<!-- Generator: Adobe Illustrator 19.0.0, SVG Export Plug-In . SVG Version: 6.00 Build 0)  -->
<svg version="1.1" id="Layer_1" xmlns="http://www.w3.org/2000/svg" xmlns:xlink="http://www.w3.org/1999/xlink" x="0px" y="0px"
	 viewBox="0 0 384 346.8" style="enable-background:new 0 0 384 346.8;" xml:space="preserve">
<style type="text/css">
	.st0{clip-path:url(#SVGID_2_);}
</style>
<g>
	<defs>
		<rect id="SVGID_1_" width="384" height="346.8"/>
	</defs>
	<clipPath id="SVGID_2_">
		<use xlink:href="#SVGID_1_"  style="overflow:visible;"/>
	</clipPath>
	<path class="st0" d="M240.8,95.3H137.2c-2.9,0-5.2,2.4-5.2,5.2V150c0,2.9,2.4,5.2,5.2,5.2h103.5c2.9,0,5.2-2.4,5.2-5.2v-49.5
		C246,97.6,243.7,95.3,240.8,95.3 M235.5,144.8h-93v-39h93V144.8z"/>
	<path class="st0" d="M288.8,90H270v-1.5c0-9.5-7.7-17.2-17.2-17.2h-35.3V36.8H269c4.9,0.1,9.6-1.8,13.1-5.3
		c3.5-3.5,5.5-8.2,5.5-13.1s-2-9.6-5.5-13.1c-3.5-3.5-8.2-5.4-13.1-5.3H109c-4.9-0.1-9.6,1.8-13.1,5.3c-3.5,3.5-5.5,8.2-5.5,13.1
		s2,9.6,5.5,13.1s8.2,5.4,13.1,5.3h51.6v34.5h-35.3c-9.5,0-17.2,7.7-17.2,17.3V90H69V61.5c0-1.5-0.7-3-1.8-4L33.8,29.1V5.3
		c0-2.9-2.4-5.2-5.2-5.2H5.2C2.4,0,0,2.4,0,5.3v240c0,2.9,2.4,5.2,5.2,5.2h23.2c2.9,0,5.2-2.4,5.2-5.2v-23.8L67.2,193
		c1.2-1,1.8-2.5,1.8-4v-28.5h39v1.5c0,9.5,7.7,17.2,17.2,17.2h127.5c9.5,0,17.2-7.7,17.2-17.2v-1.5h18.8c13.7,0,24.7,11.1,24.8,24.8
		v36.2c0,2.9,2.4,5.2,5.2,5.2h60c2.9,0,5.2-2.4,5.2-5.2v-36.2C383.9,132.7,341.3,90.1,288.8,90 M101.1,18.4c0-4.4,3.5-7.9,7.9-7.9
		h160c2.1,0,4.2,0.8,5.7,2.2c1.5,1.5,2.4,3.5,2.4,5.6s-0.9,4.1-2.4,5.6c-1.5,1.5-3.6,2.3-5.7,2.3H109
		C104.6,26.3,101.1,22.8,101.1,18.4 M171,36.8h35.9v34.5h-35.9L171,36.8z M23.2,240H10.5V10.5h12.8V240z M58.5,186.6l-24.8,21.1
		V42.9L58.5,64V186.6z M69,100.5h39V150H69V100.5z M259.5,162c0,3.7-3,6.7-6.8,6.8H125.2c-3.7,0-6.7-3-6.7-6.8V88.5
		c0-3.7,3-6.7,6.8-6.8h127.5c3.7,0,6.7,3,6.8,6.8L259.5,162L259.5,162z M373.5,216.2H324v-31c0-19.5-15.8-35.2-35.2-35.3H270v-49.5
		h18.8c46.8,0.1,84.7,38,84.8,84.8V216.2z"/>
	<path class="st0" d="M344.4,248.5c-3.2,4.6-30.9,45.3-30.9,63c0,19.5,15.8,35.2,35.2,35.2c19.5,0,35.2-15.8,35.2-35.2
		c0-17.7-27.8-58.4-30.9-63c-1-1.3-2.6-2.1-4.3-2.1C347.1,246.4,345.5,247.2,344.4,248.5 M348.8,336.3c-13.7,0-24.7-11.1-24.8-24.8
		c0-9.6,13.8-33.8,24.8-50.6c11,16.8,24.8,41,24.8,50.6C373.5,325.2,362.4,336.3,348.8,336.3"/>
</g>
</svg>
