<svg xmlns="http://www.w3.org/2000/svg" width="70.141" height="70.141" viewBox="0 0 70.141 70.141">
  <g id="laboratory_1_" data-name="laboratory (1)" transform="translate(0 0)">
    <g id="Group_123" data-name="Group 123" transform="translate(0 0)">
      <g id="Group_122" data-name="Group 122">
        <rect id="Rectangle_152" data-name="Rectangle 152" width="8.362" height="2.573" transform="translate(32.835 63.065)"/>
        <path id="Path_173" data-name="Path 173" d="M63.353,45.02V29.414h2.263V27.151H52.04v2.263H54.3V45.02l-1.86,4.341A14.664,14.664,0,0,0,45.05,45.18L36.2,43.213v-2.8a13.554,13.554,0,0,0,5.657-11V26.363l1.825-2.738a16.027,16.027,0,0,0,2.7-8.918,7.933,7.933,0,0,0-6.859-7.849A7.931,7.931,0,0,0,31.676,0H24.889A14.724,14.724,0,0,0,10.182,14.707a16.027,16.027,0,0,0,2.7,8.918l1.825,2.738v3.051a13.554,13.554,0,0,0,5.657,11v2.8l-8.847,1.965A14.62,14.62,0,0,0,0,59.536v10.6H56.565V65.616h9.629a3.947,3.947,0,0,0,3.628-5.5Zm-6.788.464V29.414H61.09v16.07l.87,2.031H55.694ZM14.707,22.276a13.77,13.77,0,0,1-2.263-7.57A12.459,12.459,0,0,1,24.889,2.263h6.788a5.663,5.663,0,0,1,5.657,5.657V9.05h1.131a5.663,5.663,0,0,1,5.657,5.657,13.77,13.77,0,0,1-2.263,7.57V19.232H39.6v.629a4.479,4.479,0,0,0-2.263-.629h-18.1a4.479,4.479,0,0,0-2.263.629v-.629H14.707Zm2.263,1.481a2.265,2.265,0,0,1,2.263-2.263h18.1A2.265,2.265,0,0,1,39.6,23.757V26.8a6.013,6.013,0,0,1-9.213.852l-.5-.5h-3.2l-.5.5A6.013,6.013,0,0,1,16.97,26.8ZM17,30.042a8.262,8.262,0,0,0,10.614-.628H28.95a8.262,8.262,0,0,0,10.614.628,11.3,11.3,0,0,1-22.563,0ZM28.283,47.515a6.883,6.883,0,0,1-4.723-1.8l-.933-1.866V41.739a13.423,13.423,0,0,0,11.313,0v2.114l-.933,1.867A6.9,6.9,0,0,1,28.283,47.515ZM31.215,49.3l-2.932,5.864L25.35,49.3a9.307,9.307,0,0,0,5.865,0ZM27.151,67.878H13.576V63.353H11.313v4.525H2.263V59.536a12.368,12.368,0,0,1,9.744-12.147l3.539-.786-1.029,5.143,4.015,1-1.918,2.877,10.538,9.365ZM19.587,55.243,22.2,51.332,17.16,50.073l.8-4.007,2.918-.649,7.4,14.81,7.4-14.81,2.916.648.8,4.007-5.035,1.259,2.608,3.911-8.694,7.73ZM54.3,67.878h-9.05V63.353H42.989v4.525H29.414V64.991l10.537-9.367-1.918-2.877,4.015-1L41.019,46.6l3.539.786a12.425,12.425,0,0,1,6.9,4.266l-3.625,8.458a3.95,3.95,0,0,0,3.628,5.5H54.3Zm11.891-4.525H51.462A1.686,1.686,0,0,1,49.913,61l4.811-11.227H62.93l4.811,11.228a1.645,1.645,0,0,1,.137.663A1.686,1.686,0,0,1,66.194,63.353Z"/>
        <path id="Path_174" data-name="Path 174" d="M451.394,142.788A3.394,3.394,0,1,0,448,139.394,3.4,3.4,0,0,0,451.394,142.788Zm0-4.525a1.131,1.131,0,1,1-1.131,1.131A1.132,1.132,0,0,1,451.394,138.263Z" transform="translate(-384.647 -116.768)"/>
        <path id="Path_175" data-name="Path 175" d="M364.525,97.05A4.525,4.525,0,1,0,360,92.525,4.53,4.53,0,0,0,364.525,97.05Zm0-6.788a2.263,2.263,0,1,1-2.263,2.263A2.265,2.265,0,0,1,364.525,90.263Z" transform="translate(-309.091 -75.556)"/>
      </g>
    </g>
  </g>
</svg>
