<?xml version="1.0" encoding="utf-8"?>
<!-- Generator: Adobe Illustrator 19.0.0, SVG Export Plug-In . SVG Version: 6.00 Build 0)  -->
<svg version="1.1" id="Layer_1" xmlns="http://www.w3.org/2000/svg" xmlns:xlink="http://www.w3.org/1999/xlink" x="0px" y="0px"
	 viewBox="0 0 418.3 324.5" style="enable-background:new 0 0 418.3 324.5;" xml:space="preserve">
<style type="text/css">
	.st0{clip-path:url(#SVGID_2_);}
     path{
    fill:#fff;
    }
</style>
<g>
	<defs>
		<rect id="SVGID_1_" width="418.3" height="324.5"/>
	</defs>
	<clipPath id="SVGID_2_">
		<use xlink:href="#SVGID_1_"  style="overflow:visible;"/>
	</clipPath>
	<path class="st0" d="M418.3,199.2L418.3,199.2c0-0.2,0-0.3,0-0.5c0-0.1,0-0.3,0-0.4c0-0.3-0.1-0.5-0.1-0.8c0,0,0,0,0,0l-13.4-63.8
		c0,0,0,0,0-0.1l-13.4-63.8c0,0,0,0,0-0.1L377.8,6c-0.7-3.5-3.8-6-7.4-6H47.9c-3.6,0-6.6,2.5-7.4,6L27,69.8c0,0,0,0.1,0,0.1
		l-13.4,63.8c0,0,0,0,0,0.1L0.2,197.5c-0.1,0.3-0.1,0.5-0.1,0.8c0,0.1,0,0.1,0,0.2c0,0.2,0,0.4,0,0.5v30.2c0,4.2,3.4,7.5,7.5,7.5
		h178.9v42.4h-58c-4.2,0-7.5,3.4-7.5,7.5v22.7H47.9c-4.2,0-7.5,3.4-7.5,7.5c0,4.2,3.4,7.5,7.5,7.5h80.6h161.3h80.6
		c4.2,0,7.5-3.4,7.5-7.5c0-4.2-3.4-7.5-7.5-7.5h-73.1v-22.7c0-4.2-3.4-7.5-7.5-7.5h-58v-42.4h178.9c4.2,0,7.5-3.4,7.5-7.5
		L418.3,199.2C418.3,199.2,418.3,199.2,418.3,199.2 M40.5,78.9h102.3l-3.4,48.8H30.3L40.5,78.9z M157.9,78.9h102.4l3.4,48.8H154.5
		L157.9,78.9z M255.9,15.1l3.4,48.8H159l3.4-48.8H255.9z M388,127.7H278.9l-3.4-48.8h102.3L388,127.7z M264.8,142.8l3.4,48.8H150
		l3.4-48.8H264.8z M283.4,191.5l-3.4-48.8h111.2l10.3,48.8H283.4z M374.6,63.8H274.4L271,15.1h93.3L374.6,63.8z M54,15.1h93.3
		l-3.4,48.8H43.7L54,15.1z M282.2,309.4H136v-15.2h58h30.2h58V309.4z M216.7,279.2h-15.2v-42.4h15.2V279.2z M403.2,221.8H224.4
		c0,0-0.1,0-0.1,0H194c0,0-0.1,0-0.1,0H15.1v-15.2H51c4.2,0,7.5-3.4,7.5-7.5c0-4.2-3.4-7.5-7.5-7.5H16.8l10.3-48.8h111.2l-3.4,48.8
		H83.6h0c-4.2,0-7.5,3.4-7.5,7.5c0,4.2,3.4,7.5,7.5,7.5h0h58.3h0h0h134.4h0h0h126.9L403.2,221.8L403.2,221.8z"/>
</g>
</svg>
