<svg xmlns="http://www.w3.org/2000/svg" width="989.726" height="290.107" viewBox="0 0 989.726 290.107">
  <g id="Group_126" data-name="Group 126" transform="translate(-466 -1629.5)">
    <line id="Line_668" data-name="Line 668" x2="795" transform="translate(562.5 1690.5)" fill="none" stroke="#b69151" stroke-width="2"/>
    <g id="Group_125" data-name="Group 125">
      <path id="Path_160" data-name="Path 160" d="M297.91,459.026V327.811a97.725,97.725,0,0,1,97.726-97.726h0" transform="translate(169.09 1460.581)" fill="none" stroke="#b69151" stroke-miterlimit="10" stroke-width="2"/>
      <path id="Path_166" data-name="Path 166" d="M395.636,459.026V327.811a97.725,97.725,0,0,0-97.726-97.726h0" transform="translate(1059.09 1460.581)" fill="none" stroke="#b69151" stroke-miterlimit="10" stroke-width="2"/>
      <path id="Path_162" data-name="Path 162" d="M297.91,459.026V327.811a97.725,97.725,0,0,1,97.726-97.726h0" transform="translate(471.59 1460.581)" fill="none" stroke="#b69151" stroke-miterlimit="10" stroke-width="2"/>
      <path id="Path_164" data-name="Path 164" d="M395.636,459.026V327.811a97.725,97.725,0,0,0-97.726-97.726h0" transform="translate(761.59 1460.581)" fill="none" stroke="#b69151" stroke-miterlimit="10" stroke-width="2"/>
      <line id="Line_669" data-name="Line 669" y2="118" transform="translate(960.5 1629.5)" fill="none" stroke="#b69151" stroke-width="2"/>
    </g>
  </g>
</svg>
