<?xml version="1.0" encoding="utf-8"?>
<!-- Generator: Adobe Illustrator 19.0.0, SVG Export Plug-In . SVG Version: 6.00 Build 0)  -->
<svg version="1.1" id="Layer_1" xmlns="http://www.w3.org/2000/svg" xmlns:xlink="http://www.w3.org/1999/xlink" x="0px" y="0px"
	 viewBox="0 0 790.3 998.4" style="enable-background:new 0 0 790.3 998.4;" xml:space="preserve">
<style type="text/css">
	.st0{clip-path:url(#SVGID_2_);}
</style>
<g>
	<defs>
		<rect id="SVGID_1_" width="790.3" height="998.4"/>
	</defs>
	<clipPath id="SVGID_2_">
		<use xlink:href="#SVGID_1_"  style="overflow:visible;"/>
	</clipPath>
	<path class="st0" d="M732,46.8h-72.9c-8.1,0-14.6,6.6-14.6,14.6c0,8.1,6.6,14.6,14.6,14.6h9v807.6h-546V76.1H183v33.2
		c0,25.5,20.7,46.2,46.2,46.2h69.1c6.9,38.2,40.4,67.2,80.5,67.2h32.6c40.1,0,73.6-29,80.5-67.2h69.1c25.5,0,46.2-20.7,46.2-46.2
		V46.2c0-25.5-20.7-46.2-46.2-46.2H229.2C203.7,0,183,20.7,183,46.2v0.6H58.3C26.2,46.8,0,73,0,105.2v587.1
		c0,8.1,6.5,14.6,14.6,14.6c8.1,0,14.6-6.5,14.6-14.6V105.2c0-16,13.1-29.1,29.1-29.1h34.6v822.2c0,8.1,6.6,14.6,14.6,14.6h575.3
		c8.1,0,14.6-6.5,14.6-14.6V76.1H732c16,0,29.1,13,29.1,29.1v834.9c0,16-13,29.1-29.1,29.1H58.3c-16,0-29.1-13-29.1-29.1V761.2
		c0-8.1-6.6-14.6-14.6-14.6c-8.1,0-14.6,6.6-14.6,14.6v178.9c0,32.2,26.2,58.3,58.3,58.3H732c32.2,0,58.3-26.2,58.3-58.3V105.2
		C790.3,73,764.1,46.8,732,46.8 M212.3,46.2c0-9.3,7.6-16.9,16.9-16.9h331.9c9.3,0,16.9,7.6,16.9,16.9v63.1
		c0,9.3-7.6,16.9-16.9,16.9h-82.5c-8.1,0-14.6,6.6-14.6,14.6c0,29-23.6,52.6-52.6,52.6h-32.6c-29,0-52.6-23.6-52.6-52.6
		c0-8.1-6.5-14.6-14.6-14.6h-82.5c-9.3,0-16.9-7.6-16.9-16.9V46.2z"/>
	<path class="st0" d="M581.5,400.2h-77.3l-49.4-135c-4.9-13.4-24.4-12.5-27.9,1.4l-53.1,209l-51.3-149.1
		c-4.1-11.9-20.4-13.4-26.6-2.4l-42.6,76h-44.4c-8.1,0-14.6,6.5-14.6,14.6c0,8.1,6.5,14.6,14.6,14.6h52.9c5.3,0,10.2-2.9,12.8-7.5
		l30.8-55L362,531.5c4.7,13.7,24.4,12.9,28-1.2l53.5-210.7l36.7,100.1c2.1,5.8,7.6,9.6,13.7,9.6h87.5c8.1,0,14.6-6.5,14.6-14.6
		C596.1,406.7,589.5,400.2,581.5,400.2"/>
	<path class="st0" d="M581.5,641.4H208.9c-8.1,0-14.6,6.5-14.6,14.6c0,8.1,6.5,14.6,14.6,14.6h372.6c8.1,0,14.6-6.5,14.6-14.6
		C596.1,647.9,589.5,641.4,581.5,641.4"/>
	<path class="st0" d="M581.5,770.2H208.9c-8.1,0-14.6,6.6-14.6,14.6c0,8.1,6.5,14.6,14.6,14.6h372.6c8.1,0,14.6-6.5,14.6-14.6
		C596.1,776.8,589.5,770.2,581.5,770.2"/>
</g>
</svg>
