<?xml version="1.0" encoding="utf-8"?>
<!-- Generator: Adobe Illustrator 17.0.0, SVG Export Plug-In . SVG Version: 6.00 Build 0)  -->
<!DOCTYPE svg PUBLIC "-//W3C//DTD SVG 1.1//EN" "http://www.w3.org/Graphics/SVG/1.1/DTD/svg11.dtd">
<svg version="1.1" id="Layer_1" xmlns="http://www.w3.org/2000/svg" xmlns:xlink="http://www.w3.org/1999/xlink" x="0px" y="0px"
	 width="143.75px" height="165.5px" viewBox="12 4.167 143.75 165.5" enable-background="new 12 4.167 143.75 165.5"
	 xml:space="preserve">
<path fill="#FFF" d="M135.533,168.883H13.574v-2.024h121.959c9.813,0,17.796-7.985,17.796-17.798V5h2.024v144.06
	C155.354,159.991,146.463,168.883,135.533,168.883"/>
<path fill="#FFF" d="M133.758,48.768c-0.705-0.966-3.06-3.744-3.652-4.792c-0.395-0.698-0.854-0.705-1.388-0.154
	c-1.443,1.492-2.869,3.004-4.341,4.469c-3.597,3.572-3.07,4.094-6.723,1.529c-0.688-0.482-1.706-1.445-1.706-1.445
	s4.8-3.791,5.33-4.338c0.98-1.011,1.962-2.023,2.877-3.091c0.351-0.409,0.843-0.913,0.771-1.468
	c-0.07-0.556-1.133-0.712-1.745-0.836c-3.058-0.617-6.116-1.284-9.206-1.683c-3.271-0.422-6.574-0.676-9.87-0.76
	c-1.122-0.029-2.585,0.361-3.333,1.115c-1.14,1.148-2.206,2.367-3.238,3.614c-0.518,0.624-1.025,1.255-1.531,1.891
	c-0.477,0.596-0.537,0.58-0.884,1.258c-0.166,0.323-0.305,0.673-0.294,1.042c0.002,0.06,0.009,0.124,0.047,0.169
	c0.03,0.036,0.075,0.055,0.119,0.068c0.299,0.084,0.609-0.079,0.855-0.266c0.551-0.419,0.393-0.404,0.829-0.924
	c0.385-0.462,0.813-0.893,1.287-1.266c0.91-0.718,1.985-1.198,3.135-1.362c0.679-0.097,1.371-0.089,2.05-0.003
	c3.262,0.411,6.523,0.825,9.775,1.3c1.383,0.2,3.041,0.569,4.514,0.876c0,0-0.55,0.444-0.621,0.495
	c-3.867,2.746-7.925,5.082-12.525,6.444c-0.386,0.114-0.775,0.213-1.169,0.292c-2.57,0.521-5.096,0.011-7.502-0.945
	c-1.218-0.483-2.296-1.201-3.431-1.857c-0.982-0.569-1.745-1.314-2.388-2.273c-0.409-0.608-0.803-0.981-1.535-0.796
	c-2.295,0.581-3.752,2.203-5.409,3.938c-2.542,2.664-4.093,2.846-5.752,1.869c-5.608-3.307-6.697-10.816-8.252-16.549
	c-0.03-0.111-0.061-0.222-0.091-0.333c-0.28-1.037-0.783-1.519-1.531-0.562c-0.81,1.036-1.621,2.068-2.431,3.103
	c-0.334,0.426-0.681,0.888-0.713,1.428c-0.029,0.481,0.21,0.926,0.356,1.37c0.568,1.723,1.037,3.478,1.562,5.215
	c0.366,1.213,1.19,3.316,1.563,4.527c0.131,0.422,0.341,0.894,0.341,0.894s-0.586,0.581-0.948,0.744
	c-2.293,1.029-4.682,1.194-7.049,0.558c-1.179-0.317-2.17-1.13-2.761-2.193c-0.291-0.524-0.483-1.1-0.568-1.692
	c-0.085-0.586,0.132-1.297-0.083-1.842c-0.043-0.11-0.121-0.21-0.23-0.255c-0.173-0.069-0.367,0.018-0.521,0.123
	c-0.341,0.235-0.466,0.544-0.691,0.875c-0.279,0.41-0.558,0.821-0.833,1.232c-0.529,0.793-1.046,1.593-1.534,2.411
	c-0.864,1.448-0.582,3.234,0.455,4.604c2.903,3.843,9.297,3.352,12.625,0.341c0.656-0.593,1.234-1.267,1.776-1.965
	c0.505-0.65,1.339-1.504,1.339-1.504s0.403,0.756,0.633,1.163c1.071,1.896,2.462,3.404,4.89,4.283
	c1.825,0.705,4.213,0.433,5.754-1.111c1.256-1.259,1.604-2.223,2.861-0.991c0.617,0.605,1.502,1.846,2.212,2.331
	c0.502,0.342,1.091-0.009,1.506-0.295c0.815-0.562,1.366-0.939,2.017-1.673c0.25-0.284,0.57-0.532,0.971-0.445
	c0.396,0.084,0.821,0.526,1.169,0.735c1.288,0.775,2.692,1.337,4.17,1.626c2.109,0.41,4.286,0.248,6.316-0.383
	c3.685-1.143,8.64-3.887,8.64-3.887s3.656,2.726,5.625,3.891c1.727,1.021,2.785,0.653,4.008-0.942
	c0.178-0.231,0.368-0.458,0.512-0.711c2.169-3.841,4.353-1.241,7.178,0.706c0.895,0.616,1.657,0.56,2.357-0.049
	c1.28-1.112,2.5-2.3,3.688-3.514C134.364,51.144,134.708,50.067,133.758,48.768"/>
<path fill="#FFF" d="M134.188,132.587c-0.019-1.164-0.076-6.917-0.076-8.488c0-0.41,0.051-1.011-0.359-1.024
	c-0.161-0.005-0.638,0.407-0.841,0.552c-0.888,0.633-2.142,1.935-2.845,2.682c-0.339,0.362-0.691,0.778-0.742,1.288
	c-0.063,0.62,0.031,1.282,0.066,1.899c0.06,1.007,0.128,2.015,0.204,3.02c0.151,2.062,0.336,4.104,0.275,6.175
	c-0.006,0.19-0.013,0.386-0.082,0.564c-0.291,0.754-0.667,0.764-1.349,1.098c-0.164,0.082-1.514,0.658-1.522,0.463
	c-0.059-1.359-1.063-14.605-1.063-16.716c-0.001-0.41,0.052-1.011-0.359-1.024c-0.161-0.005-0.638,0.407-0.842,0.552
	c-0.888,0.633-2.057,1.744-2.759,2.493c-0.338,0.36-0.692,0.777-0.743,1.289c-0.059,0.581,0.182,3.321,0.232,4.238
	c0,0,0.204,2.16,0.354,3.207c0.161,1.137,0.302,3.127,0.302,3.127c-0.974,0.805-1.401,1.505-2.442,2.228
	c-1.107,0.768-2.8,1.522-4.154,1.474c-0.664-0.023-3.368-0.436-4.289-1.101c-0.135-0.163-0.28-0.325-0.405-0.486
	c0.36-0.225,0.782-0.463,1.18-0.735c2.627-1.795,4.255-2.849,6.021-5.604c0.282-0.44,0.541-1.258,0.335-1.451
	c-0.412-0.308-3.383,2.449-5.545,2.993c-3.575,0.9-7.147-0.405-8.521-3.295c-0.07-0.15,3.024-1.171,3.321-1.244
	c1.095-0.271,2.222-0.416,3.35-0.444c0.708-0.019,1.417,0.021,2.123,0.07c0.662,0.049,1.358,0.177,2.018,0.049
	c0.195-0.038,0.66-0.117,0.692-0.378c0.043-0.315-0.411-0.6-0.633-0.736c-0.402-0.25-0.871-0.36-1.323-0.479
	c-0.544-0.145-1.09-0.288-1.633-0.433c-2.08-0.549-4.151-1.366-6.297-0.63c-1.847,0.635-2.778,2.226-3.886,3.711
	c-0.88,1.178-1.978,2.625-2.479,4.008c-0.146,0.408-0.205,0.854-0.114,1.277c0.143,0.667,3.245,4.182,3.245,4.182
	s0.866,0.615-1.388,1.057c-3.469,0.103-5.202-1.853-5.634-5.559c-0.252-2.164-1.103-11.048-1.158-13.195
	c-0.011-0.411,0.025-1.011-0.386-1.014c-0.161-0.002-3.358,2.92-4.04,3.688c-0.33,0.369-0.672,0.795-0.709,1.306
	c-0.044,0.584,0.268,3.317,0.343,4.231c0,0-1.86,2.014-2.89,2.91c-1.335,1.162-3.105,3.389-4.107,4.787
	c-1.09,1.521-2.408,3.096-4.211,3.771c-1.843,0.69-3.862-0.45-5.179-1.961c-0.856-0.982-1.333-2.243-1.609-3.515
	c-0.566-2.607-0.773-12.063-0.858-14.197c-0.032-0.794-0.129-0.962-0.372-1.019c-0.272-0.065-3.211,2.968-4.041,3.838
	c-0.918,0.964-1.105,1.627-1.044,2.903c0.098,2.069,0.25,4.131,0.408,6.197c0.195,2.542,0.06,5.293,1.134,7.661
	c1.876,4.133,7.266,7.02,11.298,3.183c0.354-0.338,0.723-0.716,1.225-0.816c0.503-0.099,0.969,0.123,1.411,0.335
	c0.394,0.189,0.827,0.321,1.198,0.556c0.694,0.438,1.579,1.028,2.267,1.479c0.685,0.447,1.298,0.573,1.894-0.197
	c1.001-1.299,2.16-2.778,3.112-4.11c0.218-0.307,0.141-1.017-0.065-1.397c-0.573-1.063-1.626-1.879-2.184-2.947
	c-0.765-1.463,0.775-3.895,2.649-4.19c0.194,2.163,0.346,3.408,0.504,5.562c0.414,5.627,6.638,9.329,12.047,6.654
	c1.965-0.969,3.116-1.704,4.878-2.889c-0.025,0.02,0.962,1.455,1.03,1.554c1.361,1.997,3.704,2.835,5.925,1.971
	c2.582-1.007,4.258-3.137,6.296-4.934c0.517-0.455,1.037-1.018,1.635-1.371c0.062,1.914,0.177,3.18,0.4,5.059
	c0.122,1.48-0.093,1.754,1.385,1.565c3.813-0.485,7.073-3.681,8.814-6.752c0.772-1.365,1.18-3.103,1.462-4.813
	C134.247,135.122,134.208,133.81,134.188,132.587"/>
<path fill="#FFF" d="M61.125,138.495c-0.727-0.132-1.445-0.367-2.129-0.646c-0.32-0.132-0.551-0.48-0.823-0.73
	c0.252-0.275,0.47-0.597,0.767-0.811c0.543-0.395,1.234-0.629,1.68-1.102c0.751-0.798,1.175-1.525,1.815-2.421
	c0.143-0.199,0.643-0.857,0.484-1.101c-0.16-0.241-0.882,0.165-1.039,0.276c-1.177,0.84-2.3,1.381-3.228,2.449
	c-1.25,1.438-2.216,3.131-3.253,4.747c-0.956,1.489-0.451,2.741,1.282,3.255c0.933,0.273,3.008,0.767,3.008,0.767
	s-0.569,0.558-0.647,0.628c-0.217,0.197-0.44,0.384-0.671,0.564c-0.456,0.355-0.935,0.682-1.431,0.975
	c-0.773,0.459-1.587,0.846-2.416,1.188c-0.415,0.171-0.833,0.331-1.254,0.486c-0.191,0.07-0.398,0.122-0.584,0.205
	c-0.116,0.052-0.345,0.133-0.422,0.249c-0.032,0.063-0.035,0.107-0.037,0.152c-0.003,0.071,0,0.154,0.049,0.208
	c0.039,0.043,0.099,0.059,0.156,0.069c0.494,0.092,1.032,0.024,1.535,0.04c2.756,0.089,4.983-0.857,6.517-3.24
	c0.651-1.01,1.484-1.924,2.018-2.988C63.487,139.742,63.466,138.915,61.125,138.495"/>
<path fill="#FFF" d="M104.527,117.321c0.092-0.126,0.293-0.165,0.462-0.177c3.3-0.225,6.667-0.265,9.923-0.866
	c1.83-0.337,3.658-0.805,5.399-1.463c1.728-0.653,3.357-1.534,4.935-2.486c0.015-0.01,0.032-0.019,0.047-0.028
	c0.954-0.577,1.897-1.186,2.735-1.924c0.829-0.732,1.658-1.61,1.689-2.785c0.031-1.16-0.916-1.938-1.539-2.809
	c-0.893-1.25-1.015-1.387-0.559-2.231c0.229-0.422,0.499-0.817,0.813-1.18c0.651-0.751,1.273-1.528,1.954-2.252
	c1.182-1.257,1.235-1.06,1.931-0.216c1.791,2.182,2.594,4.486,1.149,7.09c-0.745,1.343-1.764,2.622-2.636,3.901
	c-0.933,1.369-1.917,2.707-3.016,3.948c-1.959,2.217-4.358,4.09-7.152,5.121c-3.664,1.352-7.682,0.491-11.405-0.166
	c-1.502-0.264-2.96-0.598-4.445-0.942c-0.193-0.045-0.371-0.251-0.327-0.445C104.495,117.376,104.51,117.346,104.527,117.321"/>
<path fill="#FFF" d="M120.496,112.698c-0.312-0.375-0.433-1.232-0.509-1.522c-0.743-2.807-1.058-5.647-1.262-8.465
	c-0.207-2.844-0.449-5.965-0.737-8.798c-0.082-0.802,0.427-1.325,0.747-1.676c0.919-1.006,1.631-1.694,2.613-2.636
	c1.2-1.146,1.286-0.922,1.505,0.732c0.312,2.351,0.447,4.478,0.615,6.817c0.175,2.441,0.617,4.841,0.431,7.254
	c-0.235,3.043-1.192,6.005-2.894,8.302c-0.067,0.092-0.164,0.191-0.284,0.154C120.637,112.836,120.563,112.778,120.496,112.698"/>
<path fill="#FFF" d="M115.637,103.01c-0.927-1.284-1.835-2.587-2.835-3.812c-0.52-0.638-1.234-0.8-1.857-0.034
	c-0.795,0.973-1.618,1.928-2.349,2.947c-1.142,1.591-1.068,1.817,0.389,3.304c0.528,0.541,0.951,1.184,1.552,1.939
	c-1.959,0.091-4.736-0.987-6.303-2.287c-1.396-1.158-1.461-1.613-0.538-3.274c0.121-0.22,0.35-0.99,0.116-1.181
	c-0.342-0.278-1.405,0.778-1.656,1.012c-0.54,0.506-1.011,1.077-1.459,1.663c-0.924,1.207-1.768,2.49-2.904,3.516
	c-0.561-0.469-1.174-0.92-1.717-1.447c-0.636-0.617-1.848-1.488-1.891-2.477c-0.051-1.12,1.137-1.919,1.426-2.926
	c0.019-0.063,0.033-0.131,0.021-0.196c-0.024-0.139-0.164-0.23-0.302-0.26c-0.301-0.064-0.604,0.093-0.846,0.282
	c-0.941,0.745-1.738,1.637-2.555,2.521c-2.692,2.922-6.201,4.326-9.96,5.082c-1.721,0.347-3.803-0.046-5.375-0.802
	c-2.56-1.234-3.971-3.719-4.907-6.29c-1.192-3.272-2.083-6.684-2.832-10.081c-0.089-0.402-0.201-0.838-0.528-1.089
	c-0.458-0.353-4.737,4.462-4.159,5.527c0.131,0.238,0.184,0.529,0.263,0.789c0.174,0.583,0.348,1.167,0.523,1.751
	c0.35,1.168,0.699,2.336,1.05,3.502c0.365,1.213,1.19,3.315,1.563,4.527c0.131,0.422,0.341,0.894,0.341,0.894
	s-0.585,0.581-0.948,0.743c-2.293,1.029-4.682,1.194-7.048,0.559c-1.179-0.317-2.17-1.131-2.761-2.193
	c-0.291-0.523-0.484-1.099-0.568-1.693c-0.085-0.586,0.132-1.298-0.083-1.841c-0.043-0.11-0.121-0.211-0.23-0.255
	c-0.172-0.069-0.367,0.018-0.521,0.122c-0.341,0.235-0.466,0.543-0.691,0.875c-0.278,0.41-0.558,0.82-0.832,1.233
	c-0.529,0.792-1.047,1.593-1.535,2.412c-0.864,1.446-0.582,3.233,0.454,4.602c2.905,3.843,9.297,3.353,12.625,0.342
	c0.656-0.593,1.234-1.268,1.776-1.965c0.505-0.651,1.339-1.505,1.339-1.505s0.403,0.756,0.632,1.163
	c0.866,1.531,2.142,2.871,3.708,3.718c1.795,0.97,3.824,1.1,5.8,0.677c1.335-0.286,2.62-0.779,3.873-1.313
	c1.655-0.706,3.12-1.863,4.655-2.838c0.484-0.31,1.421-1.078,1.421-1.078s0.64,0.617,0.99,1.006c0.804,0.89,1.667,1.74,2.592,2.502
	c2.339,1.924,2.554,1.881,4.488-0.449c0.154-0.187,0.341-0.348,0.5-0.531c0.303-0.349,0.923-0.977,0.923-0.977
	s0.664,0.488,1.075,0.78c2.063,1.463,4.351,2.484,6.871,2.874c1.869,0.288,3.685,0.271,5.011-1.423
	c1.313-1.676,2.656-3.33,3.941-5.026C116.217,105.506,116.557,104.282,115.637,103.01"/>
<path fill="#FFF" d="M110.936,90.729c-1.574-1.09-2.461-1.627-2.676-1.627c-0.15,0-0.275,0.125-0.4,0.375l-1.525,3.128
	c-0.041-0.208-0.816-0.831-2.35-1.876c-1.575-1.09-2.462-1.627-2.677-1.627c-0.15,0-0.275,0.125-0.399,0.375l-1.525,3.128
	c-0.042-0.208-0.816-0.831-2.351-1.876c-1.574-1.09-2.462-1.627-2.676-1.627c-0.151,0-0.274,0.125-0.4,0.375l-1.988,4.079
	c-0.048,0.098-0.061,0.176-0.061,0.235c0,0.065,0.025,0.099,0.061,0.138c1.652,1.037,3.266,2.15,4.814,3.325
	c0.053,0.053,0.139,0.078,0.189,0.078c0.099,0,0.237-0.115,0.336-0.289c0.797-1.285,1.341-2.286,1.683-3.065
	c1.626,1.023,3.218,2.119,4.744,3.276c0.052,0.053,0.138,0.078,0.189,0.078c0.099,0,0.236-0.115,0.336-0.289
	c0.796-1.285,1.34-2.286,1.682-3.065c1.626,1.023,3.218,2.119,4.744,3.276c0.052,0.053,0.138,0.078,0.189,0.078
	c0.099,0,0.237-0.115,0.336-0.289c1.39-2.24,2.091-3.713,2.091-4.415C113.302,92.441,112.511,91.803,110.936,90.729"/>
<path fill="#FFF" d="M54.017,63.561c0.069-0.004,0.137,0.017,0.203,0.069c0.144,0.114,0.112,0.33,0.117,0.514
	c0.036,1.525,1.1,3.615,2.087,4.856c5.263,6.613,13.86,8.369,21.906,9.071c9.644,0.841,19.815,0.362,29.159-2.315
	c1.308-0.375,2.602-0.803,3.867-1.303c0.196-0.078,2.17-1.063,2.138-1.092c-1.32-1.165-2.646-2.324-3.957-3.5
	c-1.527-1.371-1.593-1.225-0.189-2.927c0.797-0.965,1.617-1.91,2.461-2.829c0.934-1.015,1.23-0.387,1.756,0.203
	c1.866,2.098,4.201,3.726,6.764,4.903c1.307,0.6,2.768,0.814,4.203,0.888c1.093,0.057,3.246,0.207,4.099-0.647
	c0.41-0.412,0.421-0.416,0.265-0.886c-0.969-2.925-2.183-2.563-1.064-4.123c3.559-4.963,3.44-5.271,4.814-2.908
	c0.653,1.123,1.465,2.156,1.642,3.488c0.349,2.613-2.187,4.63-3.84,6.25c-1.803,1.767-3.726,3.468-6.213,4.157
	c-2.782,0.771-5.849,0.333-8.426-0.907c-0.018-0.009-1.9,2.449-2.146,2.654c-1.579,1.312-3.874,2.08-5.762,2.841
	c-2.129,0.857-4.318,1.56-6.542,2.126c-4.476,1.14-9.079,1.73-13.688,1.97c-2.914,0.152-5.835,0.165-8.751,0.083
	c-7.883-0.222-17.89-1.026-23.688-7.086c-1.799-1.879-2.915-4.279-3.036-6.892c-0.058-1.26,0.037-2.54,0.336-3.766
	C52.623,66.068,53.355,63.608,54.017,63.561"/>
<path fill="#FFF" d="M124.037,81.991c-0.035-0.038-0.061-0.073-0.061-0.137c0-0.061,0.013-0.138,0.061-0.237l1.987-4.079
	c0.126-0.25,0.249-0.374,0.399-0.374c0.216,0,1.103,0.537,2.677,1.625c1.575,1.076,2.366,1.712,2.366,1.903
	c0,0.701-0.7,2.172-2.09,4.413c-0.101,0.173-0.237,0.289-0.337,0.289c-0.052,0-0.137-0.024-0.188-0.078
	C127.302,84.143,125.688,83.028,124.037,81.991"/>
<path fill="#FFF" d="M81.4,69.634c-0.036-0.038-0.061-0.073-0.061-0.137c0-0.061,0.012-0.137,0.061-0.237l1.987-4.079
	c0.125-0.249,0.25-0.374,0.399-0.374c0.216,0,1.102,0.537,2.677,1.626c1.575,1.076,2.366,1.712,2.366,1.902
	c0,0.701-0.701,2.173-2.09,4.414c-0.101,0.173-0.237,0.288-0.337,0.288c-0.051,0-0.137-0.025-0.189-0.077
	C84.665,71.786,83.052,70.671,81.4,69.634"/>
<path fill="#FFF" d="M133.758,17.612c-0.705-0.966-3.06-3.744-3.652-4.791c-0.395-0.699-0.854-0.706-1.388-0.156
	c-1.443,1.493-2.869,3.005-4.341,4.469c-3.597,3.573-3.07,4.094-6.723,1.529c-0.688-0.481-1.706-1.445-1.706-1.445
	s4.8-3.791,5.33-4.338c0.98-1.01,1.962-2.023,2.877-3.09c0.351-0.41,0.843-0.913,0.771-1.47c-0.07-0.556-1.133-0.712-1.745-0.836
	c-3.058-0.616-6.116-1.284-9.206-1.683c-3.271-0.422-6.574-0.676-9.87-0.761c-1.122-0.029-2.585,0.361-3.333,1.115
	c-1.14,1.148-2.206,2.368-3.238,3.614c-0.518,0.625-1.025,1.256-1.531,1.891c-0.477,0.596-0.537,0.58-0.884,1.258
	c-0.166,0.324-0.305,0.672-0.294,1.043c0.002,0.06,0.009,0.123,0.047,0.168c0.03,0.036,0.075,0.055,0.119,0.068
	c0.299,0.086,0.609-0.079,0.855-0.266c0.551-0.418,0.393-0.404,0.829-0.925c0.385-0.462,0.813-0.892,1.287-1.265
	c0.91-0.718,1.985-1.197,3.135-1.363c0.679-0.097,1.371-0.089,2.05-0.003c3.262,0.411,6.523,0.825,9.775,1.299
	c1.383,0.201,3.041,0.57,4.514,0.877c0,0-0.55,0.444-0.621,0.495c-3.867,2.746-7.925,5.081-12.525,6.443
	c-0.386,0.114-0.775,0.213-1.169,0.292c-2.57,0.521-5.096,0.011-7.502-0.944c-1.218-0.483-2.296-1.201-3.431-1.858
	c-0.982-0.568-1.745-1.314-2.388-2.272c-0.409-0.608-0.803-0.982-1.535-0.796c-1.338,0.339-2.434,1.339-3.439,2.184
	c-0.72,0.605-1.255,1.004-1.97,1.753c-4.419,4.628-7.439,3.702-9.517,1.829c-0.315-0.346-1.279-1.382-1.528-1.703
	c0.361-0.224,0.783-0.463,1.181-0.736c2.626-1.793,4.254-2.848,6.021-5.603c0.282-0.442,0.54-1.258,0.336-1.452
	c-0.412-0.308-3.383,2.448-5.545,2.993c-3.574,0.9-7.147-0.405-8.52-3.293c-0.072-0.151,3.024-1.172,3.319-1.245
	c1.097-0.271,2.222-0.417,3.351-0.445c0.709-0.018,1.417,0.022,2.123,0.072c0.663,0.047,1.359,0.177,2.018,0.047
	c0.195-0.038,0.66-0.116,0.693-0.377c0.041-0.316-0.413-0.599-0.633-0.737c-0.402-0.249-0.871-0.36-1.324-0.479
	c-0.544-0.144-1.088-0.288-1.632-0.431c-2.082-0.549-4.151-1.367-6.297-0.63c-1.846,0.635-2.778,2.226-3.885,3.71
	c-0.88,1.179-1.979,2.626-2.479,4.009c-0.146,0.408-0.205,0.854-0.115,1.277c0.141,0.654,3.119,4.037,3.227,4.16
	c-0.322,0.237-1.627,1.22-1.64,1.23c-2.643,2.053-4.994,4.479-6.953,7.191c-0.651,0.903-1.259,1.835-1.815,2.798
	c-0.354,0.612-0.711,1.224-1,1.869c-0.124,0.275-0.537,1.08-0.541,1.564c-0.001,0.113,0.02,0.208,0.072,0.275
	c0.101,0.131,0.307,0.097,0.455,0.024c0.553-0.271,0.942-0.838,1.361-1.271c0.593-0.613,1.21-1.202,1.828-1.79
	c1.458-1.39,2.943-2.752,4.452-4.087c1.422-1.259,2.825-2.618,4.44-3.627c0.379-0.238,1.714-1.242,1.714-1.242
	c1.528,2.433,4.34,3.851,7.126,4.18c2.121,0.25,4.816,0.253,6.418-1.404c1.234-1.28,2.199-2.165,3.456-0.933
	c0.617,0.606,1.502,1.848,2.212,2.332c0.502,0.343,1.091-0.01,1.506-0.296c0.815-0.561,1.366-0.939,2.017-1.672
	c0.25-0.283,0.57-0.532,0.971-0.445c0.396,0.086,0.821,0.526,1.169,0.735c1.288,0.776,2.692,1.338,4.17,1.627
	c2.109,0.41,4.286,0.248,6.316-0.383c3.685-1.143,8.64-3.887,8.64-3.887s3.656,2.725,5.625,3.891
	c1.727,1.022,2.785,0.653,4.008-0.943c0.178-0.231,0.368-0.457,0.512-0.711c2.169-3.841,4.353-1.241,7.178,0.706
	c0.895,0.616,1.657,0.56,2.357-0.049c1.28-1.113,2.5-2.3,3.688-3.514C134.364,19.989,134.708,18.912,133.758,17.612"/>
<path fill="#FFF" d="M107.142,28.516c-0.037-0.039-0.062-0.073-0.062-0.138c0-0.06,0.014-0.137,0.062-0.236l1.987-4.078
	c0.126-0.25,0.249-0.375,0.399-0.375c0.215,0,1.103,0.538,2.677,1.626c1.575,1.075,2.366,1.712,2.366,1.901
	c0,0.701-0.7,2.174-2.091,4.415c-0.1,0.173-0.236,0.289-0.337,0.289c-0.051,0-0.136-0.026-0.188-0.078
	C110.406,30.667,108.793,29.553,107.142,28.516"/>
<polygon fill="#FFF" points="23.42,141.175 16.661,141.093 16.661,141.147 23.42,142.803 23.42,144.374 16.661,145.973 
	16.661,146.016 23.42,145.946 23.42,147.962 13.574,147.962 13.574,145.151 19.916,143.566 19.916,143.512 13.574,141.968 
	13.574,138.992 23.42,138.992 "/>
<path fill="#FFF" d="M18.469,129.801c0.779,0,1.49,0.087,2.135,0.263c0.645,0.177,1.193,0.427,1.647,0.752
	c0.455,0.323,0.808,0.721,1.058,1.188c0.25,0.47,0.376,0.996,0.376,1.579c0,0.584-0.125,1.111-0.376,1.579
	c-0.25,0.469-0.603,0.865-1.058,1.189c-0.454,0.325-1.002,0.574-1.647,0.751c-0.645,0.177-1.356,0.264-2.135,0.264
	c-0.779,0-1.486-0.085-2.121-0.258c-0.634-0.171-1.177-0.419-1.628-0.744c-0.449-0.323-0.797-0.721-1.042-1.188
	c-0.246-0.47-0.369-1.001-0.369-1.594c0-0.583,0.123-1.109,0.369-1.579c0.245-0.467,0.593-0.864,1.042-1.188
	c0.451-0.325,0.994-0.575,1.628-0.752C16.983,129.888,17.69,129.801,18.469,129.801 M18.469,132.081
	c-0.426,0-0.822,0.031-1.188,0.097c-0.367,0.065-0.684,0.16-0.954,0.285c-0.269,0.126-0.48,0.28-0.632,0.466
	c-0.154,0.186-0.229,0.403-0.229,0.653s0.075,0.471,0.229,0.662c0.151,0.188,0.363,0.347,0.632,0.473
	c0.27,0.124,0.587,0.218,0.954,0.278c0.366,0.06,0.762,0.089,1.188,0.089c0.427,0,0.825-0.029,1.197-0.089
	c0.371-0.061,0.691-0.154,0.958-0.278c0.27-0.126,0.483-0.284,0.64-0.473c0.158-0.191,0.237-0.412,0.237-0.662
	s-0.079-0.468-0.237-0.653c-0.157-0.186-0.371-0.34-0.64-0.466c-0.268-0.125-0.588-0.22-0.958-0.285
	C19.294,132.112,18.896,132.081,18.469,132.081"/>
<polygon fill="#FFF" points="23.42,123.666 19.305,123.666 19.305,125.962 23.42,125.962 23.42,128.172 13.574,128.172 
	13.574,125.962 17.302,125.962 17.302,123.666 13.574,123.666 13.574,121.456 23.42,121.456 "/>
<path fill="#FFF" d="M23.42,115.059l-1.792,0.402v2.212l1.792,0.403v2.224l-9.846-2.392v-2.795l9.846-2.378V115.059z
	 M15.715,116.531v0.057l4.187,0.833v-1.683L15.715,116.531z"/>
<polygon fill="#FFF" points="23.42,104.81 16.661,104.724 16.661,104.781 23.42,106.436 23.42,108.008 16.661,109.606 
	16.661,109.647 23.42,109.58 23.42,111.595 13.574,111.595 13.574,108.785 19.916,107.2 19.916,107.145 13.574,105.602 
	13.574,102.624 23.42,102.624 "/>
<polygon fill="#FFF" points="23.42,93.808 16.661,93.725 16.661,93.78 23.42,95.436 23.42,97.008 16.661,98.605 16.661,98.647 
	23.42,98.579 23.42,100.595 13.574,100.595 13.574,97.785 19.916,96.2 19.916,96.145 13.574,94.602 13.574,91.625 23.42,91.625 "/>
<polygon fill="#FFF" points="23.42,89.595 13.574,89.595 13.574,84.838 15.536,84.838 15.536,87.467 17.468,87.467 
	17.468,85.046 19.305,85.046 19.305,87.467 21.418,87.467 21.418,84.67 23.42,84.67 "/>
<path fill="#FFF" d="M18.525,76.229c0.741,0,1.414,0.081,2.016,0.244c0.603,0.162,1.118,0.41,1.544,0.743
	c0.427,0.334,0.755,0.758,0.988,1.272c0.231,0.515,0.347,1.124,0.347,1.829v2.767h-9.846v-2.767c0-0.705,0.116-1.314,0.347-1.829
	c0.232-0.515,0.564-0.938,0.994-1.272c0.432-0.333,0.952-0.582,1.559-0.743C17.081,76.311,17.765,76.229,18.525,76.229
	 M18.525,78.469c-0.991,0-1.74,0.169-2.247,0.507c-0.504,0.339-0.757,0.777-0.757,1.314v0.543h5.953V80.29
	c0-0.537-0.253-0.975-0.758-1.314C20.21,78.638,19.481,78.469,18.525,78.469"/>
<path fill="#FFF" d="M20.612,65.354c0.528,0,0.97,0.085,1.327,0.257c0.357,0.171,0.644,0.396,0.863,0.675
	c0.218,0.278,0.375,0.591,0.472,0.938s0.146,0.698,0.146,1.049v3.268h-9.847v-2.948c0-0.306,0.033-0.63,0.098-0.973
	s0.188-0.656,0.369-0.94c0.181-0.282,0.438-0.518,0.771-0.708s0.765-0.285,1.293-0.285c0.584,0,1.05,0.119,1.397,0.355
	c0.349,0.236,0.602,0.526,0.757,0.869h0.028c0.047-0.186,0.13-0.37,0.25-0.556c0.121-0.187,0.275-0.353,0.466-0.501
	c0.189-0.147,0.419-0.269,0.689-0.361C19.962,65.401,20.269,65.354,20.612,65.354 M16.46,67.649c-0.383,0-0.654,0.107-0.813,0.319
	c-0.158,0.214-0.237,0.464-0.237,0.75v0.752h2.142v-0.765c0-0.269-0.083-0.512-0.252-0.73C17.132,67.758,16.851,67.649,16.46,67.649
	 M20.41,67.468c-0.225,0-0.413,0.035-0.567,0.104c-0.154,0.07-0.28,0.163-0.378,0.278c-0.097,0.117-0.169,0.247-0.216,0.39
	c-0.046,0.145-0.07,0.285-0.07,0.425v0.806h2.407v-0.834c0-0.324-0.098-0.6-0.294-0.827C21.095,67.582,20.802,67.468,20.41,67.468"
	/>
<rect x="13.573" y="61.459" fill="#FFF" width="9.847" height="2.239"/>
<polygon fill="#FFF" points="23.42,55.174 17.426,57.456 17.426,57.496 23.42,57.441 23.42,59.43 13.574,59.43 13.574,56.982 
	19.652,54.716 19.652,54.673 13.574,54.716 13.574,52.796 23.42,52.796 "/>
<path fill="#FFF" d="M23.42,43.597l-3.922,1.316v0.652h3.922v2.141h-9.847v-3.149c0-0.954,0.249-1.693,0.746-2.22
	c0.495-0.527,1.234-0.792,2.217-0.792c0.362,0,0.686,0.042,0.974,0.125c0.287,0.083,0.533,0.192,0.736,0.326
	c0.205,0.134,0.372,0.284,0.501,0.45c0.129,0.167,0.222,0.329,0.276,0.486l4.396-1.679L23.42,43.597L23.42,43.597z M16.661,43.729
	c-0.25,0-0.454,0.036-0.611,0.104c-0.157,0.069-0.283,0.159-0.375,0.27c-0.092,0.112-0.156,0.234-0.189,0.37
	c-0.032,0.134-0.048,0.267-0.048,0.396v0.695h2.49V44.91c0-0.315-0.101-0.591-0.3-0.827C17.428,43.848,17.106,43.729,16.661,43.729"
	/>
<path fill="#FFF" d="M23.42,35.538l-1.792,0.403v2.211l1.792,0.403v2.224l-9.846-2.392v-2.795l9.846-2.379V35.538z
	 M15.715,37.012v0.056l4.187,0.835v-1.684L15.715,37.012z"/>
<path fill="#FFF" d="M15.925,28c-0.196,0.167-0.345,0.361-0.453,0.583c-0.106,0.222-0.159,0.455-0.159,0.696
	c0,0.25,0.078,0.476,0.236,0.674c0.158,0.2,0.417,0.298,0.781,0.298c0.306,0,0.545-0.101,0.716-0.305
	c0.172-0.205,0.36-0.506,0.564-0.904c0.111-0.223,0.244-0.459,0.396-0.707c0.154-0.248,0.343-0.475,0.565-0.68
	c0.224-0.206,0.489-0.375,0.801-0.511c0.31-0.135,0.68-0.203,1.107-0.203c0.528,0,0.997,0.084,1.399,0.252
	c0.405,0.168,0.739,0.394,1.003,0.679c0.265,0.285,0.463,0.613,0.599,0.985c0.133,0.373,0.202,0.759,0.202,1.157
	c0,0.594-0.111,1.133-0.333,1.621c-0.223,0.486-0.483,0.878-0.78,1.175L20.9,31.669c0.222-0.212,0.402-0.459,0.536-0.736
	c0.134-0.278,0.203-0.562,0.203-0.849c0-0.268-0.089-0.496-0.265-0.681c-0.176-0.186-0.421-0.279-0.737-0.279
	c-0.325,0-0.583,0.112-0.772,0.335c-0.189,0.222-0.39,0.547-0.604,0.973c-0.129,0.269-0.273,0.521-0.431,0.758
	c-0.156,0.237-0.348,0.445-0.57,0.626c-0.223,0.18-0.482,0.321-0.779,0.423c-0.296,0.103-0.649,0.154-1.057,0.154
	c-0.547,0-1.018-0.091-1.412-0.272c-0.394-0.18-0.715-0.417-0.967-0.709c-0.25-0.292-0.435-0.616-0.556-0.973
	c-0.121-0.358-0.181-0.717-0.181-1.079c0-0.538,0.087-1.019,0.262-1.446c0.175-0.426,0.416-0.784,0.718-1.071L15.925,28z"/>
<polygon fill="#FFF" points="23.42,20.88 19.305,20.88 19.305,23.175 23.42,23.175 23.42,25.385 13.574,25.385 13.574,23.175 
	17.302,23.175 17.302,20.88 13.574,20.88 13.574,18.669 23.42,18.669 "/>
<rect x="13.573" y="14.399" fill="#FFF" width="9.847" height="2.239"/>
<path fill="#FFF" d="M18.525,5.513c0.741,0,1.414,0.082,2.016,0.244c0.603,0.162,1.118,0.41,1.544,0.744
	c0.427,0.334,0.755,0.759,0.988,1.272c0.231,0.515,0.347,1.125,0.347,1.829v2.768h-9.846V9.601c0-0.704,0.116-1.313,0.347-1.829
	c0.232-0.514,0.564-0.938,0.994-1.272c0.432-0.333,0.952-0.582,1.559-0.744S17.765,5.513,18.525,5.513 M18.525,7.752
	c-0.991,0-1.74,0.168-2.247,0.508c-0.504,0.339-0.757,0.776-0.757,1.314v0.542h5.953V9.574c0-0.538-0.253-0.975-0.758-1.314
	C20.21,7.92,19.481,7.752,18.525,7.752"/>
<path fill="#FFF" d="M37.038,142.186l-2.544,0.612v3.142l2.544,0.628v1.395l-10.849-2.728v-1.824l10.849-2.665V142.186z
	 M27.476,144.313v0.063l5.93,1.379v-2.772L27.476,144.313z"/>
<path fill="#FFF" d="M36.907,134.279c0.26,0.429,0.391,0.95,0.391,1.563c0,0.603-0.144,1.142-0.43,1.623
	c-0.285,0.48-0.684,0.883-1.194,1.211c-0.511,0.327-1.112,0.577-1.801,0.75c-0.689,0.174-1.442,0.261-2.261,0.261
	c-0.817,0-1.573-0.089-2.266-0.269c-0.696-0.179-1.295-0.433-1.801-0.765c-0.505-0.332-0.901-0.736-1.187-1.212
	c-0.287-0.474-0.43-1.008-0.43-1.6c0-0.553,0.108-1.058,0.323-1.518c0.214-0.46,0.541-0.837,0.98-1.134l0.936,0.857
	c-0.328,0.226-0.57,0.485-0.729,0.781c-0.157,0.297-0.237,0.613-0.237,0.951c0,0.418,0.118,0.781,0.352,1.088
	c0.235,0.306,0.551,0.559,0.95,0.758c0.398,0.199,0.865,0.35,1.401,0.452c0.537,0.103,1.107,0.152,1.709,0.152
	c0.603,0,1.17-0.05,1.701-0.152s0.999-0.256,1.402-0.459c0.404-0.204,0.723-0.462,0.958-0.774c0.234-0.312,0.352-0.676,0.352-1.095
	c0-0.38-0.102-0.713-0.306-1.005c-0.205-0.29-0.455-0.522-0.751-0.697l0.905-0.827C36.301,133.498,36.646,133.851,36.907,134.279"/>
<path fill="#FFF" d="M37.038,126.939l-2.544,0.614v3.142l2.544,0.627v1.395l-10.849-2.727v-1.824l10.849-2.666V126.939z
	 M27.476,129.069v0.063l5.93,1.378v-2.771L27.476,129.069z"/>
<path fill="#FFF" d="M31.628,117.317c1.757,0,3.098,0.358,4.022,1.072c0.925,0.715,1.388,1.718,1.388,3.004v2.481h-10.85v-2.497
	c0-1.286,0.467-2.286,1.395-2.995C28.514,117.673,29.862,117.317,31.628,117.317 M31.628,118.696c-0.714,0-1.338,0.07-1.869,0.207
	c-0.53,0.137-0.969,0.324-1.316,0.564c-0.348,0.238-0.608,0.523-0.782,0.854c-0.174,0.331-0.261,0.685-0.261,1.061v1.114h8.429
	v-1.114c0-0.376-0.088-0.729-0.261-1.061c-0.174-0.33-0.435-0.615-0.781-0.854c-0.348-0.24-0.784-0.428-1.312-0.564
	C32.949,118.767,32.333,118.696,31.628,118.696"/>
<polygon fill="#FFF" points="37.037,115.096 26.188,115.096 26.188,110.53 27.415,110.53 27.415,113.763 30.832,113.763 
	30.832,110.744 31.981,110.744 31.981,113.763 35.796,113.763 35.796,110.377 37.037,110.377 "/>
<polygon fill="#FFF" points="37.037,100.847 28.059,100.847 28.059,100.892 37.037,103.313 37.037,104.554 28.059,106.944 
	28.059,106.99 37.037,106.99 37.037,108.263 26.188,108.263 26.188,106.235 34.801,103.918 34.801,103.856 26.188,101.586 
	26.188,99.468 37.037,99.468 "/>
<polygon fill="#FFF" points="32.701,93.951 37.038,93.951 37.038,95.33 32.701,95.33 26.188,98.026 26.188,96.525 31.291,94.634 
	26.188,92.694 26.188,91.224 "/>
<path fill="#FFF" d="M31.598,79.977c0.849,0,1.623,0.084,2.322,0.253c0.699,0.169,1.3,0.414,1.8,0.736
	c0.501,0.321,0.889,0.709,1.164,1.164c0.276,0.455,0.415,0.973,0.415,1.555s-0.138,1.104-0.415,1.563
	c-0.275,0.458-0.663,0.85-1.164,1.171c-0.5,0.322-1.101,0.568-1.8,0.736c-0.699,0.168-1.473,0.252-2.322,0.252
	c-0.847,0-1.622-0.08-2.321-0.244s-1.296-0.404-1.792-0.721c-0.495-0.317-0.878-0.707-1.15-1.172
	c-0.271-0.465-0.407-0.993-0.407-1.586c0-0.583,0.136-1.101,0.407-1.555s0.655-0.843,1.15-1.164
	c0.496-0.322,1.093-0.567,1.792-0.736C29.976,80.062,30.75,79.977,31.598,79.977 M31.598,81.433c-0.612,0-1.19,0.049-1.731,0.145
	c-0.541,0.098-1.012,0.24-1.41,0.429c-0.399,0.19-0.712,0.424-0.941,0.705c-0.23,0.28-0.345,0.606-0.345,0.973
	c0,0.379,0.115,0.71,0.345,0.996c0.229,0.287,0.542,0.523,0.941,0.713c0.398,0.189,0.869,0.328,1.41,0.421
	c0.541,0.092,1.119,0.138,1.731,0.138c0.613,0,1.19-0.046,1.731-0.138c0.542-0.093,1.011-0.232,1.41-0.421
	c0.398-0.189,0.712-0.426,0.943-0.713c0.228-0.286,0.343-0.617,0.343-0.996c0-0.367-0.115-0.692-0.343-0.973
	c-0.23-0.281-0.544-0.515-0.943-0.705c-0.399-0.189-0.868-0.332-1.41-0.429C32.788,81.482,32.21,81.433,31.598,81.433"/>
<polygon fill="#FFF" points="27.446,76.376 30.938,76.376 30.938,73.419 32.134,73.419 32.134,76.376 37.037,76.376 
	37.037,77.755 26.189,77.755 26.189,73.19 27.446,73.19 "/>
<path fill="#FFF" d="M34.156,63.124c0.491,0,0.934,0.077,1.327,0.23c0.393,0.152,0.723,0.36,0.988,0.621
	c0.265,0.26,0.469,0.569,0.613,0.926c0.143,0.358,0.214,0.741,0.214,1.149c0,0.552-0.116,1.076-0.345,1.57
	c-0.229,0.496-0.533,0.891-0.912,1.188l-0.995-0.812c0.306-0.235,0.545-0.529,0.719-0.881c0.174-0.352,0.261-0.708,0.261-1.064
	c0-0.46-0.152-0.837-0.458-1.134c-0.307-0.296-0.751-0.445-1.334-0.445c-0.275,0-0.518,0.045-0.727,0.137
	c-0.209,0.093-0.399,0.221-0.566,0.384c-0.169,0.164-0.322,0.35-0.46,0.56c-0.139,0.209-0.269,0.436-0.391,0.681
	c-0.144,0.296-0.305,0.575-0.482,0.835c-0.18,0.261-0.386,0.493-0.621,0.697s-0.513,0.365-0.835,0.483
	c-0.322,0.116-0.702,0.175-1.141,0.175c-0.521,0-0.975-0.082-1.363-0.245c-0.389-0.163-0.71-0.38-0.966-0.651
	c-0.255-0.271-0.443-0.58-0.567-0.927c-0.122-0.348-0.185-0.7-0.185-1.058c0-0.521,0.088-0.988,0.261-1.402
	c0.174-0.414,0.434-0.759,0.782-1.035l0.981,0.827c-0.511,0.389-0.766,0.911-0.766,1.564c0,0.193,0.033,0.385,0.1,0.574
	c0.066,0.188,0.173,0.36,0.322,0.514c0.147,0.152,0.333,0.275,0.559,0.367c0.224,0.092,0.495,0.138,0.813,0.138
	c0.276,0,0.513-0.042,0.712-0.129c0.198-0.087,0.377-0.205,0.536-0.353c0.158-0.147,0.301-0.319,0.428-0.513
	c0.129-0.194,0.248-0.403,0.36-0.628c0.144-0.287,0.305-0.567,0.483-0.843c0.179-0.275,0.391-0.526,0.636-0.75
	c0.245-0.225,0.534-0.406,0.866-0.544C33.333,63.194,33.717,63.124,34.156,63.124"/>
<path fill="#FFF" d="M36.907,56.045c0.26,0.429,0.391,0.95,0.391,1.563c0,0.603-0.144,1.144-0.43,1.624
	c-0.285,0.48-0.684,0.883-1.194,1.209c-0.511,0.328-1.112,0.579-1.801,0.752s-1.442,0.261-2.261,0.261
	c-0.817,0-1.573-0.089-2.266-0.269c-0.696-0.179-1.295-0.435-1.801-0.766c-0.505-0.332-0.901-0.735-1.187-1.21
	c-0.287-0.475-0.43-1.009-0.43-1.601c0-0.552,0.108-1.058,0.323-1.517c0.214-0.459,0.541-0.838,0.98-1.133l0.936,0.857
	c-0.328,0.225-0.57,0.485-0.729,0.781c-0.157,0.296-0.237,0.613-0.237,0.95c0,0.419,0.118,0.782,0.352,1.089
	c0.235,0.305,0.551,0.559,0.95,0.758c0.398,0.199,0.865,0.351,1.401,0.451c0.537,0.102,1.107,0.154,1.709,0.154
	c0.603,0,1.17-0.052,1.701-0.154c0.531-0.101,0.999-0.254,1.402-0.459c0.404-0.204,0.723-0.462,0.958-0.774
	c0.234-0.312,0.352-0.677,0.352-1.095c0-0.378-0.102-0.713-0.306-1.003c-0.205-0.292-0.455-0.523-0.751-0.698l0.905-0.827
	C36.301,55.264,36.646,55.616,36.907,56.045"/>
<rect x="26.188" y="51.847" fill="#FFF" width="10.849" height="1.378"/>
<polygon fill="#FFF" points="37.037,49.15 26.188,49.15 26.188,44.584 27.415,44.584 27.415,47.818 30.832,47.818 30.832,44.799 
	31.981,44.799 31.981,47.818 35.796,47.818 35.796,44.432 37.037,44.432 "/>
<polygon fill="#FFF" points="37.037,37.536 28.625,41 28.625,41.045 37.037,41.045 37.037,42.317 26.188,42.317 26.188,40.662 
	34.616,37.245 34.616,37.199 26.188,37.199 26.188,35.927 37.037,35.927 "/>
<polygon fill="#FFF" points="27.369,30.978 37.037,30.978 37.037,32.357 27.369,32.357 27.369,34.426 26.189,34.426 
	26.189,28.91 27.369,28.91 "/>
<rect x="26.188" y="26.045" fill="#FFF" width="10.849" height="1.378"/>
<path fill="#FFF" d="M34.156,18.445c0.491,0,0.934,0.077,1.327,0.23c0.393,0.152,0.723,0.36,0.988,0.621
	c0.265,0.26,0.469,0.568,0.613,0.926c0.143,0.358,0.214,0.742,0.214,1.15c0,0.55-0.116,1.075-0.345,1.57
	c-0.229,0.496-0.533,0.892-0.912,1.188l-0.995-0.812c0.306-0.235,0.545-0.529,0.719-0.881c0.174-0.353,0.261-0.708,0.261-1.064
	c0-0.46-0.152-0.837-0.458-1.134c-0.307-0.296-0.751-0.444-1.334-0.444c-0.275,0-0.518,0.045-0.727,0.137
	c-0.209,0.093-0.399,0.22-0.566,0.383c-0.169,0.164-0.322,0.35-0.46,0.56c-0.139,0.209-0.269,0.437-0.391,0.682
	c-0.144,0.296-0.305,0.574-0.482,0.835c-0.18,0.26-0.386,0.492-0.621,0.697c-0.235,0.204-0.513,0.364-0.835,0.482
	s-0.702,0.177-1.141,0.177c-0.521,0-0.975-0.082-1.363-0.245c-0.389-0.163-0.71-0.381-0.966-0.651
	c-0.255-0.271-0.443-0.58-0.567-0.928c-0.122-0.347-0.185-0.699-0.185-1.056c0-0.522,0.088-0.989,0.261-1.402
	c0.174-0.414,0.434-0.759,0.782-1.035l0.981,0.827c-0.511,0.389-0.766,0.909-0.766,1.564c0,0.193,0.033,0.385,0.1,0.573
	c0.066,0.189,0.173,0.36,0.322,0.514c0.147,0.153,0.333,0.276,0.559,0.368c0.224,0.092,0.495,0.138,0.813,0.138
	c0.276,0,0.513-0.043,0.712-0.13c0.198-0.086,0.377-0.204,0.536-0.353c0.158-0.148,0.301-0.319,0.428-0.513
	c0.129-0.194,0.248-0.403,0.36-0.628c0.144-0.287,0.305-0.567,0.483-0.843c0.179-0.276,0.391-0.526,0.636-0.75
	c0.245-0.225,0.534-0.406,0.866-0.544C33.333,18.515,33.717,18.445,34.156,18.445"/>
<polygon fill="#FFF" points="27.369,14.14 37.037,14.14 37.037,15.519 27.369,15.519 27.369,17.588 26.189,17.588 26.189,12.072 
	27.369,12.072 "/>
<path fill="#FFF" d="M34.156,5.683c0.491,0,0.934,0.076,1.327,0.229c0.393,0.154,0.723,0.361,0.988,0.622
	c0.265,0.26,0.469,0.569,0.613,0.926c0.143,0.358,0.214,0.741,0.214,1.15c0,0.551-0.116,1.075-0.345,1.57
	c-0.229,0.496-0.533,0.891-0.912,1.188l-0.995-0.812c0.306-0.235,0.545-0.529,0.719-0.88c0.174-0.353,0.261-0.708,0.261-1.065
	c0-0.461-0.152-0.838-0.458-1.134c-0.307-0.295-0.751-0.444-1.334-0.444c-0.275,0-0.518,0.046-0.727,0.138s-0.399,0.22-0.566,0.383
	c-0.169,0.164-0.322,0.351-0.46,0.56C32.34,8.32,32.21,8.548,32.088,8.792c-0.144,0.297-0.305,0.575-0.482,0.835
	c-0.18,0.261-0.386,0.493-0.621,0.698c-0.235,0.204-0.513,0.365-0.835,0.482s-0.702,0.176-1.141,0.176
	c-0.521,0-0.975-0.082-1.363-0.245c-0.389-0.163-0.71-0.38-0.966-0.651c-0.255-0.271-0.443-0.58-0.567-0.927
	c-0.122-0.348-0.185-0.7-0.185-1.058c0-0.521,0.088-0.988,0.261-1.401c0.174-0.414,0.434-0.759,0.782-1.035l0.981,0.827
	c-0.511,0.389-0.766,0.91-0.766,1.563c0,0.194,0.033,0.386,0.1,0.575c0.066,0.189,0.173,0.36,0.322,0.514
	c0.147,0.152,0.333,0.274,0.559,0.366c0.224,0.092,0.495,0.138,0.813,0.138c0.276,0,0.513-0.042,0.712-0.13
	c0.198-0.086,0.377-0.204,0.536-0.353c0.158-0.147,0.301-0.319,0.428-0.513c0.129-0.194,0.248-0.403,0.36-0.627
	c0.144-0.287,0.305-0.567,0.483-0.843c0.179-0.275,0.391-0.526,0.636-0.75C32.379,6.208,32.668,6.027,33,5.889
	C33.333,5.752,33.717,5.683,34.156,5.683"/>
</svg>
