<?xml version="1.0" encoding="utf-8"?>
<!-- Generator: Adobe Illustrator 19.0.0, SVG Export Plug-In . SVG Version: 6.00 Build 0)  -->
<svg version="1.1" id="Layer_1" xmlns="http://www.w3.org/2000/svg" xmlns:xlink="http://www.w3.org/1999/xlink" x="0px" y="0px"
	 viewBox="0 0 448 480" style="enable-background:new 0 0 448 480;" xml:space="preserve">
<style type="text/css">
	.st0{clip-path:url(#SVGID_2_);}
     path{
    fill:#fff;
    }
</style>
<g>
	<defs>
		<rect id="SVGID_1_" width="448" height="480"/>
	</defs>
	<clipPath id="SVGID_2_">
		<use xlink:href="#SVGID_1_"  style="overflow:visible;"/>
	</clipPath>
	<path class="st0" d="M444.1,209.1c-2.4-1.4-5.5-1.5-7.9-0.1l-22,12.2L408,7.8c-0.1-4.3-3.7-7.8-8-7.8h-56c-4.3,0-7.9,3.4-8,7.8
		l-7.5,261L304,282.4V216c0-4.4-3.6-8-8-8c-1.4,0-2.7,0.3-3.9,1L160,282.4V216c0-4.4-3.6-8-8-8c-1.4,0-2.7,0.3-3.9,1l-144,80
		c-2.5,1.4-4.1,4.1-4.1,7v176c0,4.4,3.6,8,8,8h432c4.4,0,8-3.6,8-8V216C448,213.2,446.5,210.5,444.1,209.1 M350.9,48h42.3l5.2,182
		l-53.5,29.7L350.9,48z M392.2,16l0.5,16h-41.4l0.5-16H392.2z M168,424h48v40h-48V424z M232,424h48v40h-48V424z M432,464H296v-48
		c0-4.4-3.6-8-8-8H160c-4.4,0-8,3.6-8,8v48H16V300.7l128-71.1V296c0,4.4,3.6,8,8,8c1.4,0,2.7-0.3,3.9-1L288,229.6V296
		c0,4.4,3.6,8,8,8c1.4,0,2.7-0.3,3.9-1l75.4-41.9l35.1-19.5l21.6-12V464z"/>
	<path class="st0" d="M112,320H48c-4.4,0-8,3.6-8,8v32c0,4.4,3.6,8,8,8h64c4.4,0,8-3.6,8-8v-32C120,323.6,116.4,320,112,320
		 M104,352H56v-16h48V352z"/>
	<path class="st0" d="M256,320h-64c-4.4,0-8,3.6-8,8v32c0,4.4,3.6,8,8,8h64c4.4,0,8-3.6,8-8v-32C264,323.6,260.4,320,256,320
		 M248,352h-48v-16h48V352z"/>
	<path class="st0" d="M400,320h-64c-4.4,0-8,3.6-8,8v32c0,4.4,3.6,8,8,8h64c4.4,0,8-3.6,8-8v-32C408,323.6,404.4,320,400,320
		 M392,352h-48v-16h48V352z"/>
</g>
</svg>
