<?xml version="1.0" encoding="utf-8"?>
<!-- Generator: Adobe Illustrator 19.0.0, SVG Export Plug-In . SVG Version: 6.00 Build 0)  -->
<svg version="1.1" id="Layer_1" xmlns="http://www.w3.org/2000/svg" xmlns:xlink="http://www.w3.org/1999/xlink" x="0px" y="0px"
	 viewBox="0 0 384 384" style="enable-background:new 0 0 384 384;" xml:space="preserve">
<style type="text/css">
	.st0{clip-path:url(#SVGID_2_);}
	.st1{clip-path:url(#SVGID_4_);}
     path{
    fill:#fff;
    }
</style>
<g>
	<defs>
		<rect id="SVGID_1_" width="384" height="384"/>
	</defs>
	<clipPath id="SVGID_2_">
		<use xlink:href="#SVGID_1_"  style="overflow:visible;"/>
	</clipPath>
	<path class="st0" d="M355.9,292.7h-10.1v-37.9c0-5.2-4.2-9.4-9.4-9.4h-33c-5.2,0-9.4,4.2-9.4,9.4v37.9c-0.2,0-0.4,0-0.7,0h-31.8
		v-37.9c0-5.2-4.2-9.4-9.4-9.4h-33c-5.2,0-9.4,4.2-9.4,9.4v37.9h-18.6c-3.8-4.3-8.7-7.7-14.1-9.8l-1-25.1
		c8.2-2.6,14.2-10.3,14.2-19.4v-42.2c0-10.3-7.6-18.8-17.5-20.2l-1-23.6l34.5-37.7l28.8,38.4c3.6,4.8,8.8,7.8,14.4,8.6
		c2.2,13.7,14.1,24.2,28.4,24.2c8.3,0,16.2-3.7,21.7-9.9l11.6,5.7c-1.6,5.7-1.5,11.9,0.5,17.9c2.6,7.7,8,13.9,15.3,17.4
		c4.2,2.1,8.8,3.1,13.4,3.1c3.3,0,6.6-0.5,9.8-1.6c2.9-1,4.5-4.2,3.5-7.1c-1-2.9-4.2-4.5-7.1-3.5c-4.8,1.6-10,1.3-14.6-1
		c-4.6-2.2-8-6.1-9.6-11c-3.4-9.9,2-20.8,11.9-24.2c4.8-1.6,10-1.3,14.6,1c4.6,2.2,8,6.1,9.6,11c1,2.9,4.2,4.5,7.1,3.5
		c2.9-1,4.5-4.2,3.5-7.1c-2.6-7.7-8-13.9-15.3-17.4c-7.3-3.6-15.5-4.1-23.1-1.5c-6,2-10.9,5.8-14.5,10.5l-11-5.4
		c1-2.9,1.5-6,1.5-9.2c0-10.8-5.9-20.4-15-25.3c0.9-5.2-0.1-10.7-3.1-15.5L253.6,61c5.1-10.7,3-23.9-5.6-32.5L227.4,8.3
		c-10.9-10.8-28.2-11-39.4-0.6l-82.4,76.7H79c-26.6,0-48.2,20.8-49.3,47.3l-1.8,44.5c-9.3,1.9-16.3,10.1-16.3,20v42.2
		c0,8.6,5.4,16,13,19l-1,25.5C9.8,288.3,0,301.7,0,317.3v57.3c0,5.2,4.2,9.4,9.4,9.4h181.8c5.2,0,9.4-4.2,9.4-9.4v-4.8H330
		c3.1,0,5.6-2.5,5.6-5.6c0-3.1-2.5-5.6-5.6-5.6H200.6v-41.3c0-4.7-0.9-9.2-2.5-13.4h157.8c9.3,0,16.9,7.6,16.9,16.9v20.9
		c0,9.3-7.6,16.9-16.9,16.9h-3.4c-3.1,0-5.6,2.5-5.6,5.6c0,3.1,2.5,5.6,5.6,5.6h3.4c15.5,0,28.1-12.6,28.1-28.1v-20.9
		C384,305.3,371.4,292.7,355.9,292.7 M286.8,142.1c5.2,3.1,8.5,8.7,8.5,15c0,3.2-0.8,6.2-2.4,8.9c-3.2,5.4-8.8,8.6-15.1,8.6
		c-8.5,0-15.7-6.1-17.2-14.2c1.6-0.6,3.1-1.4,4.6-2.4l17.1-11.8C284,145.1,285.5,143.7,286.8,142.1 M278.9,122.4
		c2.1,3.2,2.2,7.2,0.6,10.4c0,0.1,0,0.1-0.1,0.1c-0.8,1.6-2,3-3.6,4.1l-17.1,11.8c-1.5,1-3.2,1.6-4.8,1.8h0
		c-3.7,0.4-7.5-1.1-9.9-4.3l-30.1-40.1l32.5-35.6L278.9,122.4z M41,132.1c0.8-20.5,17.6-36.6,38.1-36.6h42.5
		c6.2,0,12.1,1.4,17.6,4.3c2.8,1.4,6.2,0.4,7.6-2.4c1.4-2.8,0.4-6.2-2.4-7.6c-6.8-3.5-14.4-5.5-22.2-5.6l73.6-68.5
		c6.8-6.3,17.2-6.1,23.8,0.4L240,36.5c6.5,6.4,6.9,16.9,0.6,23.8l-38.2,41.8c0,0,0,0,0,0l-31.3,34.3l-0.2-4.8
		c-0.4-8.9-3.1-17.5-8-24.9c-1.7-2.6-5.2-3.3-7.8-1.6c-2.6,1.7-3.3,5.2-1.6,7.8c3.7,5.7,5.9,12.4,6.1,19.2l1.8,43.7H39.2L41,132.1z
		 M22.8,238.4v-42.2c0-5,4.1-9.1,9.1-9.1h137.8c5,0,9.1,4.1,9.1,9.1v42.2c0,5-4.1,9.1-9.1,9.1H32C26.9,247.5,22.8,243.4,22.8,238.4
		 M189.3,372.8H11.3v-55.4c0-14.2,11.5-25.7,25.7-25.7h16c3.1,0,5.6-2.5,5.6-5.6c0-3.1-2.5-5.6-5.6-5.6c-17.5,0-16.5,0-18,0.1
		l0.9-21.7h129l0.9,21.7c-1.5-0.1,4.9-0.1-90.3-0.1c-3.1,0-5.6,2.5-5.6,5.6c0,3.1,2.5,5.6,5.6,5.6h88.3c14.2,0,25.7,11.5,25.7,25.7
		C189.3,324.3,189.3,365.8,189.3,372.8 M250.3,292.7h-29.2v-36h29.2V292.7z M334.5,292.7h-29.2v-36h29.2V292.7z"/>
</g>
<g>
	<defs>
		<rect id="SVGID_3_" width="384" height="384"/>
	</defs>
	<clipPath id="SVGID_4_">
		<use xlink:href="#SVGID_3_"  style="overflow:visible;"/>
	</clipPath>
	<path class="st1" d="M231.9,332.3c0,9.9,8.1,17.9,18,17.9c9.9,0,17.9-8.1,17.9-17.9s-8.1-18-17.9-18
		C240,314.3,231.9,322.4,231.9,332.3 M256.6,332.3c0,3.7-3,6.7-6.7,6.7c-3.7,0-6.7-3-6.7-6.7s3-6.7,6.7-6.7
		C253.5,325.6,256.6,328.6,256.6,332.3"/>
	<path class="st1" d="M310.7,332.3c0,9.9,8.1,17.9,17.9,17.9c9.9,0,18-8.1,18-17.9C346.6,308.6,310.7,308.6,310.7,332.3 M328.7,339
		c-3.7,0-6.7-3-6.7-6.7c0-3.7,3-6.7,6.7-6.7c3.7,0,6.7,3,6.7,6.7C335.4,336,332.4,339,328.7,339"/>
	<path class="st1" d="M100.3,110.8c-12.4,0-22.6,10.1-22.6,22.5c0,12.4,10.1,22.6,22.6,22.6c12.4,0,22.5-10.1,22.5-22.6
		C122.9,120.9,112.7,110.8,100.3,110.8 M100.3,144.6c-6.2,0-11.3-5.1-11.3-11.3c0-6.2,5.1-11.3,11.3-11.3c6.2,0,11.3,5.1,11.3,11.3
		C111.6,139.5,106.5,144.6,100.3,144.6"/>
	<path class="st1" d="M213.2,65.3c13.8-6.5,12.7-26.4-1.5-31.5c-14.4-5.2-27.7,9.7-21.2,23.4C194.5,65.7,204.6,69.4,213.2,65.3
		 M200.4,47.9c1.8-4.9,8.6-5.2,10.8-0.5c1.4,2.9,0.1,6.4-2.8,7.8C203.7,57.4,198.7,52.8,200.4,47.9"/>
	<path class="st1" d="M40.4,238.5h42.9c3.1,0,5.6-2.5,5.6-5.6v-29.6c0-3.1-2.5-5.6-5.6-5.6H40.4c-3.1,0-5.6,2.5-5.6,5.6v29.6
		C34.8,236,37.3,238.5,40.4,238.5 M46.1,208.9h31.7v18.4H46.1V208.9z"/>
	<path class="st1" d="M109.8,212h2.3c3.1,0,5.6-2.5,5.6-5.6c0-3.1-2.5-5.6-5.6-5.6h-2.3c-3.1,0-5.6,2.5-5.6,5.6
		C104.2,209.5,106.7,212,109.8,212"/>
	<path class="st1" d="M132.9,212h2.3c3.1,0,5.6-2.5,5.6-5.6c0-3.1-2.5-5.6-5.6-5.6h-2.3c-3.1,0-5.6,2.5-5.6,5.6
		C127.3,209.5,129.8,212,132.9,212"/>
	<path class="st1" d="M156.1,212h2.3c3.1,0,5.6-2.5,5.6-5.6c0-3.1-2.5-5.6-5.6-5.6h-2.3c-3.1,0-5.6,2.5-5.6,5.6
		C150.4,209.5,152.9,212,156.1,212"/>
	<path class="st1" d="M109.8,233.8h2.3c3.1,0,5.6-2.5,5.6-5.6c0-3.1-2.5-5.6-5.6-5.6h-2.3c-3.1,0-5.6,2.5-5.6,5.6
		C104.2,231.2,106.7,233.8,109.8,233.8"/>
	<path class="st1" d="M132.9,233.8h2.3c3.1,0,5.6-2.5,5.6-5.6c0-3.1-2.5-5.6-5.6-5.6h-2.3c-3.1,0-5.6,2.5-5.6,5.6
		C127.3,231.2,129.8,233.8,132.9,233.8"/>
	<path class="st1" d="M156.1,233.8h2.3c3.1,0,5.6-2.5,5.6-5.6c0-3.1-2.5-5.6-5.6-5.6h-2.3c-3.1,0-5.6,2.5-5.6,5.6
		C150.4,231.2,152.9,233.8,156.1,233.8"/>
	<path class="st1" d="M46.2,320.6c-9.9,0-18,8.1-18,18c0,9.9,8.1,17.9,18,17.9c9.9,0,17.9-8.1,17.9-17.9
		C64.2,328.6,56.1,320.6,46.2,320.6 M46.2,345.2c-3.7,0-6.7-3-6.7-6.7c0-3.7,3-6.7,6.7-6.7c3.7,0,6.7,3,6.7,6.7
		C52.9,342.2,49.9,345.2,46.2,345.2"/>
	<path class="st1" d="M160,314.4h-1.4v-1.9c0-3.1-2.5-5.6-5.6-5.6c-3.1,0-5.6,2.5-5.6,5.6v1.9H146c-3.1,0-5.6,2.5-5.6,5.6
		c0,3.1,2.5,5.6,5.6,5.6h1.4v26.3c0,3.1,2.5,5.6,5.6,5.6c3.1,0,5.6-2.5,5.6-5.6v-26.3h1.4c3.1,0,5.6-2.5,5.6-5.6
		C165.6,316.9,163.1,314.4,160,314.4"/>
	<path class="st1" d="M129.6,334.7h-1.4v-22.2c0-3.1-2.5-5.6-5.6-5.6c-3.1,0-5.6,2.5-5.6,5.6v22.2h-1.4c-3.1,0-5.6,2.5-5.6,5.6
		c0,3.1,2.5,5.6,5.6,5.6h1.4v6c0,3.1,2.5,5.6,5.6,5.6c3.1,0,5.6-2.5,5.6-5.6v-6h1.4c3.1,0,5.6-2.5,5.6-5.6
		C135.2,337.2,132.7,334.7,129.6,334.7"/>
	<path class="st1" d="M99.3,320.6h-1.4v-8.1c0-3.1-2.5-5.6-5.6-5.6c-3.1,0-5.6,2.5-5.6,5.6v8.1h-1.4c-3.1,0-5.6,2.5-5.6,5.6
		c0,3.1,2.5,5.6,5.6,5.6h1.4v20.1c0,3.1,2.5,5.6,5.6,5.6c3.1,0,5.6-2.5,5.6-5.6v-20.1h1.4c3.1,0,5.6-2.5,5.6-5.6
		C104.9,323.1,102.4,320.6,99.3,320.6"/>
</g>
</svg>
