<?xml version="1.0" encoding="utf-8"?>
<!-- Generator: Adobe Illustrator 25.0.1, SVG Export Plug-In . SVG Version: 6.00 Build 0)  -->
<svg version="1.1" id="Group_24" xmlns="http://www.w3.org/2000/svg" xmlns:xlink="http://www.w3.org/1999/xlink" x="0px" y="0px"
	 viewBox="0 0 300 300" style="enable-background:new 0 0 300 300;" xml:space="preserve">
<style type="text/css">
	.st0{clip-path:url(#SVGID_2_);}
	.st1{fill:#D8AA77;}
	.st2{fill:#333333;}
	.st3{fill:#F1BE84;}
	.st4{fill:#F6D1A8;}
	.st5{fill:#FFE4C3;}
	.st6{fill:#F1F1F1;}
	.st7{fill:#E5E5E5;}
	.st8{fill:#C6C6C6;}
</style>
<g>
	<defs>
		<rect id="SVGID_1_" x="17.4" y="0.9" width="272.3" height="262.4"/>
	</defs>
	<clipPath id="SVGID_2_">
		<use xlink:href="#SVGID_1_"  style="overflow:visible;"/>
	</clipPath>
	<g id="Group_23" class="st0">
		<path id="Path_5" class="st1" d="M172.9,183.9c-5.1-2.8-10-6-14.6-9.5l-36.6-56.2l-14.2,3l45.2,69.8
			C153.1,190.8,202.3,198.4,172.9,183.9"/>
		<path id="Path_6" class="st2" d="M161.2,170.1c-0.1-0.3-0.3-0.6-0.5-0.9l-8.7-12.2l0,0l-33.5-46.7l-6.6-9.2l-6-8.4
			c21.5-19.7,23.1-53,3.4-74.6c-19.7-21.5-53-23.1-74.6-3.4c-21.5,19.7-23.1,53-3.4,74.6c16.5,18.1,43.3,22.4,64.7,10.5l13.1,18.3
			l1.6,2.2l3.7,5.1l4.1,5.7l4.9,6.8l4.7,6.5l0.9,1.2l0.3,0.4l0.1,0.1l1,1.4l8.1,11.3l3.5,4.8l4.4,6.1l4.6,6.5c2,2.7,5.8,3.4,8.5,1.4
			c0,0,0,0,0,0c0.4-0.3,0.7-0.6,1-0.9c0.1-0.1,0.1-0.1,0.2-0.2c0.1-0.1,0.2-0.3,0.3-0.4C162,174.4,162.1,172.1,161.2,170.1
			 M97.2,91.2c-20.7,14.9-49.6,10.2-64.5-10.5S22.4,31.2,43.1,16.2C63.8,1.3,92.7,6,107.6,26.7c5.7,7.9,8.7,17.3,8.7,27
			C116.4,68.6,109.3,82.6,97.2,91.2"/>
		<path id="Path_7" class="st3" d="M152.9,190c1.8-2.9,0.5-5.7-0.9-7.5c-1-1.4-2.5-2.4-4.2-2.8c-3.9-0.7-3-3.1-2.2-4
			c1.8-2.1,1.5-4.4-0.6-8c-1.6-2.8-4.1-5-7.1-6.1c2.2-9.6-4.3-14.7-10.1-13.7c1.1-1,2.1-2.1,2.9-3.4c5.8-9.8-8.6-14.1-13.4-12.9
			c0,0-7-15.6-10.2-13.6c-3.2,2-7.1,8-9.5,14.8c-2.4,6.8,7.3,17.9,7.3,17.9c3.8,12.2,15.2,18.2,15.2,18.2
			c-1.6,12.8,10.4,12.4,10.4,12.4s-7,8.1,6.3,12.5c2.9,0.6,5.9,0.7,8.8,0c17.8-5.6,36.9,7.7,36.9,7.7l7.2-8.8
			c0,0-13.3-6.7-20.1-10.5C169.6,182.1,150.6,193.8,152.9,190"/>
		<path id="Path_8" class="st1" d="M159.9,128.3c-1.6-0.9-3.3-1.6-5-2.2c-0.9-0.3-1.9-0.5-2.9-0.6c-0.7-0.1-1.4-0.4-2-0.9
			c-1.4-1.1-2.6-2.3-3.7-3.7c-1.2-1.3-2.3-2.8-3.4-4.2c-2.2-2.9-4.2-5.8-6.4-8.7c1.6,3.3,3.3,6.4,5.3,9.5c1,1.5,2.1,3,3.2,4.4
			c1.2,1.5,2.5,2.8,3.9,4c0.8,0.7,1.8,1.1,2.9,1.2c0.8,0,1.6,0.2,2.4,0.4c1.7,0.5,3.3,1.2,4.9,1.9c3.3,1.5,6.4,3.1,9.7,4.8
			C166.1,132,163.1,130,159.9,128.3"/>
		<path id="Path_9" class="st4" d="M117.9,141.2c-0.3-0.4-0.2-1,0.2-1.3c0,0,0.1,0,0.1-0.1c1.5-0.9,4.6-2.4,6.4-1.5
			c2.5,1.1,4.3,2.7,4.1,4.9c-0.2,1.6-3.1,3.5-4.7,4.4c-0.5,0.3-1.2,0.2-1.6-0.3L117.9,141.2z"/>
		<path id="Path_10" class="st4" d="M126.1,158.6l2.3,6c0.2,0.4,0.6,0.6,1,0.5c0,0,0,0,0,0c2-0.9,7.4-3.7,6.3-7.4
			c-1.2-4.1-6.6-3-9.2-0.8C126.1,157.2,125.9,157.9,126.1,158.6"/>
		<path id="Path_11" class="st4" d="M133.8,173l2,3.6c0.4,0.7,1.3,1,2.1,0.7c1.9-0.8,5.9-2.5,5.9-4.2c0-2.1,1-8.4-8.1-5
			c-1.8,0.6-2.7,2.6-2.1,4.3C133.7,172.7,133.8,172.9,133.8,173"/>
		<path id="Path_12" class="st4" d="M142.2,185.6l1,4.7c0.2,1.1,1.3,1.7,2.3,1.5c0.1,0,0.1,0,0.2-0.1c2-0.7,4.8-2.2,5-5.1
			c0.3-4.3-4.1-5.1-7.9-2.7C142.4,184.2,142.1,184.9,142.2,185.6"/>
		<path id="Path_13" class="st3" d="M210.1,164.1c-2.7-2.9-48.2-52.1-53.2-57.1c-4.7-4.8-20.3-1.6-20.3-1.6s-10.1-13.5-15-16
			c-4.9-2.6-10.8,0.4-11.2,3.6c0,2.8,0.5,5.6,1.4,8.3c0.8,2.8,1.9,5.5,3.3,8.1c0.5,1,1.2,2,1.9,2.9l0,0l0.2,0.3
			c0.3,0.3,0.5,0.6,0.8,0.9c1.4,1.5,2.6,3.1,3.7,4.8l0,0l0,0c1.3,1.9,2.8,4.1,4.2,6.4l0,0l0,0c1.2,1.9,2.3,3.8,3.4,5.6
			c1.1,1.8,2,3.4,2.9,4.8l0,0c1.5,2.6,2.5,4.4,2.5,4.4s0.4,1,1,2.7l0,0c1.1,2.8,3.1,7.4,5.6,12.4c2.4,4.9,5.3,9.6,8.7,13.9l0,0
			c0.4,0.5,0.8,1,1.2,1.4l0,0l0,0c1.4,1.6,2.9,2.9,4.6,4.1c1.4,0.9,2.9,1.8,4.3,2.7c2.4,1.4,4.7,2.9,7,4.2c0.7,0.4,1.5,0.8,2.2,1.2
			l0.7-0.5l19.1,10.3l0.1,0l7.8-10.5l0-0.1l12.1-16.2l0.7-1C210.2,164.2,210.2,164.2,210.1,164.1 M142.9,116.7
			c1.1,1.4,2.2,2.8,3.4,4.2c1.1,1.3,2.3,2.6,3.7,3.7c0.6,0.5,1.2,0.8,2,0.9c1,0.1,1.9,0.2,2.9,0.6c1.7,0.6,3.4,1.3,5,2.2
			c3.2,1.7,6.2,3.7,9.1,5.9c-3.2-1.7-6.4-3.3-9.7-4.8c-1.6-0.7-3.3-1.4-4.9-1.9c-0.8-0.2-1.6-0.4-2.4-0.4c-1.1-0.1-2.1-0.5-2.9-1.2
			c-1.5-1.2-2.8-2.5-3.9-4c-1.1-1.4-2.2-2.9-3.2-4.4c-2-3-3.8-6.2-5.3-9.5C138.7,110.9,140.8,113.9,142.9,116.7"/>
		<path id="Path_14" class="st1" d="M190.8,190.2c0,0-30.8-18.6-34.2-24.8c-3.4-6.3-24.6-43.5-30.1-50.1c-3.2-3.9-11.4-6-11.4-6
			l1.9,2.9l4.8,6l4.2,6.4l6.3,10.5l3.6,7.1l3.4,7.9l5.7,11.6c0.5,1,1.1,2,1.9,2.9l4.6,5.4l0.9,1.1c0.9,1.1,2,2.1,3.2,2.9l15.5,9.9
			l18.1,8.6L190.8,190.2z"/>
		<path id="Path_15" class="st5" d="M123,147.7c-0.2-3.2-2.2-6.1-5.2-7.2c-0.1,0.3,0,0.5,0.1,0.7l4.5,6.1
			C122.6,147.4,122.8,147.6,123,147.7"/>
		<path id="Path_16" class="st5" d="M126.1,158.5l0.1,0.3l2.2,5.9c0,0,0,0.1,0.1,0.1c0.9-5-2.2-6.4-2.5-6.5
			C126.1,158.3,126.1,158.4,126.1,158.5"/>
		<path id="Path_17" class="st5" d="M133.5,170.6c-0.2,0.8-0.1,1.7,0.3,2.5l2,3.6c0.1,0.1,0.2,0.3,0.3,0.4
			C137.3,172.2,134.9,170.9,133.5,170.6"/>
		<path id="Path_18" class="st5" d="M142.2,185.6l1,4.5c0.1,0.3,0.2,0.5,0.3,0.7c0,0,0,0,0,0c2.1-5-1.1-5.5-1.4-5.5
			C142.2,185.5,142.2,185.5,142.2,185.6"/>
		<path id="Path_19" class="st4" d="M116.6,104.5c0,0.1,0.1,0.2,0.3,0.2c0,0,0,0,0,0c1.4-0.6,8.6-3.7,9.5-6.7c0.9-3.4-6.2-7-8.5-7
			c-2.2,0-6.7,1.7-4.1,6.9C115,100,115.9,102.2,116.6,104.5"/>
		<path id="Path_20" class="st5" d="M118.2,104.2c1.1-2.8,3.9-4.5,6.9-4.2l-1.3,1l-1.9,1.2l-2,1.1L118.2,104.2z"/>
		<path id="Path_21" class="st1" d="M145.6,175.7c0,0-0.1,0.1-0.1,0.1l-0.1,0.1l-0.2,0.2c-0.1,0.2-0.3,0.3-0.4,0.5
			c-0.3,0.3-0.6,0.6-0.9,0.9c-0.6,0.6-1.3,1.1-2,1.6c-1.4,1-2.9,1.8-4.5,2.4c-1.6,0.6-3.4,0.9-5.1,0.9c-0.9,0-1.7-0.2-2.6-0.5
			c-0.8-0.3-1.6-0.7-2.3-1.2c0.8,0.2,1.6,0.3,2.4,0.4c0.8,0.1,1.6,0,2.4,0c1.6-0.2,3.1-0.5,4.6-1.1c1.5-0.6,3-1.2,4.4-1.9
			c0.7-0.4,1.4-0.8,2.2-1.1l1.1-0.6l0.6-0.3l0.3-0.1C145.4,175.7,145.5,175.7,145.6,175.7"/>
		<path id="Path_22" class="st1" d="M153.1,189.7c-0.3,0.4-0.7,0.7-1,1.1c-0.4,0.3-0.8,0.6-1.2,0.9c-0.8,0.6-1.7,1.1-2.6,1.5
			c-0.9,0.4-1.9,0.7-2.9,0.9c-0.5,0.1-1,0.2-1.5,0.3l-0.8,0.1c-0.3,0-0.5,0-0.8,0c-1,0-2,0-3-0.2c-0.1,0-0.3,0-0.4-0.1l-0.4-0.1
			c-0.2,0-0.5-0.1-0.7-0.2c-0.5-0.1-1-0.2-1.4-0.4c-1.9-0.6-3.7-1.6-5.2-2.8c1.8,0.6,3.7,1.2,5.6,1.6c0.2,0,0.5,0.1,0.7,0.1l0.7,0.1
			c0.2,0,0.5,0.1,0.7,0.1l0.3,0c0.1,0,0.2,0,0.3,0c0.2,0,0.5,0,0.7,0.1l0.7,0c0.2,0,0.5,0,0.7,0c0.2,0,0.5,0,0.7,0s0.5,0,0.7,0
			l0.7-0.1c0.5-0.1,0.9-0.1,1.4-0.2c0.9-0.2,1.8-0.4,2.7-0.6c0.9-0.3,1.8-0.6,2.7-1C151.4,190.6,152.3,190.2,153.1,189.7"/>
		<path id="Path_23" class="st1" d="M138.2,161.3c-0.2,0.4-0.4,0.8-0.6,1.2c-0.2,0.4-0.5,0.8-0.7,1.2c-0.5,0.8-1.1,1.5-1.7,2.2
			c-0.6,0.7-1.3,1.3-2,1.9c-0.2,0.1-0.4,0.3-0.6,0.4l-0.6,0.4c-0.2,0.1-0.4,0.2-0.6,0.4c-0.2,0.1-0.4,0.2-0.6,0.3
			c-0.2,0.1-0.4,0.2-0.6,0.3c-0.2,0.1-0.4,0.2-0.7,0.3s-0.4,0.2-0.7,0.2s-0.5,0.1-0.7,0.2c-0.9,0.2-1.9,0.3-2.9,0.3
			c-0.2,0-0.5,0-0.7-0.1c-0.2,0-0.5-0.1-0.7-0.1c-0.5-0.1-0.9-0.2-1.4-0.4l-0.7-0.3c-0.2-0.1-0.4-0.2-0.6-0.3
			c-0.1-0.1-0.2-0.1-0.3-0.2l-0.3-0.2c-0.2-0.1-0.4-0.3-0.6-0.4c0.2,0.1,0.4,0.1,0.7,0.2l0.3,0.1l0.3,0.1l0.6,0.2l0.7,0.1
			c0.2,0,0.4,0.1,0.6,0.1c0.2,0,0.4,0,0.6,0c0.2,0,0.4,0,0.6,0c0.2,0,0.4,0,0.6,0c0.8-0.1,1.7-0.3,2.5-0.5c0.2-0.1,0.4-0.1,0.6-0.2
			c0.2-0.1,0.4-0.2,0.6-0.2s0.4-0.2,0.6-0.3l0.3-0.1c0.1,0,0.2-0.1,0.3-0.2c0.8-0.4,1.5-0.8,2.2-1.3c0.7-0.5,1.4-1,2.1-1.6
			c0.7-0.6,1.3-1.2,2-1.8S137.6,162,138.2,161.3"/>
		<path id="Path_24" class="st1" d="M130.6,144.3c-0.3,0.5-0.7,1-1.1,1.5c-0.4,0.5-0.8,0.9-1.2,1.4c-0.9,0.9-1.8,1.7-2.8,2.5
			c-1,0.8-2,1.5-3.1,2.1c-0.5,0.3-1.1,0.6-1.7,0.9c-0.6,0.3-1.2,0.5-1.8,0.7c-0.6,0.2-1.2,0.4-1.8,0.5c-0.6,0.1-1.3,0.2-1.9,0.3
			c-0.6,0.1-1.3,0.1-1.9,0c-0.3,0-0.6,0-1-0.1l-0.5-0.1c-0.2,0-0.3-0.1-0.5-0.1c-1.2-0.3-2.4-0.7-3.6-1.3c-0.1-0.1-0.3-0.2-0.4-0.2
			c-0.1-0.1-0.3-0.2-0.4-0.2c-0.3-0.2-0.5-0.3-0.8-0.5c-0.5-0.4-1-0.8-1.4-1.2c1,0.6,2.1,1.2,3.3,1.6c2.2,0.9,4.6,1.2,7,0.8
			c1.2-0.2,2.3-0.4,3.4-0.8c2.3-0.8,4.4-1.9,6.4-3.3c1-0.7,2-1.4,2.9-2.2C128.8,146,129.7,145.2,130.6,144.3"/>
		<path id="Path_25" class="st1" d="M117.1,131.9c-0.7,0.3-1.4,0.5-2.1,0.7c-0.7,0.2-1.4,0.3-2.2,0.4c-0.8,0.1-1.5,0.1-2.3,0
			c-0.8-0.1-1.6-0.4-2.3-0.8c-0.4-0.2-0.7-0.5-1-0.8c-0.3-0.3-0.6-0.7-0.8-1.1c-0.4-0.8-0.5-1.6-0.4-2.5c0.1-1.6,0.7-3,1.7-4.2
			l0.2,0.1c0,0.8,0,1.5,0,2.2c0,0.7,0,1.3,0,2c0,0.3,0.1,0.6,0.1,0.9c0,0.3,0.1,0.6,0.2,0.8c0.1,0.5,0.4,1,0.9,1.4
			c0.5,0.4,1.1,0.7,1.7,0.8c0.7,0.2,1.3,0.3,2,0.3c0.7,0,1.4,0,2.1,0c0.7,0,1.4-0.1,2.1-0.2L117.1,131.9z"/>
		<path id="Path_26" class="st6" d="M88.6,16.5c20.4,20.6,20.4,53.8,0,74.4c20.5-12.1,27.4-38.5,15.3-59
			C100.3,25.5,95,20.3,88.6,16.5"/>
		<path id="Path_27" class="st6" d="M289.8,200.4c-6.6,18.8-16.6,36.3-29.3,51.7h-25.6l-58.1-42.5l7.8-10.7l0,0l4.7-6.5l0,0l8-11
			l0-0.1l12.7-17.3l8.6-11.7L289.8,200.4z"/>
		<path id="Path_28" class="st7" d="M274.4,232.6c-4.2,6.8-8.9,13.3-14,19.5c-3.2,3.9-6.6,7.6-10.2,11.2l-15.4-11.2l-58.1-42.5
			l7.8-10.7l0,0l4.7-6.5l0,0l8-11L274.4,232.6z"/>
		<path id="Path_29" class="st8" d="M229.4,177.8c0,2-1.6,3.7-3.7,3.7c-2,0-3.7-1.6-3.7-3.7c0-2,1.6-3.7,3.7-3.7
			C227.8,174.1,229.4,175.7,229.4,177.8C229.4,177.8,229.4,177.8,229.4,177.8"/>
	</g>
</g>
</svg>
