<?xml version="1.0" encoding="utf-8"?>
<!-- Generator: Adobe Illustrator 25.0.1, SVG Export Plug-In . SVG Version: 6.00 Build 0)  -->
<svg version="1.1" id="Group_30" xmlns="http://www.w3.org/2000/svg" xmlns:xlink="http://www.w3.org/1999/xlink" x="0px" y="0px"
	 viewBox="0 0 300 300" style="enable-background:new 0 0 300 300;" xml:space="preserve">
<style type="text/css">
	.st0{clip-path:url(#SVGID_2_);}
	.st1{fill:#010101;}
	.st2{fill:#C4C3C3;}
	.st3{fill:#EFEFEF;}
	.st4{fill:#6A6D71;}
	.st5{fill:#575757;}
</style>
<g>
	<defs>
		<rect id="SVGID_1_" x="0.3" y="1.1" width="272.6" height="298.6"/>
	</defs>
	<clipPath id="SVGID_2_">
		<use xlink:href="#SVGID_1_"  style="overflow:visible;"/>
	</clipPath>
	<g id="Group_29" class="st0">
		<path id="Path_67" class="st1" d="M85.3,34.2c-2.6-4.4-2.8-9.7-0.5-14.3C88,13.3,95.7,8.5,106,6.8c6-0.9,12.1-1.2,18.1-0.9
			c6.1,0.1,11.3,0.2,14.7-1.5c5.2-2.6,12-4.5,15.5-2.3c1.6,1,2.5,2.9,2.3,4.8l-2.1,0c0.2-1.1-0.3-2.3-1.3-3
			c-2.3-1.4-7.7-0.5-13.5,2.4c-3.8,1.9-9.3,1.8-15.7,1.7c-5.9-0.3-11.9,0-17.7,0.9c-9.6,1.6-16.8,6-19.7,12
			c-1.9,3.9-1.7,8.6,0.5,12.4L85.3,34.2z"/>
		<path id="Path_68" class="st1" d="M45.7,47h-2.1c0-0.2-0.1-4.9-4.5-6.3c-2.7-0.9-3.5-3.1-4.3-5.2c-1-2.7-2.1-5.4-6.9-6.6
			c-3.6-1-7.4-0.3-10.4,1.8c-3.1,2.1-5.1,5.4-5.6,9.1l-2.1-0.2c0.6-4.3,2.9-8.1,6.5-10.6c3.5-2.4,8-3.2,12.1-2.1
			c5.9,1.4,7.2,5,8.3,7.9c0.8,2.2,1.4,3.4,3,4C43.3,40,45.7,43.3,45.7,47"/>
		<path id="Path_69" class="st1" d="M9.5,98.7V114l1.4,9.5l0.9-9.6V98.7H9.5z"/>
		<rect id="Rectangle_20" x="5" y="80.6" class="st2" width="11.3" height="18.1"/>
		<rect id="Rectangle_21" x="31.2" y="49.2" class="st3" width="38.3" height="12"/>
		<path id="Path_70" class="st3" d="M145.9,8.7L65,48.3l6.3,11.9L155.8,20L145.9,8.7z"/>
		<path id="Path_71" class="st3" d="M239.6,64.3l-92.2-40.4l8.9-20.2l104.6,43.1L239.6,64.3z"/>
		<path id="Path_72" class="st3" d="M158.9,160.5L158.9,160.5l88.8-108.5l21.7,12.2l-38,113L158.9,160.5z"/>
		<path id="Path_73" class="st2" d="M189.9,147.7c24.3,0,44,19.7,44,44l0,0h-88C145.9,167.4,165.6,147.7,189.9,147.7
			C189.9,147.7,189.9,147.7,189.9,147.7"/>
		<path id="Path_74" class="st1" d="M189.9,162.9c15.5,0,28.1,12.6,28.1,28.1h-56.2C161.8,175.4,174.4,162.9,189.9,162.9"/>
		<rect id="Rectangle_22" x="131" y="190.9" class="st3" width="113.9" height="8.3"/>
		<path id="Path_75" class="st1" d="M214.9,246.3h-51.1c-3.2,0-5.9-2.5-5.9-5.7c0-3.2,2.5-5.9,5.7-5.9c0.1,0,0.1,0,0.2,0h51.1
			c3.2,0,5.9,2.5,5.9,5.7c0,3.2-2.5,5.9-5.7,5.9C215,246.3,214.9,246.3,214.9,246.3"/>
		<path id="Path_76" class="st1" d="M215,210.9h-51.1c-3.2,0-5.8-2.6-5.8-5.8c0-3.2,2.6-5.8,5.8-5.8H215c3.2,0,5.8,2.6,5.8,5.8
			C220.8,208.3,218.2,210.9,215,210.9L215,210.9"/>
		<path id="Path_77" class="st4" d="M213.9,246.2l-50.1-10c-3.2-0.6-5.2-3.7-4.6-6.8c0.6-3.2,3.7-5.2,6.8-4.6l0,0l50.1,10
			c3.2,0.6,5.2,3.7,4.6,6.9C220.1,244.8,217,246.8,213.9,246.2"/>
		<path id="Path_78" class="st4" d="M213.9,228.1l-50.1-10c-3.2-0.6-5.2-3.7-4.6-6.8c0.6-3.2,3.7-5.2,6.8-4.6l50.1,10
			c3.2,0.6,5.2,3.7,4.6,6.9C220.1,226.7,217,228.7,213.9,228.1"/>
		<path id="Path_79" class="st4" d="M216.1,228.2l-50.6,7.2c-3.2,0.5-6.1-1.7-6.6-4.9c-0.5-3.2,1.7-6.1,4.9-6.6c0,0,0.1,0,0.1,0
			l50.6-7.2c3.2-0.5,6.1,1.8,6.6,4.9C221.5,224.7,219.3,227.7,216.1,228.2"/>
		<path id="Path_80" class="st1" d="M167.2,218.7l34.1-5l-2.2-0.5l-33.8,5.1L167.2,218.7z"/>
		<path id="Path_81" class="st4" d="M216.1,210.8l-50.6,7.2c-3.2,0.5-6.1-1.7-6.6-4.9c-0.5-3.2,1.7-6.1,4.9-6.6c0,0,0.1,0,0.1,0
			l50.6-7.2c3.2-0.5,6.2,1.6,6.7,4.8c0.5,3.2-1.6,6.2-4.8,6.7C216.2,210.8,216.1,210.8,216.1,210.8"/>
		<rect id="Rectangle_23" x="148.6" y="246.3" class="st2" width="82.8" height="41.9"/>
		<rect id="Rectangle_24" x="223.8" y="246.3" class="st3" width="7.6" height="41.9"/>
		<path id="Path_82" class="st3" d="M235.9,288.1H144c-4.2,0-7.5,5.2-7.5,11.6h107C243.5,293.3,240.1,288.1,235.9,288.1"/>
		<path id="Path_83" class="st2" d="M272.9,63.1c0,9.6-7.7,17.3-17.3,17.3c-9.6,0-17.3-7.7-17.3-17.3s7.7-17.3,17.3-17.3
			c0,0,0,0,0,0C265.2,45.8,272.9,53.5,272.9,63.1"/>
		<path id="Path_84" class="st3" d="M266,63.1c0,5.7-4.6,10.4-10.3,10.4c-5.7,0-10.4-4.6-10.4-10.3c0-5.7,4.6-10.4,10.3-10.4
			c0,0,0,0,0,0C261.3,52.7,266,57.3,266,63.1"/>
		<path id="Path_85" class="st1" d="M266.5,63.1c0-5.9-4.8-10.7-10.7-10.7c-5.9,0-10.7,4.8-10.7,10.7c0,5.9,4.8,10.7,10.7,10.7
			c0,0,0,0,0,0C261.7,73.8,266.5,69,266.5,63.1 M265.8,63.1c0,5.5-4.5,10-10,10c-5.5,0-10-4.5-10-10c0-5.5,4.5-10,10-10c0,0,0,0,0,0
			C261.3,53.1,265.8,57.5,265.8,63.1"/>
		<path id="Path_86" class="st5" d="M255.6,50.1v-1.8c-8.8,0-16,7.2-16,16h2C242.4,56.9,248.2,51,255.6,50.1"/>
		<path id="Path_87" class="st2" d="M167.9,16c0,6.8-5.5,12.3-12.3,12.3c-6.8,0-12.3-5.5-12.3-12.3c0-6.8,5.5-12.3,12.3-12.3
			c0,0,0,0,0,0C162.4,3.7,167.9,9.2,167.9,16C167.9,16,167.9,16,167.9,16"/>
		<path id="Path_88" class="st3" d="M163,16c0,4.1-3.3,7.4-7.4,7.4c-4.1,0-7.4-3.3-7.4-7.4c0-4.1,3.3-7.4,7.4-7.4c0,0,0,0,0,0
			C159.7,8.7,163,12,163,16C163,16,163,16,163,16"/>
		<path id="Path_89" class="st1" d="M163.4,16c0-4.2-3.4-7.6-7.6-7.6c-4.2,0-7.6,3.4-7.6,7.6s3.4,7.6,7.6,7.6c0,0,0,0,0,0
			C160,23.7,163.4,20.3,163.4,16 M162.9,16c0,3.9-3.2,7.1-7.1,7.1c-3.9,0-7.1-3.2-7.1-7.1c0-3.9,3.2-7.1,7.1-7.1c0,0,0,0,0,0
			C159.7,8.9,162.9,12.1,162.9,16"/>
		<path id="Path_90" class="st5" d="M155.6,6.8V5.6c-6.3,0-11.4,5.1-11.4,11.4l0,0h1.4C146.2,11.7,150.3,7.5,155.6,6.8"/>
		<path id="Path_91" class="st2" d="M74.8,54.3c0,4.7-3.8,8.6-8.6,8.6s-8.6-3.8-8.6-8.6c0-4.7,3.8-8.6,8.6-8.6c0,0,0,0,0,0
			C71,45.8,74.8,49.6,74.8,54.3C74.8,54.3,74.8,54.3,74.8,54.3"/>
		<path id="Path_92" class="st3" d="M71.4,54.3c0,2.8-2.3,5.1-5.1,5.1c-2.8,0-5.1-2.3-5.1-5.1c0-2.8,2.3-5.1,5.1-5.1c0,0,0,0,0,0
			C69.1,49.2,71.4,51.5,71.4,54.3L71.4,54.3"/>
		<path id="Path_93" class="st1" d="M71.7,54.3c0-2.9-2.4-5.3-5.3-5.3c-2.9,0-5.3,2.4-5.3,5.3c0,2.9,2.4,5.3,5.3,5.3c0,0,0,0,0,0
			C69.3,59.6,71.7,57.3,71.7,54.3 M71.3,54.3c0,2.7-2.2,4.9-4.9,4.9c-2.7,0-4.9-2.2-4.9-4.9c0-2.7,2.2-4.9,4.9-4.9c0,0,0,0,0,0
			C69.1,49.4,71.3,51.6,71.3,54.3"/>
		<path id="Path_94" class="st5" d="M66.3,47.9V47c-4.4,0-7.9,3.5-7.9,7.9h1C59.7,51.3,62.6,48.4,66.3,47.9"/>
		<path id="Path_95" class="st1" d="M217.2,204.6c0,1.4-1.1,2.5-2.5,2.6c-1.4,0-2.5-1.1-2.6-2.5c0-1.4,1.1-2.5,2.5-2.6c0,0,0,0,0,0
			C216,202.1,217.2,203.2,217.2,204.6"/>
		<path id="Path_96" class="st1" d="M192.5,154.4c0,1.4-1.1,2.5-2.5,2.6c-1.4,0-2.5-1.1-2.6-2.5c0-1.4,1.1-2.5,2.5-2.6c0,0,0,0,0,0
			C191.4,151.8,192.5,153,192.5,154.4"/>
		<path id="Path_97" class="st1" d="M156.7,185.5c0,1.4-1.1,2.5-2.5,2.6c-1.4,0-2.5-1.1-2.6-2.5c0-1.4,1.1-2.5,2.5-2.6c0,0,0,0,0,0
			C155.5,183,156.7,184.1,156.7,185.5"/>
		<path id="Path_98" class="st1" d="M161.7,172.2c0,1.4-1.1,2.5-2.5,2.6c-1.4,0-2.5-1.1-2.6-2.5c0-1.4,1.1-2.5,2.5-2.6c0,0,0,0,0,0
			C160.6,169.7,161.7,170.8,161.7,172.2"/>
		<path id="Path_99" class="st1" d="M173,160.3c0,1.4-1.1,2.5-2.5,2.6c-1.4,0-2.5-1.1-2.6-2.5c0-1.4,1.1-2.5,2.5-2.6c0,0,0,0,0,0
			C171.9,157.8,173,158.9,173,160.3"/>
		<path id="Path_100" class="st1" d="M223.8,185.2c0,1.4,1.1,2.5,2.5,2.6c1.4,0,2.5-1.1,2.6-2.5c0-1.4-1.1-2.5-2.5-2.6c0,0,0,0,0,0
			C224.9,182.7,223.8,183.8,223.8,185.2C223.8,185.2,223.8,185.2,223.8,185.2"/>
		<path id="Path_101" class="st1" d="M218.7,172c0,1.4,1.1,2.5,2.5,2.6c1.4,0,2.5-1.1,2.6-2.5c0-1.4-1.1-2.5-2.5-2.6c0,0,0,0,0,0
			C219.8,169.4,218.7,170.6,218.7,172"/>
		<path id="Path_102" class="st1" d="M207.4,160c0,1.4,1.1,2.5,2.5,2.6c1.4,0,2.5-1.1,2.6-2.5c0-1.4-1.1-2.5-2.5-2.6c0,0,0,0,0,0
			C208.5,157.5,207.4,158.6,207.4,160C207.4,160,207.4,160,207.4,160"/>
		<path id="Path_103" class="st1" d="M167.2,212.3c0,1.4-1.1,2.5-2.5,2.6c-1.4,0-2.5-1.1-2.6-2.5c0-1.4,1.1-2.5,2.5-2.6c0,0,0,0,0,0
			C166,209.7,167.2,210.9,167.2,212.3"/>
		<path id="Path_104" class="st1" d="M218.8,222c0,1.4-1.1,2.5-2.5,2.5c-1.4,0-2.5-1.1-2.5-2.5c0-1.4,1.1-2.5,2.5-2.5c0,0,0,0,0,0
			C217.6,219.5,218.7,220.6,218.8,222C218.8,222,218.8,222,218.8,222"/>
		<path id="Path_105" class="st1" d="M167.2,229.6c0,1.4-1.1,2.5-2.5,2.5c-1.4,0-2.5-1.1-2.5-2.5c0-1.4,1.1-2.5,2.5-2.5c0,0,0,0,0,0
			C166,227.1,167.2,228.2,167.2,229.6C167.2,229.6,167.2,229.6,167.2,229.6"/>
		<path id="Path_106" class="st1" d="M217.6,240.5c0,1.4-1.1,2.5-2.5,2.6c-1.4,0-2.5-1.1-2.6-2.5c0-1.4,1.1-2.5,2.5-2.6c0,0,0,0,0,0
			C216.4,237.9,217.6,239.1,217.6,240.5"/>
		<path id="Path_107" class="st1" d="M196.9,230.9l-34,5l2,0.5l34-5.1L196.9,230.9z"/>
		<path id="Path_108" class="st4" d="M130.7,37.1L96.1,53.2c-2.1,1-4.6,0.1-5.6-2l-6.8-14.6c-1-2.1-0.1-4.6,2-5.6l34.6-16.1
			c2.1-1,4.6-0.1,5.6,2l6.8,14.6C133.7,33.7,132.8,36.2,130.7,37.1"/>
		<path id="Path_109" class="st1" d="M89.2,29.3l10.6,22.2l3.1-1.4L92.3,27.9L89.2,29.3z"/>
		<path id="Path_110" class="st1" d="M95.4,26.5L106,48.6l3.1-1.4L98.6,25L95.4,26.5z"/>
		<path id="Path_111" class="st1" d="M102.1,23.4l10.6,22.2l3.1-1.4l-10.5-22.2L102.1,23.4z"/>
		<path id="Path_112" class="st1" d="M108.3,20.5l10.6,22.2l3.1-1.4L111.4,19L108.3,20.5z"/>
		<path id="Path_113" class="st1" d="M114.6,17.5l10.6,22.2l3.1-1.4l-10.5-22.2L114.6,17.5z"/>
		<rect id="Rectangle_25" x="17.7" y="53.4" class="st1" width="15.5" height="3.9"/>
		<rect id="Rectangle_26" x="0.3" y="38.3" class="st1" width="21.3" height="42.3"/>
		<rect id="Rectangle_27" x="26" y="45.8" class="st1" width="21.8" height="18.5"/>
		<rect id="Rectangle_28" x="3.6" y="42.6" class="st4" width="4.3" height="34.2"/>
		<path id="Path_114" class="st2" d="M180.9,144.2c0.6-1.7,55.8-70.8,55.8-70.8l5,5.4l-40.4,65.4H180.9z"/>
		<path id="Path_115" class="st2" d="M170.5,13.2c0,0.8,0,5.9,0,5.9l67.8,30.2l11.1-3.7L170.5,13.2z"/>
		<rect id="Rectangle_29" x="154.1" y="246.3" class="st5" width="21.6" height="41.9"/>
		<rect id="Rectangle_30" x="7.1" y="80.6" class="st5" width="4.7" height="18.1"/>
		<rect id="Rectangle_31" x="26" y="48.3" class="st4" width="21.8" height="6"/>
		<path id="Path_116" class="st2" d="M244.4,81.1L206,146.2l14.3,6.8l28.9-70L244.4,81.1z"/>
	</g>
</g>
</svg>
