<?xml version="1.0" encoding="utf-8"?>
<!-- Generator: Adobe Illustrator 24.0.1, SVG Export Plug-In . SVG Version: 6.00 Build 0)  -->
<svg version="1.1" id="Capa_1" xmlns="http://www.w3.org/2000/svg" xmlns:xlink="http://www.w3.org/1999/xlink" x="0px" y="0px"
	 viewBox="-49 141 512 512" style="enable-background:new -49 141 512 512;" xml:space="preserve">
<style type="text/css">
	.st0{fill:#EBD493;}
	.st1{fill:#FFFFFF;}
</style>
<circle class="st0" cx="207" cy="397" r="254"/>
<path class="st1" d="M207,262.8C132.9,262.8,72.8,322.9,72.8,397v105.5c0,15.9,12.9,28.8,28.8,28.8h38.4c5.3,0,9.6-4.3,9.6-9.6
	v-95.9c0-5.3-4.3-9.6-9.6-9.6h-38.4c-3.3,0-6.5,0.6-9.6,1.8V397c0-63.5,51.5-115.1,115.1-115.1S322.1,333.5,322.1,397v20.9
	c-3.1-1.1-6.3-1.7-9.6-1.8h-38.4c-5.3,0-9.6,4.3-9.6,9.6v95.9c0,5.3,4.3,9.6,9.6,9.6h38.4c15.9,0,28.8-12.9,28.8-28.8V397
	C341.2,322.9,281.1,262.8,207,262.8z M101.5,435.4h28.8v76.7h-28.8c-5.3,0-9.6-4.3-9.6-9.6v-57.5C91.9,439.6,96.2,435.4,101.5,435.4
	z M322.1,502.5c0,5.3-4.3,9.6-9.6,9.6h-28.8v-76.7h28.8c5.3,0,9.6,4.3,9.6,9.6V502.5z"/>
</svg>
