<svg xmlns="http://www.w3.org/2000/svg" width="71.142" height="71.142" viewBox="0 0 71.142 71.142">
  <g id="earth-globe" transform="translate(0.5 0.5)">
    <path id="Path_176" data-name="Path 176" d="M70.864,21.278A35.063,35.063,0,1,0,46.071,81.142,35.063,35.063,0,0,0,70.864,21.278Zm7.1,23.218h-13.6a60.894,60.894,0,0,0-2.219-15.245,34.78,34.78,0,0,0,7.229-4.982A31.85,31.85,0,0,1,77.964,44.5ZM47.646,47.646H61.23A57.565,57.565,0,0,1,59.24,61.66,35.4,35.4,0,0,0,47.646,59.14ZM67.113,22.08a31.892,31.892,0,0,1-5.955,4.137,36.566,36.566,0,0,0-1.847-4.294A25.232,25.232,0,0,0,54.7,15.337,31.793,31.793,0,0,1,67.113,22.08ZM47.646,14.636c3.278.73,6.37,3.75,8.861,8.675a35.778,35.778,0,0,1,1.8,4.251,32.125,32.125,0,0,1-10.664,2.391ZM59.255,30.582a57.573,57.573,0,0,1,1.961,13.928H47.646V33.116A35.424,35.424,0,0,0,59.255,30.582ZM44.5,44.5H30.912a57.572,57.572,0,0,1,1.961-13.928,34.77,34.77,0,0,0,11.609,2.519V44.5Zm.014-29.86V29.953a32.045,32.045,0,0,1-10.664-2.391,35.776,35.776,0,0,1,1.8-4.251c2.491-4.924,5.583-7.945,8.861-8.675Zm-7.057.7a25.476,25.476,0,0,0-4.609,6.585A42.108,42.108,0,0,0,31,26.216a32.368,32.368,0,0,1-5.955-4.137A31.793,31.793,0,0,1,37.454,15.337ZM22.781,24.27a35.338,35.338,0,0,0,7.229,4.982A60.341,60.341,0,0,0,27.791,44.5h-13.6A31.85,31.85,0,0,1,22.781,24.27ZM14.192,47.646h13.6a60.816,60.816,0,0,0,2.247,15.331,34.465,34.465,0,0,0-7.2,4.953A31.8,31.8,0,0,1,14.192,47.646ZM25.1,70.12a32.012,32.012,0,0,1,5.926-4.108,38.792,38.792,0,0,0,1.818,4.209,25.569,25.569,0,0,0,4.609,6.6A31.951,31.951,0,0,1,25.1,70.12Zm19.411,7.386c-3.278-.73-6.37-3.75-8.861-8.675a36.8,36.8,0,0,1-1.775-4.166,31.6,31.6,0,0,1,10.636-2.376V77.506ZM32.916,61.66a57.565,57.565,0,0,1-1.99-14.014H44.511V59.14A34.689,34.689,0,0,0,32.916,61.66ZM47.66,77.506V62.289A31.944,31.944,0,0,1,58.3,64.666a36.794,36.794,0,0,1-1.775,4.166c-2.491,4.924-5.583,7.945-8.861,8.675Zm7.057-.7a25.324,25.324,0,0,0,4.609-6.6A38.794,38.794,0,0,0,61.144,66a32.012,32.012,0,0,1,5.926,4.108A31.58,31.58,0,0,1,54.717,76.8Zm14.63-8.875a35.018,35.018,0,0,0-7.2-4.953,60.914,60.914,0,0,0,2.247-15.331h13.6A31.95,31.95,0,0,1,69.347,67.929Z" transform="translate(-11 -11)" fill="#231f20" stroke="#fff" stroke-width="1"/>
  </g>
</svg>
