<?xml version="1.0" encoding="utf-8"?>
<!-- Generator: Adobe Illustrator 24.0.1, SVG Export Plug-In . SVG Version: 6.00 Build 0)  -->
<svg version="1.1" id="Layer_1" xmlns="http://www.w3.org/2000/svg" xmlns:xlink="http://www.w3.org/1999/xlink" x="0px" y="0px"
	 viewBox="0 0 350 384" enable-background="new 0 0 350 384" xml:space="preserve">
<g>
	<g>
		<defs>
			<rect id="SVGID_1_" y="0" width="350" height="384"/>
		</defs>
		<clipPath id="SVGID_2_">
			<use xlink:href="#SVGID_1_"  overflow="visible"/>
		</clipPath>
		<path clip-path="url(#SVGID_2_)" d="M348,332.8c-2.2-13.7-8.1-39.8-22.6-61.7c-15.4-23.2-36.8-35.6-61.9-35.9c-0.1,0-0.2,0-0.3,0
			c-0.1,0-0.1,0-0.1,0c-0.2,0-32.3,0-32.3,0V211c19.8-16.3,34.8-38.9,39.6-60.9h2.2c19.6,0,30.2-15.9,30.2-30.8c0-6.7-2.1-13-6-17.7
			c-4.5-5.4-11.1-8.4-18.6-8.4h-7c-2.8-26.3-12.8-48.6-29.4-65.3c-17.6-17.7-41.3-27.6-66.7-28c-0.1,0-0.2,0-0.3,0
			c-25.4,0.4-49.1,10.4-66.7,28c-16.6,16.7-26.6,39-29.4,65.3h-7c-7.5,0-14.1,3-18.6,8.4c-3.8,4.7-6,10.9-6,17.7
			c0,14.9,10.6,30.8,30.2,30.8h2.3c4.8,21.9,19.8,44.6,39.6,60.8v24.1H87.4c-25.5,0-47.2,12.4-62.8,35.9
			c-14.5,21.9-20.4,48-22.6,61.7c-2.1,13.3-2.8,31.5,6.6,42.4c4.9,5.8,12,8.8,20.6,8.8h45c4.1,0,7.5-3.4,7.5-7.5
			c0-4.1-3.4-7.5-7.5-7.5h-45c-5.5,0-7.9-2-9.2-3.6c-4.3-5.1-5.5-16.1-3.2-30.3c3.1-19,16.5-78.7,63.1-84.6v31.3
			c-10.7,3.2-18.5,13.1-18.5,24.8c0,14.3,11.6,26,26,26s26-11.7,26-26c0-11.7-7.8-21.6-18.5-24.8v-31.8h27.1l45.6,97.1V369h-26.1
			c-4.1,0-7.5,3.4-7.5,7.5c0,4.1,3.4,7.5,7.5,7.5h179.5c8.6,0,15.7-3.1,20.6-8.8C350.8,364.2,350.2,346,348,332.8L348,332.8z
			 M175,327.9l-23.1-49.3c8.6,2.4,17,3.7,25.1,3.7c7.1,0,14-0.9,20.8-2.8L175,327.9z M278.2,108.3c3.1,0,5.4,1,7,3
			c1.6,2,2.5,4.9,2.5,8.1c0,5.5-3.2,15.8-15.2,15.8H272v-26.7c0-0.1,0-0.1,0-0.2H278.2z M175,15c37.8,0.7,78.3,27.7,81.8,85.4
			c-22.6-1.9-52.7-6.5-76.5-29.6c-2.9-2.8-7.5-2.8-10.4,0c-23.9,23.1-53.9,27.7-76.5,29.6C96.7,42.7,137.2,15.7,175,15L175,15z
			 M62.2,119.4c0-3.2,0.9-6.2,2.5-8.1c1.6-2,3.9-3,7-3H78c0,0.1,0,0.1,0,0.2v26.7h-0.6C65.4,135.2,62.2,124.9,62.2,119.4L62.2,119.4
			z M93.4,141.9C93.4,141.9,93.4,141.9,93.4,141.9c-0.2-2-0.4-4.1-0.4-6v-20.4c22.5-1.8,54.9-6.2,82-29.2c27.1,23,59.5,27.4,82,29.2
			v20.4c0,2-0.1,4-0.4,6c0,0,0,0,0,0.1c-3.5,28.6-30.9,61.6-61.8,73.1c-7.5,2.8-13.8,4-19.8,4c-6.1,0-12.3-1.3-19.8-4
			C124.3,203.5,96.9,170.6,93.4,141.9L93.4,141.9z M150,229.1c9.2,3.4,17.1,5,25,5c7.9,0,15.8-1.6,25-5c5.4-2,10.7-4.5,15.8-7.5V241
			l-8.8,18.8c-19.6,10.1-40.1,10-64.1-0.3l-8.7-18.5v-19.4C139.3,224.5,144.6,227.1,150,229.1L150,229.1z M98.3,306.7
			c0,6.1-4.9,11-11,11c-6,0-11-4.9-11-11c0-6,4.9-11,11-11C93.4,295.8,98.3,300.7,98.3,306.7L98.3,306.7z M330.1,365.4
			c-1.3,1.5-3.7,3.6-9.2,3.6H182.5v-21.8l36.8-78.5c0.1-0.1,0.1-0.2,0.2-0.4l8.5-18.2h27.7v24.1c-12.9,3.3-22.4,15.1-22.4,29V325
			c0,8.5,3.6,16.6,9.9,22.3c1.4,1.3,3.2,1.9,5,1.9c2.1,0,4.1-0.8,5.6-2.5c2.8-3.1,2.5-7.8-0.6-10.6c-3.2-2.8-5-6.9-5-11.1v-21.8
			c0-8.2,6.7-14.9,14.9-14.9c8.2,0,14.9,6.7,14.9,14.9V325c0,4.2-1.8,8.3-5,11.1c-3.1,2.8-3.4,7.5-0.6,10.6
			c2.8,3.1,7.5,3.4,10.6,0.6c6.3-5.7,10-13.8,10-22.3v-21.8c0-13.9-9.6-25.7-22.4-29v-23.5c46,6.3,59.4,65.6,62.5,84.5
			C335.5,349.1,334.3,360.4,330.1,365.4L330.1,365.4z M330.1,365.4"/>
	</g>
	<path d="M137.5,154.5c4.1,0,7.5-3.4,7.5-7.5v-13.2c0-4.1-3.4-7.5-7.5-7.5c-4.1,0-7.5,3.4-7.5,7.5V147
		C130,151.2,133.4,154.5,137.5,154.5L137.5,154.5z M137.5,154.5"/>
	<path d="M212.5,154.5c4.1,0,7.5-3.4,7.5-7.5v-13.2c0-4.1-3.4-7.5-7.5-7.5c-4.1,0-7.5,3.4-7.5,7.5V147
		C205,151.2,208.3,154.5,212.5,154.5L212.5,154.5z M212.5,154.5"/>
	<path d="M107.7,369c-4.1,0-7.5,3.4-7.5,7.5c0,4.1,3.4,7.5,7.5,7.5h0c4.1,0,7.5-3.4,7.5-7.5C115.2,372.4,111.9,369,107.7,369
		L107.7,369z M107.7,369"/>
	<path d="M161.2,187.9c4.1,2.6,9.2,3.9,14.3,3.9c5.1,0,10.2-1.3,14.3-3.9c3.5-2.2,4.5-6.9,2.3-10.4c-2.2-3.5-6.9-4.5-10.4-2.3
		c-3.2,2.1-9.3,2.1-12.5,0c-3.5-2.2-8.1-1.2-10.4,2.3C156.7,181,157.8,185.7,161.2,187.9L161.2,187.9z M161.2,187.9"/>
</g>
</svg>
