<?xml version="1.0" encoding="utf-8"?>
<!-- Generator: Adobe Illustrator 24.0.1, SVG Export Plug-In . SVG Version: 6.00 Build 0)  -->
<svg version="1.1" id="Layer_1" xmlns="http://www.w3.org/2000/svg" xmlns:xlink="http://www.w3.org/1999/xlink" x="0px" y="0px"
	 viewBox="0 0 320.6 384" enable-background="new 0 0 320.6 384" xml:space="preserve">
<g>
	<rect x="163.9" y="282.3" fill="#FFFFFF" width="11.3" height="12.2"/>
	<path fill="#FFFFFF" d="M276.2,230.3c11.6,0,20.9-9.4,20.9-20.9s-9.4-20.9-20.9-20.9c-11.5,0-20.9,9.4-20.9,20.9
		S264.6,230.3,276.2,230.3L276.2,230.3z M276.2,199.4c5.5,0,9.9,4.4,9.9,9.9c0,5.5-4.4,9.9-9.9,9.9c-5.5,0-9.9-4.4-9.9-9.9
		C266.3,203.9,270.7,199.4,276.2,199.4L276.2,199.4z M276.2,199.4"/>
	<rect x="47.5" y="117.3" fill="#FFFFFF" width="11.3" height="11.3"/>
	<rect x="70.1" y="117.3" fill="#FFFFFF" width="11.3" height="11.3"/>
	<rect x="58.8" y="95" fill="#FFFFFF" width="11.3" height="11.3"/>
	<path fill="#FFFFFF" d="M65.2,194.9l23-23h34V52.1H2.5v119.8h39.7L65.2,194.9z M13.8,63.4h97.2v97.2H83.5l-18.3,18.3l-18.3-18.3
		H13.8V63.4z M13.8,63.4"/>
	<path fill="#FFFFFF" d="M280.2,252.8c22.6-2,40.4-20.7,40.4-43.5c0-13.9-6.7-26.3-17-34.3c-0.6-33.5-13.3-64.8-36.1-89.1l30.5-30.5
		l-5.2-5.2l17.9-17.9L279.6,1.2l-17.9,17.9l-5.2-5.2L155,115.7l5.8,5.8l-13.6,19.9l23.5,23.5l19.8-13.6l5.8,5.8l41.8-41.9
		c13.3,14.7,21.6,33.1,23.5,52.8c-17.4,5.9-29.9,22.2-29.9,41.3c0,10,3.5,19.3,9.3,26.7c-11.6,14.1-27.1,24.4-44.4,29.7v-16h-54.1
		v15.8c-17.3-5.4-32.8-16-44.3-30h45.5v-11.3H-2v11.3h51.4c18.1,37.4,52.5,64.3,93.1,72.8v15H74l-7.4,28.9h-23v33.1h251.9v-33.1h-23
		l-7.4-28.9h-68.5v-14.8C230.4,301.5,260.5,281.5,280.2,252.8L280.2,252.8z M279.6,17.2l15.1,15.1l-8.7,8.7l-15.1-15.1L279.6,17.2z
		 M260.8,352.1L140,352l0,11.3l144.2,0.1v10.5H54.9v-10.5h51.4v-11.3h-28l4.5-17.6h173.6L260.8,352.1z M256.5,30l25.4,25.5
		l-22.5,22.5l-0.2-0.2l-14.5,14.8l-48.5,48.6l-11.5-11.5l-13.9-13.9L256.5,30z M172,150.2L161.8,140l7.1-10.4l13.5,13.5L172,150.2z
		 M246.2,107.3l6.7-6.8l6.6-6.6c19.2,20.6,30.5,46.6,32.5,74.6c-4.9-1.9-10.3-2.9-15.8-2.9c-1.1,0-2.2,0.1-3.3,0.1
		C270.4,144,261.1,123.6,246.2,107.3L246.2,107.3z M276.2,177c18.3,0,33.1,14.5,33.1,32.4s-14.9,32.4-33.1,32.4
		c-18.3,0-33.1-14.5-33.1-32.4S257.9,177,276.2,177L276.2,177z M249.1,244c5.1,3.9,11.1,6.7,17.7,8.1
		c-17.5,22.7-42.4,38.6-70.2,44.8v-19.4C217.1,272,235.4,260.3,249.1,244L249.1,244z M153.8,261h31.5v62.3h-31.5V261z M62.1,235.6
		h22.1c13.8,20.2,34.7,35.1,58.3,41.7v19.4C108.1,288.8,78.8,266.5,62.1,235.6L62.1,235.6z M62.1,235.6"/>
	<path fill="#FFFFFF" d="M117.5,352.1l11.3-0.1l0.1,11.3l-11.3,0.1L117.5,352.1z M117.5,352.1"/>
	<path fill="#FFFFFF" d="M242.7,79.4l-8,8l-8-8l8-8L242.7,79.4z M226.8,95.4l-8,8l-8-8l8-8L226.8,95.4z M210.8,111.4l-8,8l-8-8l8-8
		L210.8,111.4z M210.8,111.4"/>
</g>
</svg>
