<?xml version="1.0" encoding="utf-8"?>
<!-- Generator: Adobe Illustrator 24.0.1, SVG Export Plug-In . SVG Version: 6.00 Build 0)  -->
<svg version="1.1" id="Layer_1" xmlns="http://www.w3.org/2000/svg" xmlns:xlink="http://www.w3.org/1999/xlink" x="0px" y="0px"
	 viewBox="0 0 386 371.6" enable-background="new 0 0 386 371.6" xml:space="preserve">
<g>
	<g>
		<defs>
			<rect id="SVGID_1_" x="2" y="1.6" width="384" height="370"/>
		</defs>
		<clipPath id="SVGID_2_">
			<use xlink:href="#SVGID_1_"  overflow="visible"/>
		</clipPath>
		<path clip-path="url(#SVGID_2_)" d="M163.4,307.1v-15c0-0.1,0-0.1,0-0.2c-0.3-11.6-0.6-23.6-3.9-36.1
			c-7.6-28.4-24.1-44.1-55.1-52.5c-0.9-0.2-2-0.3-2.7-0.8c-0.6-0.4-1.1-1.4-1.5-2l-19.5-31.7c-3.6-5.9-9.3-10-16.1-11.7l-4.7-60.5
			c-1.1-14.1-12-24.8-25.3-24.8c0,0,0,0-0.1,0c-13.5,0-24.4,10.7-25.3,24.8l-2.7,39.8c-0.3,4.1,2.8,7.7,7,8c4.1,0.3,7.7-2.8,8-7
			l2.7-39.8c0.4-6.2,4.9-10.8,10.4-10.8h0c6.2,0,9.9,5.5,10.4,11l4.7,60.2c-1.6,0.6-3.2,1.4-4.7,2.3c-12.2,7.5-16,23.5-8.5,35.7
			l31.7,51.4c2.2,3.5,6.8,4.6,10.3,2.5c3.5-2.2,4.6-6.8,2.5-10.3l-31.7-51.4c-3.2-5.2-1.5-11.9,3.6-15.1c2.5-1.5,5.5-2,8.3-1.3
			c2.9,0.7,5.3,2.4,6.8,4.9l19.5,31.7c3.9,6.4,6.8,7.7,12.6,9.3l0.5,0.1c29.8,8,39.3,22.6,44.5,41.9c2.9,10.8,3.1,21.8,3.4,32.5v14
			H80.5V305c0-23.2-22.9-42.7-38-55.7c-2.3-1.9-4.4-3.8-6.1-5.3l-0.3-0.3c-14-12.7-19.8-18-19-39.3c0.1-4.1-3.1-7.6-7.2-7.8
			c-4.1-0.2-7.6,3.1-7.8,7.2c-1,28.3,8.9,37.3,24,51l0.3,0.3c1.9,1.7,4.1,3.6,6.5,5.6c13,11.1,32.7,28,32.7,44.3v2
			c-7.6,2.4-13.1,9.6-13.1,17.9v27.2c0,10.4,8.4,18.8,18.8,18.8h86.3c10.4,0,18.8-8.4,18.8-18.8V325
			C176.4,316.6,170.9,309.5,163.4,307.1L163.4,307.1z M161.4,352.2c0,2.1-1.7,3.8-3.8,3.8H71.3c-2.1,0-3.8-1.8-3.8-3.8V325
			c0-2.1,1.8-3.8,3.8-3.8h86.3c2.1,0,3.8,1.8,3.8,3.8V352.2z M161.4,352.2"/>
		<path clip-path="url(#SVGID_2_)" d="M385.9,203.9c0-0.1,0-0.2,0-0.2l-7.2-107c-1-14.2-11.8-24.8-25.3-24.8c0,0,0,0-0.1,0
			c-13.3,0-24.2,10.7-25.3,24.8l-4.7,60.5c-6.8,1.6-12.5,5.8-16.1,11.6l-19.5,31.7c-0.4,0.6-0.8,1.6-1.5,2c-0.8,0.4-1.9,0.5-2.7,0.8
			c-31,8.4-47.5,24.1-55.1,52.5c-3.3,12.5-3.6,24.5-3.9,36.1c0,0.1,0,0.1,0,0.2v15c-7.6,2.4-13.1,9.6-13.1,17.9v27.3
			c0,10.4,8.4,18.8,18.8,18.8h86.3c10.4,0,18.8-8.4,18.8-18.8V325c0-8.4-5.5-15.5-13.1-17.9v-2c0-16.3,19.7-33.1,32.7-44.3
			c2.4-2,4.6-3.9,6.5-5.6l0.3-0.3C377,241.2,387,232.2,385.9,203.9L385.9,203.9z M320.5,352.2c0,2.1-1.8,3.8-3.8,3.8h-86.3
			c-2.1,0-3.8-1.8-3.8-3.8V325c0-2.1,1.8-3.8,3.8-3.8h86.3c2.1,0,3.8,1.8,3.8,3.8V352.2z M351.9,243.8l-0.3,0.3
			c-1.7,1.6-3.9,3.4-6.1,5.3c-15.1,12.9-38,32.5-38,55.7v1.1h-67.8v-14c0.3-10.7,0.5-21.8,3.4-32.5c5.2-19.3,14.7-33.9,44.5-41.9
			l0.5-0.1c5.7-1.5,8.6-2.9,12.6-9.3l19.5-31.7c1.5-2.5,3.9-4.2,6.8-4.9c1-0.2,2.1-0.3,3.1-0.3c0,0,0.1,0,0.1,0
			c1.8,0.1,3.5,0.6,5,1.6c2.5,1.5,4.2,4,4.9,6.8c0.7,2.9,0.2,5.8-1.3,8.3l-31.7,51.4c-2.2,3.5-1.1,8.1,2.5,10.3
			c3.5,2.2,8.1,1.1,10.3-2.5l31.7-51.4c3.6-5.9,4.7-12.9,3.1-19.6c-1.6-6.8-5.8-12.5-11.6-16.1c-1.5-0.9-3.1-1.7-4.7-2.3l4.7-60.2
			c0.4-5.4,4.1-10.9,10.4-11h0c5.5,0,9.9,4.6,10.4,10.8l7.2,106.9C371.7,225.8,365.9,231.1,351.9,243.8L351.9,243.8z M351.9,243.8"
			/>
	</g>
	<path d="M94.6,153.6h33.1c-0.8,4.2-1.3,8.6-1.3,13v11.9c0,4.1,3.4,7.5,7.5,7.5h120.2c4.1,0,7.5-3.4,7.5-7.5v-11.9
		c0-4.4-0.4-8.7-1.3-13h33.1c4.1,0,7.5-3.4,7.5-7.5v-11.9c0-23-11.8-44.2-30.8-56.6c6.2-8,10-17.9,10-28.8c0-25.8-21-46.8-46.8-46.8
		c-16.3,0-30.9,8.4-39.3,21.4c-8.4-13-23-21.4-39.3-21.4c-25.8,0-46.8,21-46.8,46.8c0,10.9,3.7,20.9,10,28.8
		c-18.9,12.4-30.7,33.6-30.7,56.6v11.9C87.1,150.3,90.4,153.6,94.6,153.6L94.6,153.6z M246.6,171H141.4v-4.4
		c0-19.2,10.6-36.8,27.3-46c7.3,4.7,16,7.5,25.3,7.5c9.3,0,18-2.8,25.3-7.5c16.7,9.2,27.3,26.9,27.3,46V171z M286,134.3v4.4h-30.5
		c-5.3-11.5-13.8-21.5-24.6-28.6c3.4-4.3,6-9.3,7.8-14.6c7.3-0.8,14.1-3.4,20-7.2C275.4,97.5,286,115.1,286,134.3L286,134.3z
		 M233.3,17.1c17.6,0,31.8,14.3,31.8,31.8c0,15-10.4,27.6-24.4,30.9c-0.6-21.6-16-39.6-36.4-44.3C209.5,24.5,220.7,17.1,233.3,17.1
		L233.3,17.1z M194,49.4c17.6,0,31.8,14.3,31.8,31.8c0,17.6-14.3,31.8-31.8,31.8s-31.8-14.3-31.8-31.8
		C162.2,63.6,176.4,49.4,194,49.4L194,49.4z M154.7,17.1c12.7,0,23.8,7.4,28.9,18.5c-20.4,4.6-35.8,22.6-36.4,44.3
		c-14-3.4-24.4-16-24.4-30.9C122.8,31.3,137.1,17.1,154.7,17.1L154.7,17.1z M102.1,134.3c0-19.2,10.6-36.8,27.3-46
		c5.9,3.8,12.7,6.3,20,7.2c1.7,5.4,4.4,10.3,7.8,14.6c-10.8,7.1-19.3,17.1-24.6,28.6h-30.4V134.3z M102.1,134.3"/>
	<path d="M11.8,178.1c4.1,0,7.5-3.4,7.5-7.5c0-4.1-3.4-7.5-7.5-7.5c-4.1,0-7.5,3.4-7.5,7.5v0C4.3,174.8,7.7,178.1,11.8,178.1
		L11.8,178.1z M11.8,178.1"/>
</g>
</svg>
