<?xml version="1.0" encoding="utf-8"?>
<!-- Generator: Adobe Illustrator 24.0.1, SVG Export Plug-In . SVG Version: 6.00 Build 0)  -->
<svg version="1.1" id="Layer_1" xmlns="http://www.w3.org/2000/svg" xmlns:xlink="http://www.w3.org/1999/xlink" x="0px" y="0px"
	 viewBox="0 0 350 384" enable-background="new 0 0 350 384" xml:space="preserve">
<g>
	<path fill="#FFFFFF" d="M348,332.6c-2.2-13.7-8.1-39.8-22.6-61.7c-15.4-23.2-36.8-35.6-61.9-35.9c-0.1,0-0.2,0-0.3,0
		c-0.1,0-0.1,0-0.1,0c-0.2,0-32.3,0-32.3,0v-24.1c19.8-16.3,34.8-38.9,39.6-60.9h2.2c19.6,0,30.2-15.9,30.2-30.8
		c0-6.7-2.1-13-6-17.7c-4.5-5.4-11.1-8.4-18.6-8.4h-7c-2.8-26.3-12.8-48.6-29.4-65.3c-17.6-17.7-41.3-27.6-66.7-28
		c-0.1,0-0.2,0-0.3,0c-25.4,0.4-49.1,10.4-66.7,28c-16.6,16.7-26.6,39-29.4,65.3h-7c-7.5,0-14.1,3-18.6,8.4c-3.8,4.7-6,10.9-6,17.7
		c0,14.9,10.6,30.8,30.2,30.8h2.3c4.8,21.9,19.8,44.6,39.6,60.8V235H87.4c-25.5,0-47.2,12.4-62.8,35.9c-14.5,21.9-20.4,48-22.6,61.7
		C-0.2,345.9-0.8,364,8.5,375c4.9,5.8,12,8.8,20.6,8.8h45c4.1,0,7.5-3.4,7.5-7.5c0-4.1-3.4-7.5-7.5-7.5h-45c-5.5,0-7.9-2-9.2-3.6
		c-4.3-5.1-5.5-16.1-3.2-30.3c3.1-19,16.5-78.7,63.1-84.6v31.3c-10.7,3.2-18.5,13.1-18.5,24.8c0,14.3,11.6,26,26,26s26-11.7,26-26
		c0-11.7-7.8-21.6-18.5-24.8V250h27.1l45.6,97.1v21.8h-26.1c-4.1,0-7.5,3.4-7.5,7.5c0,4.1,3.4,7.5,7.5,7.5h179.5
		c8.6,0,15.7-3.1,20.6-8.8C350.8,364,350.2,345.9,348,332.6L348,332.6z M175,327.7l-23.1-49.3c8.6,2.4,17,3.7,25.1,3.7
		c7.1,0,14-0.9,20.8-2.8L175,327.7z M278.2,108.1c3.1,0,5.4,1,7,3c1.6,2,2.5,4.9,2.5,8.1c0,5.5-3.2,15.8-15.2,15.8H272v-26.7
		c0-0.1,0-0.1,0-0.2H278.2z M175,14.8c37.8,0.7,78.3,27.7,81.8,85.4c-22.6-1.9-52.7-6.5-76.5-29.6c-2.9-2.8-7.5-2.8-10.4,0
		c-23.9,23.1-53.9,27.7-76.5,29.6C96.7,42.5,137.2,15.5,175,14.8L175,14.8z M62.2,119.2c0-3.2,0.9-6.2,2.5-8.1c1.6-2,3.9-3,7-3H78
		c0,0.1,0,0.1,0,0.2V135h-0.6C65.4,135,62.2,124.7,62.2,119.2L62.2,119.2z M93.4,141.7C93.4,141.7,93.4,141.7,93.4,141.7
		c-0.2-2-0.4-4.1-0.4-6v-20.4c22.5-1.8,54.9-6.2,82-29.2c27.1,23,59.5,27.4,82,29.2v20.4c0,2-0.1,4-0.4,6c0,0,0,0,0,0.1
		c-3.5,28.6-30.9,61.6-61.8,73.1c-7.5,2.8-13.8,4-19.8,4c-6.1,0-12.3-1.3-19.8-4C124.3,203.4,96.9,170.4,93.4,141.7L93.4,141.7z
		 M150,228.9c9.2,3.4,17.1,5,25,5c7.9,0,15.8-1.6,25-5c5.4-2,10.7-4.5,15.8-7.5v19.4l-8.8,18.8c-19.6,10.1-40.1,10-64.1-0.3
		l-8.7-18.5v-19.4C139.3,224.3,144.6,226.9,150,228.9L150,228.9z M98.3,306.6c0,6.1-4.9,11-11,11c-6,0-11-4.9-11-11
		c0-6,4.9-11,11-11C93.4,295.6,98.3,300.5,98.3,306.6L98.3,306.6z M330.1,365.2c-1.3,1.5-3.7,3.6-9.2,3.6H182.5V347l36.8-78.5
		c0.1-0.1,0.1-0.2,0.2-0.4l8.5-18.2h27.7v24.1c-12.9,3.3-22.4,15.1-22.4,29v21.8c0,8.5,3.6,16.6,9.9,22.3c1.4,1.3,3.2,1.9,5,1.9
		c2.1,0,4.1-0.8,5.6-2.5c2.8-3.1,2.5-7.8-0.6-10.6c-3.2-2.8-5-6.9-5-11.1V303c0-8.2,6.7-14.9,14.9-14.9c8.2,0,14.9,6.7,14.9,14.9
		v21.8c0,4.2-1.8,8.3-5,11.1c-3.1,2.8-3.4,7.5-0.6,10.6c2.8,3.1,7.5,3.4,10.6,0.6c6.3-5.7,10-13.8,10-22.3V303
		c0-13.9-9.6-25.7-22.4-29v-23.5c46,6.3,59.4,65.6,62.5,84.5C335.5,348.9,334.3,360.3,330.1,365.2L330.1,365.2z M330.1,365.2"/>
	<path fill="#FFFFFF" d="M137.5,154.5c4.1,0,7.5-3.4,7.5-7.5v-13.2c0-4.1-3.4-7.5-7.5-7.5c-4.1,0-7.5,3.4-7.5,7.5V147
		C130,151.2,133.4,154.5,137.5,154.5L137.5,154.5z M137.5,154.5"/>
	<path fill="#FFFFFF" d="M212.5,154.5c4.1,0,7.5-3.4,7.5-7.5v-13.2c0-4.1-3.4-7.5-7.5-7.5c-4.1,0-7.5,3.4-7.5,7.5V147
		C205,151.2,208.3,154.5,212.5,154.5L212.5,154.5z M212.5,154.5"/>
	<path fill="#FFFFFF" d="M107.7,369c-4.1,0-7.5,3.4-7.5,7.5c0,4.1,3.4,7.5,7.5,7.5h0c4.1,0,7.5-3.4,7.5-7.5
		C115.2,372.4,111.9,369,107.7,369L107.7,369z M107.7,369"/>
	<path fill="#FFFFFF" d="M161.2,187.9c4.1,2.6,9.2,3.9,14.3,3.9c5.1,0,10.2-1.3,14.3-3.9c3.5-2.2,4.5-6.9,2.3-10.4
		c-2.2-3.5-6.9-4.5-10.4-2.3c-3.2,2.1-9.3,2.1-12.5,0c-3.5-2.2-8.1-1.2-10.4,2.3C156.7,181,157.8,185.7,161.2,187.9L161.2,187.9z
		 M161.2,187.9"/>
</g>
</svg>
