<?xml version="1.0" encoding="utf-8"?>
<!-- Generator: Adobe Illustrator 24.0.1, SVG Export Plug-In . SVG Version: 6.00 Build 0)  -->
<svg version="1.1" id="Layer_1" xmlns="http://www.w3.org/2000/svg" xmlns:xlink="http://www.w3.org/1999/xlink" x="0px" y="0px"
	 viewBox="0 0 384 384" enable-background="new 0 0 384 384" xml:space="preserve">
<path d="M72.1,51.2c5.9-5.3,9.6-13,9.6-21.6c0-16.1-13.1-29.1-29.1-29.1c-16.1,0-29.1,13.1-29.1,29.1c0,8.6,3.7,16.3,9.6,21.6
	C13.7,58.9,0,77.9,0,100c0,3.1,2.5,5.6,5.6,5.6H47v21.6c0,2.4,1.5,4.6,3.8,5.3l45.5,15.2c0.6,0.2,1.2,0.3,1.8,0.3
	c2.4,0,4.6-1.5,5.3-3.8c1-2.9-0.6-6.1-3.6-7.1l-41.6-13.9v-17.6h41.3c3.1,0,5.6-2.5,5.6-5.6C105.2,77.9,91.5,58.9,72.1,51.2
	L72.1,51.2z M34.7,29.5c0-9.8,8-17.9,17.9-17.9c9.8,0,17.9,8,17.9,17.9c0,9.9-8,17.9-17.9,17.9C42.8,47.4,34.7,39.4,34.7,29.5
	L34.7,29.5z M11.6,94.4c2.8-20.1,20.1-35.7,41-35.7c20.9,0,38.2,15.6,41,35.7H11.6z M11.6,94.4"/>
<path d="M284.4,105.6h41.3v17.6l-41.6,13.9c-2.9,1-4.5,4.2-3.6,7.1c0.8,2.4,3,3.8,5.3,3.8c0.6,0,1.2-0.1,1.8-0.3l45.5-15.2
	c2.3-0.8,3.8-2.9,3.8-5.3v-21.6h5.3c3.1,0,5.6-2.5,5.6-5.6c0-3.1-2.5-5.6-5.6-5.6h-51.8c2.8-20.1,20.1-35.7,41-35.7
	c20.9,0,38.2,15.6,41,35.7h-3.8c-3.1,0-5.6,2.5-5.6,5.6c0,3.1,2.5,5.6,5.6,5.6h9.8c3.1,0,5.6-2.5,5.6-5.6
	c0-22.1-13.7-41.1-33.1-48.8c5.9-5.3,9.6-13,9.6-21.6c0-16.1-13.1-29.1-29.1-29.1c-16.1,0-29.1,13.1-29.1,29.1
	c0,8.6,3.7,16.3,9.6,21.6c-19.4,7.8-33.1,26.7-33.1,48.8C278.8,103.1,281.3,105.6,284.4,105.6L284.4,105.6z M313.5,29.5
	c0-9.8,8-17.9,17.9-17.9c9.8,0,17.9,8,17.9,17.9c0,9.9-8,17.9-17.9,17.9C321.6,47.4,313.5,39.4,313.5,29.5L313.5,29.5z M313.5,29.5"
	/>
<path d="M72.1,330c5.9-5.3,9.6-13,9.6-21.6c0-14.1-10.1-25.9-23.5-28.6v-18.1l41.6-13.9c2.9-1,4.5-4.2,3.6-7.1
	c-1-2.9-4.2-4.5-7.1-3.6l-45.5,15.2c-2.3,0.8-3.8,2.9-3.8,5.3v22.2c-13.4,2.6-23.5,14.4-23.5,28.6c0,8.6,3.7,16.3,9.6,21.6
	C13.7,337.7,0,356.7,0,378.8c0,3.1,2.5,5.6,5.6,5.6h57.9c3.1,0,5.6-2.5,5.6-5.6c0-3.1-2.5-5.6-5.6-5.6H11.6
	c2.8-20.1,20.1-35.7,41-35.7c20.9,0,38.2,15.6,41,35.7h-3.8c-3.1,0-5.6,2.5-5.6,5.6c0,3.1,2.5,5.6,5.6,5.6h9.8
	c3.1,0,5.6-2.5,5.6-5.6C105.2,356.7,91.5,337.7,72.1,330L72.1,330z M34.7,308.4c0-9.9,8-17.9,17.9-17.9c9.8,0,17.9,8,17.9,17.9
	c0,9.8-8,17.9-17.9,17.9C42.8,326.2,34.7,318.2,34.7,308.4L34.7,308.4z M34.7,308.4"/>
<path d="M350.9,330c5.9-5.3,9.6-13,9.6-21.6c0-14.1-10.1-25.9-23.5-28.6v-22.2c0-2.4-1.5-4.6-3.8-5.3l-45.5-15.2
	c-3-1-6.1,0.6-7.1,3.6c-1,2.9,0.6,6.1,3.6,7.1l41.6,13.9v18.1c-13.4,2.6-23.5,14.4-23.5,28.6c0,8.6,3.7,16.3,9.6,21.6
	c-19.4,7.8-33.1,26.7-33.1,48.8c0,3.1,2.5,5.6,5.6,5.6h93.9c3.1,0,5.6-2.5,5.6-5.6C384,356.7,370.3,337.7,350.9,330L350.9,330z
	 M313.5,308.4c0-9.9,8-17.9,17.9-17.9c9.8,0,17.9,8,17.9,17.9c0,9.8-8,17.9-17.9,17.9C321.6,326.2,313.5,318.2,313.5,308.4
	L313.5,308.4z M290.4,373.2c2.8-20.1,20.1-35.7,41-35.7c20.9,0,38.2,15.6,41,35.7H290.4z M290.4,373.2"/>
<path d="M190.8,100.5c-5.8,0.1-11.5,0.8-17.2,2.2c-3,0.7-4.9,3.8-4.1,6.8c0.7,3,3.8,4.9,6.8,4.1c4.8-1.2,9.8-1.8,14.7-1.9
	c18.9-0.3,36.8,6.9,50.2,20.2c13.5,13.3,20.9,31,20.9,49.9c0,24.4-12.4,46.7-33.2,59.6c-4.7,2.9-8.1,7.5-9.4,12.7l-4.7,19h-17.3
	v-54.3l32.6-58.6c1.3-2.3,0.8-5.3-1.3-7c-2-1.7-5-1.8-7.1-0.1l-17.3,13.6l-8.6-8.6c-2.2-2.2-5.8-2.2-8,0l-8.6,8.6l-17.3-13.6
	c-2.1-1.7-5.1-1.6-7.1,0.1c-2,1.7-2.6,4.7-1.3,7l32.6,58.6v54.3h-17.3l-4.7-19c-1.3-5.3-4.6-9.8-9.4-12.7
	c-21.2-13.1-33.9-36.8-33.2-61.7c0.6-22.4,12.7-43.5,32.3-56.5c2.6-1.7,3.3-5.2,1.6-7.8c-1.7-2.6-5.2-3.3-7.8-1.6
	c-22.6,15-36.6,39.5-37.3,65.5c-0.8,28.9,13.9,56.3,38.5,71.5c2.2,1.4,3.8,3.5,4.4,5.9l5.6,22.6v29.6c0,3.1,2.5,5.6,5.6,5.6h3.6
	l3,18c0.5,2.7,2.8,4.7,5.6,4.7h30.3c2.8,0,5.1-2,5.5-4.7l3-18h3.6c3.1,0,5.6-2.5,5.6-5.6v-29.6l5.6-22.6c0.6-2.4,2.2-4.5,4.4-5.9
	c24.1-15,38.5-40.8,38.5-69.2c0-22-8.6-42.5-24.2-58C233.5,108.5,212.8,100.1,190.8,100.5L190.8,100.5z M177.1,179.2
	c2.2,1.2,4.9,0.9,6.7-0.9l8.1-8.1l8.1,8.1c1.8,1.8,4.6,2.1,6.7,0.9L192,205.9L177.1,179.2z M213.6,284.4v19.1h-43.3v-19.1H213.6z
	 M202.4,326.2h-20.8l-1.9-11.5h24.6L202.4,326.2z M202.4,326.2"/>
</svg>
